<svg width="136" height="167" viewBox="0 0 136 167" fill="none" xmlns="http://www.w3.org/2000/svg">
<g opacity="0.24">
<path d="M136.293 62.9452C152.874 61.4467 150.187 85.1172 137.117 85.2395C123.559 85.8512 120.169 62.4865 136.293 62.9452Z" fill="#1405A7" fill-opacity="0.24"/>
<path d="M137.729 38.2351C137.485 41.538 137.362 44.8408 136.996 48.1131C136.85 49.4837 136.467 50.8185 135.866 52.0582C135.437 53.1868 134.669 54.1545 133.669 54.8282C132.668 55.5018 131.483 55.8482 130.278 55.8198C129.107 55.8757 127.952 55.5307 127.002 54.8414C126.053 54.1521 125.367 53.1597 125.056 52.0276C124.022 48.511 123.306 44.9081 122.918 41.2628C122.659 38.0569 122.659 34.8352 122.918 31.6294C122.889 30.6332 123.062 29.6416 123.427 28.7143C123.791 27.787 124.34 26.9434 125.039 26.2345C125.739 25.5255 126.574 24.966 127.496 24.5896C128.417 24.2133 129.405 24.028 130.4 24.045C131.392 24.0765 132.368 24.3045 133.271 24.716C134.175 25.1274 134.988 25.714 135.664 26.4419C136.339 27.1699 136.865 28.0248 137.209 28.9572C137.552 29.8895 137.709 30.8809 137.668 31.874C137.668 33.9842 137.668 36.0944 137.668 38.2045L137.729 38.2351Z" fill="#B89FDA" fill-opacity="0.26"/>
<path d="M124.323 99.0022C123.98 106.194 121.324 113.081 116.75 118.636C115.082 120.417 112.868 121.59 110.46 121.969C109.346 122.043 108.232 121.821 107.231 121.326C106.23 120.831 105.377 120.081 104.757 119.15C104.138 118.22 103.774 117.143 103.703 116.027C103.632 114.911 103.856 113.796 104.352 112.795C107.211 105.507 111.594 98.9163 117.208 93.4668C117.814 92.9711 118.527 92.6243 119.291 92.4544C120.055 92.2844 120.847 92.296 121.606 92.4882C122.888 93.0998 123.591 95.0265 124.323 96.4944C124.482 97.3228 124.482 98.1738 124.323 99.0022Z" fill="#2F1AFF" fill-opacity="0.24"/>
<path d="M87.2199 95.087C85.8043 95.2476 84.3741 94.9553 83.1344 94.2522C81.8947 93.549 80.9091 92.471 80.3186 91.1725C79.8148 90.0229 79.6765 88.746 79.9223 87.515C80.1681 86.284 80.7863 85.1586 81.6928 84.2915C81.9307 84.0081 82.2084 83.7609 82.5172 83.5575C89.9141 79.2659 98.137 76.5973 106.641 75.7285C110.52 75.5144 112.199 78.542 110.52 82.0896C110.217 82.7673 109.816 83.396 109.329 83.9551C103.191 90.7443 94.6709 92.885 87.2199 95.087Z" fill="#B89FDA" fill-opacity="0.26"/>
<path d="M70.7622 167.598C70.8792 166.686 71.0733 165.786 71.3424 164.907C73.9344 157.975 78.6892 152.066 84.9008 148.056C85.6752 147.413 86.5394 146.888 87.4659 146.496C88.8724 146.021 90.3958 146.021 91.8022 146.496C92.32 147.02 92.7295 147.64 93.0073 148.322C93.285 149.005 93.4255 149.735 93.4207 150.472C93.506 152.038 93.1796 153.598 92.474 154.998C89.4214 160.82 86.0785 166.485 82.4579 171.971C81.9887 172.699 81.3659 173.316 80.6332 173.777C79.9006 174.238 79.0759 174.533 78.2173 174.641C77.3586 174.749 76.4868 174.667 75.6631 174.401C74.8394 174.136 74.0838 173.692 73.4495 173.103C72.1606 171.549 71.0825 169.832 70.2432 167.995L70.7622 167.598Z" fill="#9D93FF" fill-opacity="0.29"/>
<path d="M29.6276 108.299C28.5246 108.305 27.4225 108.233 26.3295 108.085C25.1084 107.965 23.9576 107.457 23.046 106.634C22.1344 105.812 21.5098 104.719 21.2639 103.515C21.018 102.311 21.1638 101.06 21.6797 99.9449C22.1957 98.8301 23.0547 97.9101 24.1309 97.3199C28.7305 94.7596 33.924 93.4619 39.1855 93.5583C42.3 93.4833 45.4153 93.6674 48.4993 94.1088C49.793 94.2289 51.0051 94.7944 51.9293 95.7088C52.8536 96.6233 53.4328 97.8302 53.5685 99.1242C53.6745 100.43 53.3067 101.73 52.5326 102.786C51.7585 103.842 50.6301 104.584 49.3544 104.874C42.85 106.342 36.2845 107.534 29.7496 108.819L29.6276 108.299Z" fill="#9D93FF" fill-opacity="0.29"/>
<path d="M12.7415 56.768C10.2195 56.4352 7.72088 55.9449 5.25999 55.3C3.95001 54.9309 2.80684 54.1213 2.02271 53.0075C1.23859 51.8936 0.861316 50.5433 0.954274 49.1836C1.00609 47.8267 1.53331 46.5313 2.44347 45.5247C3.35363 44.5181 4.58862 43.8646 5.93181 43.6788C12.4667 42.7919 19.0626 42.2415 25.6281 41.5381H25.903C28.6818 42.2109 32.0103 41.9662 33.1707 45.4832C33.873 47.6239 31.5828 51.1408 28.2543 52.7923C23.3813 55.089 18.1171 56.4382 12.7415 56.768Z" fill="#2F1AFF" fill-opacity="0.24"/>
<path d="M67.6474 37.5927C60.6872 37.1136 53.9336 35.0197 47.9206 31.4763C46.7045 30.7794 45.7647 29.6849 45.2588 28.3764C44.7528 27.0679 44.7115 25.6249 45.1417 24.2896C45.5406 22.9135 46.3639 21.6991 47.4938 20.8202C48.6237 19.9413 50.0024 19.4429 51.4323 19.3964C51.9767 19.2884 52.537 19.2884 53.0814 19.3964C59.6773 21.7512 66.6397 23.2803 72.3501 27.7453C74.4877 29.4273 76.1062 31.4152 75.0984 34.3205C74.0907 37.2258 71.6783 37.6234 68.9911 37.3787L67.6474 37.5927Z" fill="#2F1AFF" fill-opacity="0.24"/>
<path d="M110.612 24.5955C110.612 30.7119 108.872 32.3328 104.138 31.5071C102.607 31.2736 101.164 30.6408 99.9548 29.6721C94.93 25.1308 91.8549 18.8182 91.3739 12.0568C91.3149 11.034 91.5285 10.0137 91.9927 9.10072C92.4569 8.1877 93.155 7.41466 94.0157 6.86077C94.8763 6.30689 95.8686 5.99208 96.8907 5.94857C97.9128 5.90507 98.9282 6.13446 99.8327 6.61322C101.348 7.2712 102.695 8.26449 103.772 9.51851C107.411 13.8072 109.78 19.0294 110.612 24.5955Z" fill="#9D93FF" fill-opacity="0.29"/>
<path d="M69.174 135.731C68.229 135.847 67.2702 135.711 66.3945 135.337C65.5189 134.963 64.7574 134.364 64.1871 133.6C63.6169 132.837 63.2582 131.936 63.1472 130.989C63.0362 130.042 63.177 129.082 63.5552 128.207C64.1471 126.658 65.0875 125.266 66.3035 124.14C71.0062 120.195 75.7394 116.25 80.7475 112.702C83.8012 110.439 86.5189 110.623 88.0458 112.396C90.1223 114.874 88.9924 117.381 87.5877 119.553C83.7107 125.49 78.6085 130.527 72.6247 134.324C71.5252 134.909 70.3689 135.38 69.174 135.731Z" fill="#9D93FF" fill-opacity="0.29"/>
<path d="M59.7371 75.2397C57.2651 75.16 54.7986 74.9559 52.3471 74.6281C50.9727 74.3828 49.718 73.6888 48.7789 72.6542C47.8398 71.6196 47.2691 70.3028 47.1559 68.9093C47.0109 67.5147 47.3638 66.1137 48.152 64.9549C48.9402 63.7961 50.1127 62.9543 51.4616 62.5788C58.5631 60.454 66.1798 60.8538 73.0206 63.7103C73.9857 64.0424 74.8255 64.6635 75.4263 65.4895C76.0271 66.3155 76.36 67.3065 76.3797 68.3282C76.408 69.3628 76.0714 70.3743 75.4293 71.1852C74.7871 71.9961 73.8803 72.5546 72.8679 72.7626C68.5927 73.9247 64.2565 74.8116 59.9203 75.8208L59.7371 75.2397Z" fill="#180373" fill-opacity="0.29"/>
<path d="M106.092 64.1378C104.947 63.9644 103.822 63.6775 102.733 63.2815C98.8549 61.5994 95.0073 59.8257 91.2512 57.9296C90.0796 57.3278 89.041 56.4957 88.1975 55.483C87.2836 54.5439 86.6952 53.3354 86.5193 52.0359C86.3433 50.7363 86.5891 49.4146 87.2203 48.2656C87.712 47.0896 88.5764 46.1081 89.68 45.4726C90.7837 44.837 92.0654 44.5827 93.3277 44.7487C96.6251 45.0808 99.8178 46.0949 102.704 47.7268C105.589 49.3588 108.105 51.5729 110.092 54.2291C110.612 54.8714 111.009 55.6053 111.467 56.2781C114.246 60.2232 113.085 63.0674 108.413 63.8931C107.644 64.014 106.869 64.0957 106.092 64.1378Z" fill="#9D93FF" fill-opacity="0.29"/>
<path d="M127.652 143.468C126.736 147.841 126.094 152 124.965 156.068C124.701 157.724 123.798 159.211 122.449 160.207C121.101 161.202 119.416 161.627 117.758 161.389C116.099 161.118 114.603 160.231 113.567 158.905C112.531 157.579 112.033 155.911 112.17 154.233C112.496 147.975 114.617 141.944 118.277 136.862C118.694 136.182 119.293 135.631 120.006 135.274C120.719 134.916 121.518 134.765 122.312 134.838C123.107 134.911 123.865 135.206 124.501 135.688C125.137 136.17 125.625 136.82 125.911 137.566C126.679 139.473 127.262 141.449 127.652 143.468Z" fill="#9D93FF" fill-opacity="0.29"/>
<path d="M33.2015 159.737C32.1986 159.84 31.1869 159.663 30.2782 159.226C29.3694 158.789 28.5991 158.109 28.0524 157.261C27.5056 156.412 27.2038 155.429 27.1802 154.42C27.1566 153.411 27.4121 152.414 27.9186 151.541C29.7669 148.669 32.3015 146.303 35.2927 144.658C38.2839 143.014 41.6375 142.142 45.0498 142.122C45.7935 142.122 46.5234 142.323 47.1623 142.704C47.8012 143.085 48.3252 143.632 48.6789 144.287C49.0326 144.942 49.2027 145.681 49.1713 146.425C49.1399 147.169 48.9081 147.891 48.5005 148.514C45.141 153.405 40.4134 157.192 34.9115 159.401C34.3568 159.581 33.7828 159.693 33.2015 159.737Z" fill="#180373" fill-opacity="0.29"/>
</g>
</svg>
