<svg width="363" height="306" viewBox="0 0 363 306" fill="none" xmlns="http://www.w3.org/2000/svg">
<path d="M175.821 134.879C199.148 132.771 195.367 166.07 176.981 166.242C157.907 167.102 153.139 134.233 175.821 134.879Z" fill="#AA6708" fill-opacity="0.35"/>
<path d="M177.839 100.118C177.496 104.764 177.324 109.41 176.808 114.014C176.603 115.942 176.065 117.82 175.219 119.564C174.615 121.151 173.536 122.513 172.128 123.46C170.72 124.408 169.053 124.895 167.358 124.855C165.71 124.934 164.085 124.449 162.75 123.479C161.415 122.509 160.449 121.113 160.012 119.521C158.557 114.574 157.55 109.505 157.004 104.377C156.639 99.8669 156.639 95.3348 157.004 90.8248C156.964 89.4235 157.207 88.0284 157.72 86.7239C158.233 85.4195 159.004 84.2327 159.988 83.2354C160.972 82.2381 162.147 81.4509 163.444 80.9215C164.74 80.3921 166.13 80.1314 167.529 80.1553C168.925 80.1996 170.298 80.5204 171.569 81.0992C172.84 81.678 173.984 82.5032 174.934 83.5273C175.885 84.5513 176.624 85.754 177.108 87.0656C177.591 88.3773 177.811 89.7719 177.753 91.169C177.753 94.1375 177.753 97.1061 177.753 100.075L177.839 100.118Z" fill="#D9CC99" fill-opacity="0.5"/>
<path d="M175.906 192.357C176.25 188.055 176.465 183.753 176.98 179.666C177.09 178.264 177.669 176.94 178.624 175.91C179.579 174.879 180.854 174.202 182.241 173.987C183.629 173.773 185.048 174.035 186.269 174.73C187.489 175.425 188.44 176.512 188.966 177.816C193.836 188.406 196.678 199.819 197.343 211.459C197.624 213.534 197.167 215.641 196.051 217.411C194.936 219.181 193.233 220.501 191.243 221.139C189.139 221.899 186.821 221.808 184.784 220.884C182.746 219.96 181.149 218.277 180.331 216.192C178.535 210.042 177.172 203.774 176.25 197.434C176.099 195.76 176.099 194.075 176.25 192.401L175.906 192.357Z" fill="#E0A045" fill-opacity="0.28"/>
<path d="M158.981 185.603C158.499 195.72 154.761 205.409 148.328 213.224C145.981 215.729 142.866 217.379 139.478 217.913C137.911 218.016 136.344 217.704 134.936 217.008C133.527 216.312 132.327 215.256 131.456 213.948C130.585 212.639 130.073 211.123 129.973 209.554C129.873 207.984 130.188 206.415 130.886 205.006C134.907 194.754 141.074 185.483 148.972 177.816C149.824 177.119 150.827 176.631 151.902 176.392C152.976 176.153 154.091 176.169 155.158 176.44C156.962 177.3 157.95 180.01 158.981 182.076C159.204 183.241 159.204 184.438 158.981 185.603Z" fill="#FF9703" fill-opacity="0.2"/>
<path d="M285.236 209.609C295.358 210.796 304.68 215.701 311.398 223.376C312.534 224.743 313.248 226.412 313.454 228.179C313.659 229.946 313.346 231.734 312.554 233.326C311.761 234.918 310.523 236.245 308.991 237.144C307.458 238.043 305.697 238.477 303.923 238.391C301.097 238.367 298.305 237.767 295.718 236.627C289.747 233.357 284.033 229.528 278.32 225.785C277.193 224.935 276.232 223.885 275.485 222.688C274.536 221.639 273.906 220.342 273.667 218.948C273.429 217.554 273.592 216.121 274.137 214.816C274.683 213.511 275.588 212.39 276.747 211.582C277.906 210.774 279.272 210.313 280.683 210.254C282.1 209.996 283.475 209.867 285.236 209.609Z" fill="#E0A045" fill-opacity="0.28"/>
<path d="M106.785 180.095C104.793 180.321 102.781 179.91 101.037 178.921C99.2932 177.932 97.9065 176.415 97.0758 174.588C96.3672 172.971 96.1726 171.175 96.5184 169.443C96.8642 167.711 97.7338 166.128 99.009 164.908C99.3437 164.51 99.7344 164.162 100.169 163.876C110.575 157.839 122.142 154.085 134.106 152.862C139.562 152.561 141.925 156.82 139.562 161.811C139.137 162.764 138.572 163.649 137.887 164.435C129.252 173.986 117.266 176.998 106.785 180.095Z" fill="#D9CC99" fill-opacity="0.5"/>
<path d="M83.6326 282.103C83.7971 280.82 84.0702 279.553 84.4488 278.317C88.0951 268.566 94.7841 260.253 103.522 254.611C104.612 253.707 105.828 252.968 107.131 252.417C109.11 251.748 111.253 251.748 113.231 252.417C113.96 253.153 114.536 254.026 114.926 254.986C115.317 255.946 115.515 256.974 115.508 258.01C115.628 260.213 115.169 262.408 114.176 264.377C109.882 272.568 105.179 280.537 100.086 288.255C99.4258 289.279 98.5496 290.146 97.5189 290.795C96.4882 291.444 95.3281 291.859 94.1201 292.011C92.9122 292.163 91.6857 292.048 90.527 291.674C89.3682 291.3 88.3052 290.676 87.413 289.846C85.5997 287.661 84.083 285.245 82.9023 282.662L83.6326 282.103Z" fill="#E0A045" fill-opacity="0.28"/>
<path d="M25.7656 198.681C24.2139 198.689 22.6635 198.589 21.1259 198.38C19.408 198.212 17.7893 197.496 16.5068 196.34C15.2243 195.183 14.3457 193.644 13.9998 191.951C13.6539 190.257 13.8589 188.497 14.5847 186.929C15.3106 185.361 16.519 184.066 18.0329 183.236C24.5036 179.634 31.8097 177.809 39.2115 177.944C43.5929 177.839 47.9755 178.098 52.314 178.719C54.1339 178.888 55.8391 179.683 57.1393 180.97C58.4395 182.256 59.2543 183.954 59.4452 185.774C59.5942 187.611 59.0768 189.44 57.9879 190.926C56.8989 192.412 55.3114 193.454 53.5169 193.863C44.3666 195.928 35.1305 197.606 25.9373 199.412L25.7656 198.681Z" fill="#E0A045" fill-opacity="0.28"/>
<path d="M225.995 57.5255C224.844 67.6018 220.901 77.1545 214.611 85.1028C213.341 86.5506 211.732 87.6595 209.928 88.3295C209.128 88.7571 208.236 88.9815 207.329 88.9832C206.422 88.9848 205.529 88.7636 204.727 88.3389C203.926 87.9141 203.241 87.299 202.732 86.5472C202.223 85.7955 201.906 84.9302 201.809 84.0272C201.272 80.7219 201.272 77.3514 201.809 74.0461C203.098 67.2056 204.773 60.451 206.578 53.6965C207.114 51.2692 208.532 49.1283 210.557 47.6893C212.581 46.2503 215.067 45.616 217.532 45.9095C220.164 46.3842 222.511 47.8561 224.087 50.0194C225.664 52.1826 226.347 54.8709 225.995 57.5255Z" fill="#E0A045" fill-opacity="0.28"/>
<path d="M286.249 71.8481C282.054 81.0808 275.364 88.9553 266.934 94.5806C265.28 95.5671 263.408 96.1266 261.486 96.2085C260.593 96.369 259.675 96.3076 258.812 96.0299C257.948 95.7522 257.166 95.2666 256.534 94.6157C255.902 93.9647 255.44 93.1684 255.187 92.2965C254.934 91.4245 254.899 90.5036 255.084 89.6147C255.59 86.3044 256.627 83.0975 258.155 80.1181C261.486 74.0066 265.158 68.096 268.952 62.2251C270.21 60.0809 272.218 58.4806 274.586 57.7349C276.955 56.9892 279.515 57.1513 281.771 58.1897C284.128 59.4518 285.909 61.5753 286.743 64.1189C287.577 66.6626 287.4 69.4307 286.249 71.8481Z" fill="#ECC889"/>
<path d="M2.00968 126.189C-1.53813 125.721 -5.0532 125.031 -8.51513 124.124C-10.358 123.605 -11.9662 122.466 -13.0693 120.899C-14.1724 119.332 -14.7031 117.433 -14.5723 115.52C-14.4994 113.611 -13.7577 111.788 -12.4773 110.372C-11.197 108.956 -9.4596 108.037 -7.57003 107.776C1.62314 106.528 10.9021 105.754 20.1383 104.764H20.525C24.4343 105.711 29.1166 105.366 30.7491 110.314C31.7371 113.326 28.5153 118.273 23.8328 120.596C16.9776 123.827 9.57196 125.725 2.00968 126.189Z" fill="#FF9703" fill-opacity="0.2"/>
<path d="M79.2495 99.2136C69.4579 98.5396 59.9571 95.5939 51.4982 90.6092C49.7874 89.6287 48.4653 88.089 47.7536 86.2482C47.0418 84.4075 46.9837 82.3776 47.5889 80.499C48.15 78.5632 49.3082 76.8548 50.8977 75.6183C52.4873 74.3819 54.4267 73.6807 56.4384 73.6154C57.2042 73.4635 57.9924 73.4635 58.7582 73.6154C68.0373 76.9281 77.8319 79.0792 85.8651 85.3604C88.8723 87.7267 91.149 90.5231 89.7314 94.6103C88.3138 98.6974 84.92 99.2567 81.1397 98.9125L79.2495 99.2136Z" fill="#FF9703" fill-opacity="0.2"/>
<path d="M227.071 186.119C225.613 185.979 224.174 185.691 222.775 185.258C214.191 182.299 206.533 177.137 200.565 170.287C199.343 169.263 198.504 167.855 198.185 166.292C197.865 164.73 198.083 163.105 198.804 161.682C200.694 158.283 203.787 158.154 207.396 158.628C215.712 159.772 223.757 162.394 231.152 166.372C232.17 166.923 233.159 167.526 234.116 168.179C235.961 169.278 237.386 170.963 238.164 172.966C238.943 174.97 239.03 177.177 238.412 179.235C237.597 181.511 236.025 183.438 233.96 184.691C231.895 185.944 229.463 186.448 227.071 186.119Z" fill="#E0A045" fill-opacity="0.28"/>
<path d="M160.57 11.5345C160.57 10.6311 160.57 9.72757 160.57 8.8241C160.573 6.93278 161.199 5.09521 162.35 3.59566C163.501 2.09611 165.113 1.01814 166.937 0.528381C168.761 0.0386179 170.696 0.164348 172.441 0.886221C174.187 1.60809 175.646 2.88587 176.594 4.52187C180.846 11.4044 182.463 19.5966 181.147 27.5818C180.636 30.9037 179.933 34.1931 179.042 37.4339C178.897 38.541 178.443 39.5847 177.733 40.4452C177.022 41.3056 176.084 41.9479 175.025 42.2983C173.966 42.6487 172.83 42.6931 171.748 42.4262C170.665 42.1593 169.679 41.5921 168.904 40.7896C166.348 38.4637 164.463 35.4917 163.448 32.1852C161.816 25.4737 161.172 18.4611 160.098 11.5775L160.57 11.5345Z" fill="#FF9703" fill-opacity="0.2"/>
<path d="M139.693 80.9293C139.693 89.5338 137.244 91.814 130.586 90.6524C128.432 90.3241 126.402 89.4338 124.7 88.0711C117.631 81.6824 113.305 72.802 112.629 63.2902C112.546 61.8513 112.846 60.4161 113.499 59.1317C114.152 57.8472 115.134 56.7597 116.345 55.9805C117.556 55.2013 118.952 54.7585 120.39 54.6973C121.828 54.6361 123.256 54.9588 124.528 55.6323C126.66 56.5579 128.555 57.9553 130.07 59.7194C135.189 65.7527 138.522 73.0992 139.693 80.9293Z" fill="#E0A045" fill-opacity="0.28"/>
<path d="M242.664 239.682C242.664 248.028 236.134 252.933 230.163 249.878C226.844 248.2 224.106 245.562 222.302 242.306C218.354 235.116 216.34 227.021 216.459 218.816C216.323 217.708 216.51 216.584 216.995 215.579C217.481 214.574 218.245 213.731 219.197 213.15C220.149 212.569 221.248 212.275 222.362 212.303C223.477 212.331 224.559 212.681 225.48 213.309L226.511 213.868C235.876 220.666 239.399 230.905 242.664 239.682Z" fill="#D9CC99" fill-opacity="0.5"/>
<path d="M81.3974 237.272C80.068 237.435 78.7192 237.244 77.4873 236.718C76.2554 236.192 75.1842 235.349 74.382 234.275C73.5798 233.201 73.0751 231.933 72.919 230.601C72.7629 229.269 72.9609 227.919 73.493 226.688C74.3257 224.509 75.6486 222.551 77.3592 220.966C83.9749 215.417 90.6335 209.867 97.6788 204.876C101.975 201.692 105.798 201.95 107.946 204.446C110.867 207.931 109.278 211.458 107.301 214.513C101.847 222.866 94.6697 229.951 86.2517 235.293C84.705 236.116 83.0784 236.779 81.3974 237.272Z" fill="#E0A045" fill-opacity="0.28"/>
<path d="M68.1227 152.174C64.6451 152.062 61.1754 151.775 57.7266 151.314C55.7931 150.969 54.0281 149.993 52.7069 148.537C51.3858 147.082 50.583 145.229 50.4237 143.269C50.2198 141.307 50.7162 139.336 51.825 137.706C52.9338 136.076 54.5833 134.891 56.4809 134.363C66.4712 131.374 77.1862 131.937 86.8097 135.955C88.1673 136.422 89.3487 137.296 90.194 138.458C91.0392 139.62 91.5075 141.014 91.5352 142.451C91.575 143.907 91.1015 145.33 90.1981 146.471C89.2948 147.611 88.019 148.397 86.5949 148.69C80.5807 150.325 74.4806 151.572 68.3804 152.992L68.1227 152.174Z" fill="#ECC889"/>
<path d="M279.781 139.828C282.101 139.828 284.421 139.828 286.741 139.828C288.13 139.822 289.506 140.093 290.789 140.627C292.071 141.161 293.235 141.945 294.211 142.935C295.187 143.925 295.957 145.099 296.474 146.39C296.991 147.682 297.245 149.063 297.222 150.454C297.147 151.816 296.799 153.148 296.198 154.372C295.598 155.596 294.757 156.686 293.727 157.577C292.697 158.468 291.497 159.143 290.201 159.56C288.905 159.977 287.538 160.128 286.182 160.005C280.909 160.049 275.639 159.704 270.416 158.972C267.329 158.344 264.404 157.085 261.824 155.273C260.784 154.708 259.915 153.872 259.31 152.853C258.704 151.835 258.385 150.671 258.385 149.486C258.385 148.301 258.704 147.137 259.31 146.119C259.915 145.1 260.784 144.265 261.824 143.7C267.114 140.202 273.523 138.82 279.781 139.828Z" fill="#E0A045" fill-opacity="0.28"/>
<path d="M133.335 136.556C131.724 136.312 130.141 135.909 128.61 135.352C123.154 132.985 117.741 130.49 112.457 127.823C110.809 126.976 109.348 125.805 108.162 124.381C106.876 123.06 106.048 121.36 105.801 119.531C105.553 117.703 105.899 115.844 106.787 114.228C107.479 112.573 108.694 111.192 110.247 110.298C111.8 109.404 113.603 109.046 115.379 109.28C120.017 109.747 124.509 111.174 128.568 113.47C132.628 115.765 136.168 118.88 138.963 122.617C139.693 123.52 140.252 124.553 140.896 125.499C144.805 131.049 143.173 135.05 136.6 136.212C135.518 136.382 134.429 136.497 133.335 136.556Z" fill="#E0A045" fill-opacity="0.28"/>
<path d="M186.947 275.776C186.688 273.719 186.688 271.638 186.947 269.581C187.506 267.516 188.451 264.633 189.997 264.031C191.117 263.761 192.282 263.74 193.41 263.971C194.538 264.201 195.603 264.677 196.527 265.365C200.986 268.781 204.14 273.625 205.462 279.089C206.457 283.344 207.203 287.654 207.696 291.996C207.936 293.244 207.921 294.528 207.652 295.771C207.383 297.014 206.866 298.189 206.131 299.226C205.397 300.263 204.46 301.14 203.378 301.805C202.296 302.47 201.091 302.909 199.835 303.095C198.541 303.288 197.222 303.216 195.957 302.884C194.692 302.551 193.507 301.965 192.475 301.16C191.443 300.356 190.585 299.35 189.952 298.204C189.319 297.057 188.925 295.794 188.794 294.491C187.72 288.296 187.205 281.972 186.432 275.69L186.947 275.776Z" fill="#ECC889"/>
<path d="M215.472 136.815C210.919 136.256 206.88 136.084 203.014 135.224C201.253 134.836 198.718 133.374 198.418 131.954C198.181 130.879 198.198 129.763 198.466 128.695C198.735 127.627 199.248 126.637 199.964 125.802C203.827 122.569 208.177 119.97 212.852 118.101C217.37 116.628 222.107 115.944 226.856 116.079C229.16 115.959 231.42 116.74 233.159 118.257C234.898 119.774 235.981 121.908 236.178 124.21C236.52 126.553 235.947 128.937 234.579 130.868C233.211 132.799 231.153 134.127 228.832 134.578C224.193 135.74 219.553 136.127 215.472 136.815Z" fill="#E0A045" fill-opacity="0.28"/>
<path d="M163.663 248.157C162.374 254.309 161.472 260.16 159.882 265.882C159.512 268.213 158.241 270.304 156.344 271.704C154.447 273.105 152.077 273.703 149.744 273.368C147.41 272.987 145.305 271.739 143.849 269.874C142.392 268.008 141.69 265.661 141.883 263.301C142.342 254.498 145.325 246.014 150.475 238.864C151.062 237.907 151.904 237.133 152.907 236.629C153.911 236.126 155.034 235.914 156.151 236.017C157.269 236.12 158.335 236.534 159.23 237.212C160.124 237.89 160.812 238.805 161.214 239.854C162.294 242.537 163.114 245.317 163.663 248.157Z" fill="#E0A045" fill-opacity="0.28"/>
<path d="M272.264 301.376C272.303 303.145 271.813 304.886 270.856 306.373C269.899 307.861 268.519 309.027 266.894 309.723C265.176 310.553 263.219 310.74 261.375 310.251C259.532 309.762 257.924 308.628 256.842 307.055C253.625 302.247 250.864 297.148 248.594 291.825C247.009 288.001 245.953 283.976 245.458 279.865C245.287 278.799 245.348 277.71 245.637 276.67C245.927 275.63 246.437 274.666 247.133 273.842C248.123 273.431 249.202 273.286 250.265 273.422C251.327 273.558 252.336 273.97 253.19 274.616C259.591 282.317 265.519 290.406 271.534 298.451C271.962 299.37 272.21 300.363 272.264 301.376Z" fill="#E0A045" fill-opacity="0.28"/>
<path d="M320.033 116.422C316.253 115.819 313.203 114.959 311.699 111.517C311.06 110.001 310.919 108.321 311.298 106.72C311.676 105.118 312.554 103.679 313.804 102.612C318.948 97.267 325.529 93.5309 332.749 91.856C335.194 91.1224 337.826 91.356 340.104 92.5086C342.382 93.6612 344.132 95.6451 344.992 98.0512C345.363 99.2659 345.49 100.542 345.366 101.806C345.242 103.07 344.87 104.297 344.271 105.416C343.672 106.535 342.859 107.525 341.876 108.329C340.894 109.132 339.763 109.733 338.549 110.097C332.534 112.55 326.22 114.357 320.033 116.422Z" fill="#D9CC99" fill-opacity="0.5"/>
<path d="M30.793 271.044C29.3822 271.189 27.9589 270.94 26.6806 270.325C25.4022 269.71 24.3185 268.753 23.5494 267.56C22.7802 266.366 22.3556 264.983 22.3224 263.563C22.2892 262.144 22.6486 260.742 23.3611 259.514C25.9613 255.473 29.5269 252.145 33.7349 249.831C37.9429 247.517 42.6606 246.291 47.461 246.263C48.5072 246.262 49.534 246.545 50.4328 247.081C51.3316 247.618 52.0688 248.387 52.5663 249.309C53.0639 250.231 53.3032 251.27 53.259 252.317C53.2149 253.363 52.8888 254.379 52.3154 255.255C47.5893 262.135 40.9386 267.463 33.1987 270.571C32.4184 270.823 31.6108 270.982 30.793 271.044Z" fill="#ECC889"/>
<path d="M340.18 171.277C345.164 172.008 350.319 172.568 355.345 173.6C356.453 173.736 357.523 174.096 358.488 174.658C359.454 175.22 360.295 175.973 360.962 176.87C361.628 177.768 362.106 178.792 362.365 179.88C362.625 180.967 362.661 182.097 362.472 183.199C362.282 184.301 361.872 185.354 361.264 186.292C360.657 187.231 359.865 188.036 358.938 188.659C358.01 189.282 356.966 189.71 355.868 189.917C354.771 190.124 353.643 190.105 352.552 189.863C346.52 188.128 340.583 186.074 334.768 183.71C333.043 183.167 331.429 182.322 329.999 181.215C328.71 180.01 327.207 178.074 327.379 176.655C327.616 175.775 328.059 174.965 328.672 174.291C329.284 173.618 330.049 173.101 330.901 172.783C333.947 172.024 337.051 171.52 340.18 171.277Z" fill="#FF9703" fill-opacity="0.2"/>
<path d="M148.413 309.292C147.898 314.712 147.64 318.971 147.082 323.188C147.06 324.423 146.791 325.642 146.289 326.77C145.788 327.899 145.064 328.915 144.163 329.759C143.261 330.602 142.199 331.254 141.04 331.677C139.88 332.101 138.648 332.286 137.416 332.222C136.19 332.095 135.003 331.715 133.931 331.104C132.86 330.493 131.927 329.666 131.192 328.675C130.456 327.683 129.935 326.55 129.661 325.346C129.386 324.142 129.365 322.894 129.598 321.682C130.605 314.223 133.72 307.207 138.576 301.461C139.06 300.752 139.732 300.193 140.517 299.846C141.302 299.5 142.168 299.381 143.018 299.501C143.867 299.622 144.665 299.979 145.323 300.53C145.98 301.082 146.47 301.807 146.738 302.623C147.539 304.777 148.101 307.014 148.413 309.292Z" fill="#E0A045" fill-opacity="0.28"/>
</svg>
