<svg width="357" height="276" viewBox="0 0 357 276" fill="none" xmlns="http://www.w3.org/2000/svg">
<g opacity="0.38">
<path d="M191.832 135.718C215.279 133.599 211.479 167.069 192.998 167.242C173.827 168.107 169.034 135.069 191.832 135.718Z" fill="#593500" fill-opacity="0.41"/>
<path d="M193.86 100.777C193.514 105.448 193.342 110.118 192.824 114.745C192.617 116.683 192.076 118.57 191.226 120.323C190.619 121.919 189.534 123.287 188.119 124.24C186.704 125.192 185.029 125.682 183.324 125.642C181.668 125.721 180.035 125.233 178.693 124.259C177.351 123.284 176.38 121.881 175.941 120.28C174.478 115.307 173.467 110.213 172.918 105.058C172.551 100.525 172.551 95.9698 172.918 91.4367C172.877 90.0282 173.121 88.626 173.637 87.3148C174.152 86.0036 174.928 84.8108 175.917 83.8083C176.906 82.8059 178.087 82.0147 179.39 81.4825C180.693 80.9504 182.09 80.6885 183.497 80.7124C184.9 80.757 186.28 81.0794 187.557 81.6612C188.835 82.2429 189.984 83.0724 190.94 84.1017C191.895 85.131 192.638 86.3399 193.124 87.6582C193.611 88.9766 193.831 90.3784 193.773 91.7827C193.773 94.7664 193.773 97.7503 193.773 100.734L193.86 100.777Z" fill="#BB7402" fill-opacity="0.5"/>
<path d="M191.916 193.491C192.261 189.166 192.477 184.842 192.995 180.734C193.106 179.325 193.688 177.995 194.648 176.959C195.608 175.922 196.889 175.242 198.284 175.026C199.678 174.811 201.105 175.074 202.332 175.772C203.559 176.471 204.514 177.564 205.043 178.875C209.938 189.519 212.794 200.99 213.462 212.691C213.745 214.775 213.286 216.893 212.164 218.673C211.043 220.452 209.332 221.779 207.331 222.42C205.216 223.184 202.887 223.092 200.839 222.163C198.791 221.235 197.186 219.543 196.363 217.447C194.559 211.266 193.188 204.966 192.262 198.593C192.11 196.91 192.11 195.217 192.262 193.534L191.916 193.491Z" fill="#A56A16" fill-opacity="0.26"/>
<path d="M174.906 186.7C174.42 196.869 170.664 206.608 164.197 214.462C161.838 216.98 158.708 218.639 155.302 219.176C153.727 219.28 152.152 218.966 150.737 218.266C149.321 217.567 148.115 216.506 147.239 215.19C146.363 213.875 145.849 212.351 145.749 210.773C145.648 209.196 145.965 207.619 146.666 206.203C150.708 195.898 156.907 186.579 164.845 178.873C165.701 178.172 166.71 177.682 167.79 177.442C168.869 177.202 169.99 177.218 171.063 177.49C172.876 178.354 173.869 181.079 174.906 183.154C175.13 184.326 175.13 185.529 174.906 186.7Z" fill="#FFAF3F" fill-opacity="0.2"/>
<path d="M301.808 210.831C311.982 212.024 321.352 216.955 328.104 224.669C329.246 226.043 329.964 227.721 330.17 229.497C330.376 231.273 330.062 233.07 329.266 234.67C328.469 236.27 327.225 237.604 325.684 238.508C324.144 239.412 322.374 239.847 320.591 239.761C317.75 239.737 314.944 239.134 312.344 237.988C306.342 234.701 300.599 230.853 294.856 227.091C293.724 226.236 292.758 225.181 292.006 223.977C291.053 222.923 290.42 221.62 290.18 220.218C289.94 218.817 290.104 217.376 290.652 216.065C291.2 214.754 292.11 213.626 293.275 212.814C294.44 212.002 295.813 211.539 297.231 211.48C298.656 211.22 300.038 211.091 301.808 210.831Z" fill="#A56A16" fill-opacity="0.26"/>
<path d="M122.442 181.167C120.44 181.394 118.418 180.981 116.665 179.987C114.912 178.993 113.518 177.468 112.683 175.632C111.971 174.007 111.775 172.201 112.123 170.461C112.47 168.72 113.344 167.129 114.626 165.903C114.963 165.502 115.355 165.152 115.792 164.865C126.251 158.796 137.878 155.023 149.904 153.794C155.387 153.492 157.762 157.773 155.387 162.789C154.96 163.747 154.393 164.636 153.703 165.427C145.024 175.027 132.977 178.054 122.442 181.167Z" fill="#BB7402" fill-opacity="0.5"/>
<path d="M99.1695 283.695C99.3349 282.406 99.6094 281.132 99.9899 279.89C103.655 270.089 110.378 261.733 119.162 256.063C120.256 255.154 121.478 254.411 122.789 253.857C124.777 253.185 126.931 253.185 128.92 253.857C129.652 254.597 130.231 255.475 130.624 256.439C131.017 257.404 131.215 258.437 131.209 259.479C131.329 261.693 130.868 263.9 129.87 265.879C125.554 274.111 120.827 282.121 115.707 289.879C115.044 290.908 114.163 291.78 113.127 292.432C112.091 293.085 110.925 293.502 109.711 293.654C108.497 293.807 107.264 293.691 106.099 293.315C104.935 292.939 103.866 292.312 102.969 291.479C101.147 289.282 99.6223 286.854 98.4355 284.257L99.1695 283.695Z" fill="#A56A16" fill-opacity="0.26"/>
<path d="M41.0065 199.846C39.4469 199.854 37.8885 199.753 36.343 199.544C34.6163 199.374 32.9892 198.656 31.7002 197.493C30.4111 196.33 29.528 194.784 29.1803 193.081C28.8326 191.379 29.0387 189.61 29.7683 188.034C30.4978 186.457 31.7124 185.156 33.2341 184.322C39.7381 180.702 47.0817 178.867 54.5215 179.003C58.9253 178.897 63.3304 179.157 67.6912 179.781C69.5204 179.951 71.2343 180.751 72.5412 182.044C73.8481 183.337 74.6671 185.043 74.859 186.873C75.0088 188.72 74.4887 190.558 73.3942 192.051C72.2996 193.545 70.704 194.593 68.9002 195.003C59.703 197.079 50.4194 198.765 41.1791 200.581L41.0065 199.846Z" fill="#A56A16" fill-opacity="0.26"/>
<path d="M242.264 57.9673C241.107 68.0953 237.144 77.697 230.821 85.6862C229.545 87.1414 227.928 88.256 226.115 88.9294C225.311 89.3592 224.413 89.5848 223.502 89.5865C222.591 89.5881 221.693 89.3657 220.887 88.9388C220.081 88.5119 219.393 87.8936 218.881 87.138C218.37 86.3824 218.051 85.5126 217.954 84.6051C217.414 81.2828 217.414 77.895 217.954 74.5727C219.249 67.6971 220.933 60.9078 222.747 54.1187C223.286 51.6789 224.712 49.527 226.746 48.0806C228.781 46.6343 231.28 45.9967 233.757 46.2917C236.403 46.7688 238.762 48.2483 240.346 50.4227C241.931 52.597 242.617 55.2991 242.264 57.9673Z" fill="#A56A16" fill-opacity="0.26"/>
<path d="M302.825 72.363C298.609 81.6431 291.884 89.558 283.411 95.2121C281.749 96.2038 279.867 96.7661 277.935 96.8484C277.038 97.0097 276.115 96.9481 275.247 96.6689C274.379 96.3898 273.593 95.9017 272.958 95.2474C272.323 94.5931 271.858 93.7927 271.604 92.9163C271.35 92.0399 271.314 91.1143 271.501 90.2207C272.009 86.8935 273.051 83.6701 274.587 80.6754C277.935 74.5325 281.626 68.5916 285.44 62.6906C286.704 60.5354 288.722 58.9269 291.103 58.1774C293.484 57.4278 296.057 57.5907 298.324 58.6345C300.694 59.9031 302.484 62.0375 303.322 64.5941C304.16 67.1508 303.982 69.9331 302.825 72.363Z" fill="#ECC889" fill-opacity="0.79"/>
<path d="M17.1281 126.983C13.5621 126.512 10.029 125.819 6.54927 124.907C4.69695 124.385 3.08051 123.24 1.97175 121.665C0.863002 120.09 0.329539 118.181 0.460982 116.259C0.534248 114.34 1.27974 112.508 2.56671 111.085C3.85367 109.662 5.59995 108.738 7.49921 108.475C16.7396 107.221 26.0662 106.442 35.3497 105.448H35.7384C39.6678 106.399 44.3742 106.053 46.015 111.026C47.0081 114.053 43.7697 119.026 39.0632 121.361C32.1728 124.609 24.7292 126.516 17.1281 126.983Z" fill="#FFAF3F" fill-opacity="0.2"/>
<path d="M94.7637 99.869C84.9219 99.1916 75.3723 96.2307 66.87 91.2204C65.1505 90.2349 63.8216 88.6873 63.1062 86.8371C62.3907 84.9869 62.3323 82.9466 62.9407 81.0583C63.5046 79.1126 64.6687 77.3954 66.2665 76.1526C67.8642 74.9098 69.8136 74.2051 71.8356 74.1394C72.6053 73.9867 73.3975 73.9867 74.1673 74.1394C83.494 77.4691 93.3388 79.6312 101.413 85.9447C104.436 88.3231 106.724 91.134 105.299 95.242C103.875 99.3501 100.463 99.9123 96.6636 99.5664L94.7637 99.869Z" fill="#FFAF3F" fill-opacity="0.2"/>
<path d="M243.343 187.22C241.878 187.079 240.431 186.79 239.025 186.355C230.397 183.38 222.7 178.191 216.701 171.306C215.473 170.277 214.63 168.862 214.308 167.291C213.987 165.721 214.206 164.087 214.931 162.657C216.831 159.241 219.94 159.111 223.567 159.587C231.925 160.737 240.012 163.373 247.445 167.371C248.468 167.925 249.463 168.531 250.424 169.187C252.279 170.292 253.711 171.986 254.493 174C255.276 176.013 255.363 178.231 254.742 180.301C253.923 182.588 252.343 184.525 250.267 185.784C248.192 187.044 245.747 187.551 243.343 187.22Z" fill="#A56A16" fill-opacity="0.26"/>
<path d="M176.502 11.74C176.502 10.8319 176.502 9.92375 176.502 9.01565C176.506 7.11462 177.134 5.26762 178.291 3.76037C179.448 2.25312 181.068 1.16962 182.902 0.677348C184.735 0.185072 186.68 0.311447 188.434 1.03703C190.189 1.7626 191.656 3.04694 192.608 4.69134C196.882 11.6092 198.508 19.8435 197.185 27.8696C196.671 31.2085 195.964 34.5149 195.069 37.7723C194.924 38.8851 194.467 39.9342 193.753 40.799C193.039 41.6639 192.095 42.3095 191.031 42.6617C189.967 43.0139 188.825 43.0585 187.737 42.7902C186.649 42.522 185.658 41.9518 184.879 41.1452C182.309 38.8074 180.415 35.8201 179.395 32.4966C177.755 25.7507 177.107 18.7021 176.027 11.7832L176.502 11.74Z" fill="#FFAF3F" fill-opacity="0.2"/>
<path d="M155.517 81.4908C155.517 90.1394 153.056 92.4313 146.363 91.2638C144.198 90.9337 142.158 90.0389 140.448 88.6692C133.343 82.2477 128.994 73.3217 128.314 63.7611C128.231 62.3148 128.533 60.8722 129.189 59.5812C129.846 58.2902 130.833 57.1971 132.05 56.4139C133.267 55.6307 134.67 55.1856 136.115 55.1241C137.56 55.0626 138.996 55.3869 140.275 56.0639C142.418 56.9943 144.322 58.3988 145.845 60.172C150.991 66.2362 154.341 73.6204 155.517 81.4908Z" fill="#A56A16" fill-opacity="0.26"/>
<path d="M259.017 241.058C259.017 249.447 252.454 254.377 246.452 251.307C243.117 249.62 240.364 246.968 238.551 243.696C234.582 236.469 232.558 228.332 232.678 220.085C232.542 218.972 232.729 217.842 233.217 216.832C233.705 215.822 234.473 214.974 235.43 214.39C236.387 213.806 237.491 213.511 238.611 213.539C239.731 213.567 240.82 213.919 241.746 214.55L242.782 215.112C252.195 221.945 255.736 232.237 259.017 241.058Z" fill="#BB7402" fill-opacity="0.5"/>
<path d="M96.9236 238.636C95.5874 238.8 94.2317 238.608 92.9935 238.079C91.7552 237.55 90.6785 236.703 89.8722 235.624C89.0659 234.544 88.5586 233.27 88.4017 231.931C88.2448 230.592 88.4438 229.236 88.9786 227.998C89.8156 225.808 91.1453 223.84 92.8647 222.247C99.5143 216.669 106.207 211.09 113.289 206.074C117.606 202.874 121.449 203.133 123.608 205.642C126.544 209.144 124.947 212.69 122.961 215.761C117.478 224.156 110.264 231.278 101.803 236.647C100.248 237.474 98.6132 238.141 96.9236 238.636Z" fill="#A56A16" fill-opacity="0.26"/>
<path d="M83.5809 153.102C80.0856 152.989 76.598 152.7 73.1315 152.237C71.1881 151.89 69.414 150.909 68.0861 149.446C66.7582 147.983 65.9512 146.121 65.7911 144.15C65.5862 142.179 66.0852 140.198 67.1996 138.559C68.3141 136.92 69.9721 135.73 71.8794 135.199C81.921 132.195 92.691 132.76 102.364 136.799C103.728 137.269 104.916 138.147 105.765 139.315C106.615 140.483 107.086 141.884 107.114 143.329C107.154 144.792 106.678 146.222 105.77 147.369C104.862 148.515 103.579 149.305 102.148 149.599C96.1029 151.242 89.9715 152.496 83.84 153.923L83.5809 153.102Z" fill="#ECC889" fill-opacity="0.79"/>
<path d="M296.325 140.691C298.656 140.691 300.988 140.691 303.32 140.691C304.716 140.685 306.099 140.958 307.389 141.495C308.678 142.031 309.848 142.82 310.829 143.814C311.81 144.809 312.583 145.99 313.103 147.288C313.622 148.585 313.878 149.974 313.855 151.372C313.78 152.741 313.43 154.08 312.826 155.31C312.223 156.54 311.378 157.636 310.342 158.532C309.306 159.428 308.101 160.105 306.798 160.525C305.495 160.944 304.121 161.096 302.758 160.972C297.458 161.016 292.161 160.669 286.912 159.934C283.808 159.303 280.868 158.037 278.276 156.215C277.23 155.647 276.357 154.807 275.748 153.784C275.14 152.76 274.818 151.591 274.818 150.399C274.818 149.208 275.14 148.038 275.748 147.015C276.357 145.991 277.23 145.151 278.276 144.583C283.593 141.067 290.034 139.678 296.325 140.691Z" fill="#A56A16" fill-opacity="0.26"/>
<path d="M149.127 137.404C147.508 137.158 145.917 136.753 144.378 136.193C138.894 133.814 133.453 131.306 128.142 128.625C126.486 127.774 125.017 126.598 123.824 125.166C122.532 123.838 121.7 122.129 121.451 120.291C121.203 118.454 121.55 116.585 122.443 114.96C123.138 113.297 124.36 111.91 125.921 111.011C127.481 110.112 129.294 109.753 131.079 109.987C135.741 110.457 140.256 111.891 144.336 114.199C148.417 116.506 151.974 119.637 154.784 123.393C155.518 124.301 156.079 125.339 156.727 126.29C160.656 131.868 159.015 135.89 152.409 137.058C151.322 137.229 150.226 137.344 149.127 137.404Z" fill="#A56A16" fill-opacity="0.26"/>
<path d="M203.014 277.34C202.754 275.272 202.754 273.18 203.014 271.113C203.576 269.037 204.525 266.14 206.08 265.534C207.205 265.263 208.376 265.242 209.51 265.474C210.644 265.705 211.714 266.184 212.643 266.875C217.125 270.308 220.295 275.177 221.624 280.669C222.624 284.946 223.374 289.278 223.87 293.642C224.111 294.897 224.096 296.188 223.825 297.437C223.555 298.686 223.035 299.867 222.297 300.91C221.558 301.952 220.617 302.834 219.529 303.502C218.442 304.171 217.23 304.612 215.968 304.799C214.668 304.993 213.342 304.92 212.07 304.586C210.799 304.252 209.608 303.663 208.571 302.854C207.533 302.045 206.67 301.034 206.034 299.882C205.399 298.73 205.003 297.46 204.871 296.15C203.791 289.923 203.273 283.567 202.496 277.253L203.014 277.34Z" fill="#ECC889" fill-opacity="0.79"/>
<path d="M231.686 137.664C227.109 137.101 223.05 136.929 219.164 136.064C217.393 135.674 214.846 134.204 214.543 132.777C214.306 131.696 214.323 130.575 214.593 129.502C214.862 128.428 215.378 127.433 216.098 126.593C219.98 123.344 224.353 120.731 229.052 118.853C233.593 117.373 238.354 116.685 243.128 116.82C245.443 116.7 247.715 117.485 249.463 119.01C251.211 120.535 252.3 122.68 252.498 124.993C252.841 127.348 252.266 129.745 250.891 131.685C249.516 133.626 247.447 134.962 245.114 135.415C240.451 136.583 235.788 136.972 231.686 137.664Z" fill="#A56A16" fill-opacity="0.26"/>
<path d="M179.611 249.576C178.315 255.76 177.409 261.641 175.811 267.393C175.438 269.735 174.161 271.837 172.254 273.245C170.348 274.652 167.965 275.253 165.621 274.917C163.275 274.534 161.159 273.28 159.695 271.404C158.231 269.529 157.525 267.171 157.719 264.798C158.181 255.95 161.179 247.422 166.355 240.236C166.945 239.273 167.792 238.495 168.8 237.99C169.808 237.484 170.938 237.271 172.061 237.374C173.184 237.478 174.255 237.893 175.155 238.575C176.054 239.257 176.745 240.176 177.15 241.231C178.235 243.927 179.059 246.722 179.611 249.576Z" fill="#A56A16" fill-opacity="0.26"/>
<path d="M288.769 303.069C288.809 304.847 288.316 306.597 287.354 308.092C286.392 309.587 285.005 310.76 283.372 311.458C281.645 312.293 279.678 312.481 277.825 311.989C275.972 311.498 274.355 310.358 273.268 308.777C270.035 303.944 267.259 298.819 264.978 293.469C263.384 289.625 262.324 285.58 261.825 281.448C261.654 280.377 261.715 279.281 262.006 278.236C262.297 277.191 262.81 276.222 263.509 275.394C264.504 274.981 265.589 274.835 266.657 274.972C267.725 275.108 268.739 275.522 269.598 276.172C276.031 283.913 281.99 292.042 288.035 300.129C288.466 301.053 288.715 302.051 288.769 303.069Z" fill="#A56A16" fill-opacity="0.26"/>
<path d="M336.784 117.166C332.985 116.561 329.919 115.696 328.408 112.236C327.765 110.713 327.623 109.024 328.004 107.414C328.384 105.805 329.267 104.359 330.523 103.285C335.693 97.9131 342.308 94.1578 349.565 92.4744C352.023 91.737 354.669 91.9718 356.958 93.1303C359.248 94.2889 361.006 96.2829 361.872 98.7014C362.244 99.9223 362.371 101.205 362.247 102.475C362.122 103.746 361.749 104.979 361.147 106.104C360.545 107.229 359.727 108.224 358.74 109.032C357.752 109.839 356.616 110.443 355.395 110.809C349.35 113.274 343.002 115.091 336.784 117.166Z" fill="#BB7402" fill-opacity="0.5"/>
<path d="M46.0592 272.583C44.6411 272.728 43.2105 272.478 41.9256 271.86C40.6407 271.242 39.5514 270.28 38.7783 269.081C38.0053 267.881 37.5785 266.491 37.5451 265.064C37.5117 263.637 37.873 262.228 38.5891 260.994C41.2027 256.932 44.7865 253.586 49.0161 251.261C53.2458 248.935 57.9877 247.703 62.8127 247.675C63.8642 247.674 64.8964 247.958 65.7997 248.497C66.7031 249.036 67.4441 249.81 67.9442 250.736C68.4443 251.663 68.6849 252.707 68.6405 253.759C68.5961 254.811 68.2684 255.832 67.692 256.713C62.9416 263.628 56.2568 268.984 48.4772 272.107C47.6928 272.361 46.8812 272.521 46.0592 272.583Z" fill="#ECC889" fill-opacity="0.79"/>
<path d="M357.035 172.302C362.044 173.037 367.225 173.6 372.277 174.637C373.392 174.774 374.467 175.136 375.437 175.701C376.408 176.266 377.254 177.022 377.923 177.924C378.593 178.827 379.073 179.856 379.334 180.949C379.595 182.043 379.631 183.178 379.441 184.286C379.251 185.394 378.838 186.451 378.227 187.395C377.617 188.338 376.821 189.147 375.889 189.774C374.957 190.4 373.907 190.83 372.804 191.038C371.701 191.246 370.567 191.227 369.471 190.983C363.407 189.24 357.44 187.176 351.595 184.8C349.862 184.254 348.239 183.405 346.802 182.291C345.506 181.081 343.995 179.135 344.168 177.708C344.406 176.823 344.852 176.009 345.467 175.332C346.083 174.655 346.852 174.135 347.709 173.816C350.77 173.053 353.89 172.547 357.035 172.302Z" fill="#FFAF3F" fill-opacity="0.2"/>
</g>
</svg>
