<svg width="123" height="93" viewBox="0 0 123 93" fill="none" xmlns="http://www.w3.org/2000/svg">
<g opacity="0.24">
<path d="M115.179 67.4856C129.289 66.429 127.003 83.1188 115.881 83.205C104.343 83.6363 101.459 67.1622 115.179 67.4856Z" fill="#04868A" fill-opacity="0.37"/>
<path d="M116.401 50.0597C116.193 52.3885 116.089 54.7173 115.777 57.0245C115.653 57.9909 115.327 58.932 114.816 59.8062C114.451 60.6019 113.797 61.2842 112.946 61.7592C112.094 62.2342 111.086 62.4784 110.06 62.4584C109.064 62.4978 108.081 62.2545 107.273 61.7685C106.465 61.2825 105.881 60.5828 105.617 59.7846C104.737 57.305 104.128 54.7647 103.798 52.1944C103.577 49.934 103.577 47.6625 103.798 45.4021C103.773 44.6997 103.92 44.0005 104.23 43.3467C104.54 42.6929 105.007 42.0981 105.602 41.5982C106.197 41.0984 106.909 40.7038 107.693 40.4385C108.477 40.1731 109.317 40.0425 110.164 40.0545C111.008 40.0767 111.839 40.2375 112.608 40.5275C113.376 40.8176 114.068 41.2312 114.643 41.7445C115.218 42.2578 115.665 42.8605 115.958 43.5179C116.251 44.1753 116.383 44.8743 116.349 45.5746C116.349 47.0624 116.349 48.5503 116.349 50.0381L116.401 50.0597Z" fill="#04868A" fill-opacity="0.37"/>
<path d="M115.229 96.2925C115.437 94.1362 115.567 91.9799 115.879 89.9315C115.945 89.2288 116.296 88.5654 116.874 88.0488C117.451 87.5322 118.222 87.1927 119.062 87.0853C119.901 86.978 120.76 87.1091 121.498 87.4574C122.236 87.8057 122.811 88.3508 123.129 89.0042C126.075 94.3123 127.794 100.032 128.196 105.866C128.367 106.906 128.09 107.962 127.415 108.849C126.74 109.737 125.711 110.398 124.506 110.718C123.234 111.099 121.832 111.053 120.6 110.59C119.367 110.127 118.401 109.283 117.906 108.238C116.82 105.156 115.995 102.015 115.437 98.837C115.346 97.9977 115.346 97.1533 115.437 96.3141L115.229 96.2925Z" fill="#0B8EB3" fill-opacity="0.23"/>
<path d="M104.993 92.9051C104.701 97.9756 102.44 102.832 98.5481 106.748C97.1284 108.004 95.2447 108.831 93.195 109.099C92.247 109.151 91.2993 108.994 90.4474 108.645C89.5954 108.296 88.8694 107.767 88.3424 107.111C87.8154 106.455 87.506 105.696 87.4455 104.909C87.3851 104.122 87.5755 103.336 87.9978 102.63C90.4301 97.4913 94.1605 92.8445 98.9379 89.0021C99.4533 88.6526 100.06 88.4081 100.71 88.2883C101.36 88.1685 102.035 88.1766 102.68 88.3121C103.771 88.7434 104.369 90.1018 104.993 91.1369C105.127 91.721 105.127 92.321 104.993 92.9051Z" fill="#066969" fill-opacity="0.14"/>
<path d="M73.4213 90.1462C72.2166 90.2594 70.9996 90.0534 69.9447 89.5576C68.8897 89.0618 68.051 88.3017 67.5485 87.3861C67.1198 86.5756 67.0021 85.6752 67.2113 84.8073C67.4205 83.9393 67.9465 83.1458 68.7179 82.5344C68.9203 82.3347 69.1566 82.1603 69.4195 82.0169C75.7139 78.991 82.7113 77.1094 89.9482 76.4968C93.2484 76.3459 94.6777 78.4806 93.2485 80.9819C92.9914 81.4597 92.6498 81.9031 92.235 82.2973C87.0119 87.0842 79.7618 88.5936 73.4213 90.1462Z" fill="#04868A" fill-opacity="0.37"/>
<path d="M24.4086 99.4624C23.47 99.4666 22.5322 99.4162 21.6021 99.3115C20.563 99.2272 19.5838 98.8688 18.808 98.2889C18.0322 97.709 17.5007 96.9381 17.2915 96.0893C17.0822 95.2404 17.2063 94.3583 17.6453 93.5722C18.0844 92.7861 18.8154 92.1375 19.7311 91.7213C23.6453 89.9161 28.0648 89.0012 32.5421 89.0691C35.1924 89.0162 37.8435 89.1461 40.4679 89.4572C41.5687 89.542 42.6002 89.9406 43.3867 90.5854C44.1732 91.2302 44.6661 92.0811 44.7815 92.9935C44.8717 93.9142 44.5587 94.831 43.9 95.5757C43.2413 96.3203 42.281 96.8429 41.1955 97.0474C35.6605 98.0824 30.0735 98.9234 24.5125 99.829L24.4086 99.4624Z" fill="#0B8EB3" fill-opacity="0.23"/>
<path d="M10.0413 63.129C7.89522 62.8943 5.76895 62.5487 3.67482 62.094C2.56007 61.8337 1.58727 61.2629 0.920007 60.4775C0.252745 59.6921 -0.0682999 58.7401 0.0108045 57.7814C0.0548966 56.8246 0.503546 55.9112 1.27806 55.2015C2.05257 54.4918 3.1035 54.031 4.24651 53.9C9.80748 53.2747 15.4204 52.8866 21.0073 52.3906H21.2413C23.606 52.865 26.4384 52.6925 27.4258 55.1722C28.0235 56.6816 26.0746 59.1614 23.2421 60.3258C19.0954 61.9452 14.6157 62.8964 10.0413 63.129Z" fill="#066969" fill-opacity="0.14"/>
<path d="M56.7649 49.6068C50.842 49.269 45.095 47.7925 39.9781 45.2942C38.9433 44.8028 38.1435 44.0311 37.713 43.1085C37.2824 42.1859 37.2473 41.1685 37.6134 40.2269C37.9528 39.2567 38.6534 38.4004 39.6149 37.7807C40.5764 37.161 41.7496 36.8096 42.9665 36.7768C43.4297 36.7007 43.9065 36.7007 44.3697 36.7768C49.9827 38.4372 55.9074 39.5153 60.7668 42.6635C62.5858 43.8495 63.963 45.2511 63.1055 47.2996C62.2479 49.348 60.1951 49.6284 57.9083 49.4559L56.7649 49.6068Z" fill="#066969" fill-opacity="0.14"/>
<path d="M105.955 5.66345C105.955 5.21062 105.955 4.75779 105.955 4.30497C105.957 3.35703 106.335 2.43603 107.031 1.68445C107.728 0.932866 108.703 0.392584 109.806 0.147112C110.91 -0.0983591 112.08 -0.0353426 113.136 0.326464C114.191 0.68827 115.074 1.3287 115.647 2.14867C118.219 5.59823 119.198 9.70421 118.402 13.7064C118.092 15.3714 117.667 17.0201 117.129 18.6443C117.041 19.1992 116.766 19.7224 116.336 20.1536C115.907 20.5849 115.339 20.9068 114.698 21.0824C114.058 21.258 113.371 21.2803 112.716 21.1465C112.061 21.0128 111.465 20.7284 110.996 20.3262C109.45 19.1605 108.31 17.6709 107.696 16.0137C106.708 12.6498 106.319 9.13507 105.669 5.685L105.955 5.66345Z" fill="#066969" fill-opacity="0.14"/>
<path d="M93.3256 40.4433C93.3256 44.7559 91.8444 45.8988 87.8166 45.3166C86.5137 45.152 85.2859 44.7058 84.2566 44.0228C79.9806 40.8207 77.3638 36.3698 76.9545 31.6025C76.9042 30.8813 77.086 30.162 77.481 29.5182C77.8761 28.8744 78.4701 28.3294 79.2025 27.9388C79.9349 27.5483 80.7793 27.3263 81.6491 27.2957C82.5189 27.265 83.3829 27.4267 84.1526 27.7643C85.4421 28.2282 86.5882 28.9286 87.5048 29.8128C90.6015 32.8367 92.6176 36.5188 93.3256 40.4433Z" fill="#0B8EB3" fill-opacity="0.23"/>
<path d="M50.0331 76.1537C47.9295 76.0975 45.8306 75.9535 43.7445 75.7224C42.5749 75.5495 41.5072 75.0601 40.708 74.3307C39.9089 73.6012 39.4233 72.6727 39.3269 71.6902C39.2036 70.7069 39.5039 69.7191 40.1746 68.902C40.8453 68.0849 41.8431 67.4914 42.9909 67.2266C49.0341 65.7285 55.5156 66.0104 61.3369 68.0245C62.1581 68.2586 62.8727 68.6965 63.384 69.2789C63.8953 69.8613 64.1786 70.5601 64.1954 71.2805C64.2194 72.0099 63.933 72.7231 63.3866 73.2949C62.8401 73.8666 62.0684 74.2604 61.2069 74.4071C57.5689 75.2265 53.879 75.8518 50.189 76.5634L50.0331 76.1537Z" fill="#31A6B4" fill-opacity="0.47"/>
<path d="M89.4793 68.3259C88.5048 68.2037 87.5472 68.0014 86.6209 67.7222C83.3207 66.5362 80.0465 65.2856 76.8502 63.9487C75.8532 63.5243 74.9694 62.9376 74.2517 62.2236C73.4739 61.5614 72.9732 60.7093 72.8235 59.7931C72.6738 58.8768 72.8829 57.9449 73.4201 57.1347C73.8385 56.3055 74.574 55.6135 75.5132 55.1654C76.4524 54.7173 77.5431 54.5379 78.6173 54.655C81.4233 54.8892 84.1401 55.6042 86.5958 56.7548C89.0515 57.9055 91.1926 59.4666 92.8835 61.3395C93.3252 61.7923 93.6631 62.3098 94.0528 62.7842C96.4176 65.5659 95.4301 67.5712 91.4543 68.1534C90.7999 68.2387 90.1407 68.2963 89.4793 68.3259Z" fill="#0B8EB3" fill-opacity="0.23"/>
</g>
</svg>
