<svg width="122" height="120" viewBox="0 0 122 120" fill="none" xmlns="http://www.w3.org/2000/svg">
<g opacity="0.38">
<path d="M115.18 67.4856C129.29 66.429 127.004 83.1188 115.882 83.205C104.344 83.6363 101.46 67.1622 115.18 67.4856Z" fill="#ABFFAE" fill-opacity="0.8"/>
<path d="M116.402 50.0597C116.194 52.3885 116.09 54.7173 115.778 57.0245C115.654 57.9909 115.328 58.932 114.817 59.8062C114.451 60.6019 113.798 61.2842 112.947 61.7592C112.095 62.2342 111.087 62.4784 110.061 62.4584C109.065 62.4978 108.082 62.2545 107.274 61.7685C106.466 61.2825 105.882 60.5828 105.618 59.7846C104.738 57.305 104.129 54.7647 103.799 52.1944C103.578 49.934 103.578 47.6625 103.799 45.4021C103.774 44.6997 103.921 44.0005 104.231 43.3467C104.541 42.6929 105.008 42.0981 105.603 41.5982C106.198 41.0984 106.909 40.7038 107.694 40.4385C108.478 40.1731 109.318 40.0425 110.165 40.0545C111.009 40.0767 111.84 40.2375 112.609 40.5275C113.377 40.8176 114.069 41.2312 114.644 41.7445C115.219 42.2578 115.666 42.8605 115.959 43.5179C116.252 44.1753 116.384 44.8743 116.35 45.5746C116.35 47.0624 116.35 48.5503 116.35 50.0381L116.402 50.0597Z" fill="#ABFFAE" fill-opacity="0.8"/>
<path d="M115.23 96.2925C115.438 94.1362 115.568 91.9799 115.88 89.9315C115.946 89.2288 116.297 88.5654 116.874 88.0488C117.452 87.5322 118.223 87.1927 119.063 87.0853C119.902 86.978 120.761 87.1091 121.499 87.4574C122.237 87.8057 122.812 88.3508 123.13 89.0042C126.076 94.3123 127.795 100.032 128.197 105.866C128.368 106.906 128.091 107.962 127.416 108.849C126.741 109.737 125.712 110.398 124.507 110.718C123.235 111.099 121.833 111.053 120.601 110.59C119.368 110.127 118.402 109.283 117.907 108.238C116.821 105.156 115.996 102.015 115.438 98.837C115.347 97.9977 115.347 97.1533 115.438 96.3141L115.23 96.2925Z" fill="#67FB94" fill-opacity="0.46"/>
<path d="M104.994 92.9051C104.702 97.9756 102.441 102.832 98.5491 106.748C97.1294 108.004 95.2456 108.831 93.1959 109.099C92.2479 109.151 91.3003 108.994 90.4484 108.645C89.5964 108.296 88.8703 107.767 88.3433 107.111C87.8163 106.455 87.507 105.696 87.4465 104.909C87.386 104.122 87.5765 103.336 87.9988 102.63C90.4311 97.4913 94.1615 92.8445 98.9389 89.0021C99.4543 88.6526 100.061 88.4081 100.711 88.2883C101.361 88.1685 102.036 88.1766 102.681 88.3121C103.772 88.7434 104.37 90.1018 104.994 91.1369C105.128 91.721 105.128 92.321 104.994 92.9051Z" fill="#1E7A07" fill-opacity="0.12"/>
<path d="M73.4223 90.1462C72.2176 90.2594 71.0006 90.0534 69.9457 89.5576C68.8907 89.0618 68.0519 88.3017 67.5494 87.3861C67.1208 86.5756 67.0031 85.6752 67.2123 84.8073C67.4215 83.9393 67.9475 83.1458 68.7188 82.5344C68.9213 82.3347 69.1576 82.1603 69.4204 82.0169C75.7149 78.991 82.7123 77.1094 89.9492 76.4968C93.2494 76.3459 94.6787 78.4806 93.2495 80.9819C92.9924 81.4597 92.6508 81.9031 92.236 82.2973C87.0128 87.0842 79.7628 88.5936 73.4223 90.1462Z" fill="#ABFFAE" fill-opacity="0.8"/>
<path d="M24.4096 99.4624C23.471 99.4666 22.5332 99.4162 21.6031 99.3115C20.5639 99.2272 19.5847 98.8688 18.809 98.2889C18.0332 97.709 17.5017 96.9381 17.2925 96.0893C17.0832 95.2404 17.2072 94.3583 17.6463 93.5722C18.0854 92.7861 18.8163 92.1375 19.7321 91.7213C23.6463 89.9161 28.0658 89.0012 32.5431 89.0691C35.1934 89.0162 37.8444 89.1461 40.4688 89.4572C41.5697 89.542 42.6012 89.9406 43.3876 90.5854C44.1741 91.2302 44.667 92.0811 44.7825 92.9935C44.8727 93.9142 44.5597 94.831 43.901 95.5757C43.2423 96.3203 42.282 96.8429 41.1964 97.0474C35.6615 98.0824 30.0745 98.9234 24.5135 99.829L24.4096 99.4624Z" fill="#67FB94" fill-opacity="0.46"/>
<path d="M10.0423 63.129C7.89619 62.8943 5.76992 62.5487 3.67579 62.094C2.56105 61.8337 1.58825 61.2629 0.920984 60.4775C0.253722 59.6921 -0.0673233 58.7401 0.011781 57.7814C0.0558732 56.8246 0.504522 55.9112 1.27903 55.2015C2.05355 54.4918 3.10448 54.031 4.24748 53.9C9.80845 53.2747 15.4213 52.8866 21.0083 52.3906H21.2422C23.607 52.865 26.4393 52.6925 27.4268 55.1722C28.0245 56.6816 26.0756 59.1614 23.2431 60.3258C19.0964 61.9452 14.6167 62.8964 10.0423 63.129Z" fill="#1E7A07" fill-opacity="0.12"/>
<path d="M56.7659 49.6068C50.843 49.269 45.0959 47.7925 39.9791 45.2942C38.9443 44.8028 38.1445 44.0311 37.714 43.1085C37.2834 42.1859 37.2482 41.1685 37.6144 40.2269C37.9537 39.2567 38.6543 38.4004 39.6159 37.7807C40.5774 37.161 41.7506 36.8096 42.9674 36.7768C43.4307 36.7007 43.9074 36.7007 44.3707 36.7768C49.9836 38.4372 55.9084 39.5153 60.7677 42.6635C62.5868 43.8495 63.964 45.2511 63.1065 47.2996C62.2489 49.348 60.196 49.6284 57.9093 49.4559L56.7659 49.6068Z" fill="#1E7A07" fill-opacity="0.12"/>
<path d="M105.956 5.66345C105.956 5.21062 105.956 4.75779 105.956 4.30497C105.958 3.35703 106.336 2.43603 107.032 1.68445C107.729 0.932866 108.704 0.392584 109.807 0.147112C110.911 -0.0983591 112.081 -0.0353426 113.137 0.326464C114.192 0.68827 115.075 1.3287 115.648 2.14867C118.22 5.59823 119.199 9.70421 118.403 13.7064C118.093 15.3714 117.668 17.0201 117.13 18.6443C117.042 19.1992 116.767 19.7224 116.337 20.1536C115.908 20.5849 115.34 20.9068 114.699 21.0824C114.059 21.258 113.372 21.2803 112.717 21.1465C112.062 21.0128 111.466 20.7284 110.997 20.3262C109.45 19.1605 108.311 17.6709 107.697 16.0137C106.709 12.6498 106.32 9.13507 105.67 5.685L105.956 5.66345Z" fill="#1E7A07" fill-opacity="0.12"/>
<path d="M93.3266 40.4433C93.3266 44.7559 91.8454 45.8988 87.8176 45.3166C86.5146 45.152 85.2868 44.7058 84.2575 44.0228C79.9816 40.8207 77.3647 36.3698 76.9554 31.6025C76.9052 30.8813 77.087 30.162 77.482 29.5182C77.877 28.8744 78.4711 28.3294 79.2035 27.9388C79.9359 27.5483 80.7803 27.3263 81.6501 27.2957C82.5199 27.265 83.3839 27.4267 84.1536 27.7643C85.4431 28.2282 86.5892 28.9286 87.5058 29.8128C90.6024 32.8367 92.6186 36.5188 93.3266 40.4433Z" fill="#67FB94" fill-opacity="0.46"/>
<path d="M58.0642 118.805C57.2601 118.887 56.4442 118.791 55.699 118.527C54.9538 118.264 54.3058 117.841 53.8206 117.303C53.3353 116.764 53.0301 116.129 52.9357 115.462C52.8412 114.794 52.961 114.117 53.2828 113.5C53.7865 112.408 54.5868 111.427 55.6215 110.633C59.6234 107.851 63.6512 105.069 67.9129 102.568C70.5115 100.972 72.8242 101.102 74.1234 102.352C75.8905 104.099 74.929 105.867 73.7337 107.398C70.4345 111.585 66.0927 115.136 61.0006 117.813C60.065 118.226 59.0811 118.558 58.0642 118.805Z" fill="#67FB94" fill-opacity="0.46"/>
<path d="M50.034 76.1537C47.9305 76.0975 45.8316 75.9535 43.7454 75.7224C42.5758 75.5495 41.5082 75.0601 40.709 74.3307C39.9099 73.6012 39.4242 72.6727 39.3279 71.6902C39.2045 70.7069 39.5048 69.7191 40.1756 68.902C40.8463 68.0849 41.844 67.4914 42.9919 67.2266C49.035 65.7285 55.5166 66.0104 61.3379 68.0245C62.1591 68.2586 62.8737 68.6965 63.385 69.2789C63.8963 69.8613 64.1795 70.5601 64.1963 71.2805C64.2204 72.0099 63.934 72.7231 63.3875 73.2949C62.8411 73.8666 62.0694 74.2604 61.2079 74.4071C57.5699 75.2265 53.8799 75.8518 50.1899 76.5634L50.034 76.1537Z" fill="#0BD630" fill-opacity="0.24"/>
<path d="M89.4803 68.3259C88.5057 68.2037 87.5482 68.0014 86.6218 67.7222C83.3216 66.5362 80.0475 65.2856 76.8512 63.9487C75.8542 63.5243 74.9704 62.9376 74.2526 62.2236C73.4749 61.5614 72.9742 60.7093 72.8245 59.7931C72.6748 58.8768 72.8839 57.9449 73.4211 57.1347C73.8395 56.3055 74.575 55.6135 75.5142 55.1654C76.4534 54.7173 77.5441 54.5379 78.6182 54.655C81.4242 54.8892 84.1411 55.6042 86.5968 56.7548C89.0525 57.9055 91.1935 59.4666 92.8844 61.3395C93.3262 61.7923 93.664 62.3098 94.0538 62.7842C96.4185 65.5659 95.4311 67.5712 91.4552 68.1534C90.8009 68.2387 90.1417 68.2963 89.4803 68.3259Z" fill="#67FB94" fill-opacity="0.46"/>
<path d="M107.827 124.258C107.047 127.341 106.501 130.274 105.54 133.141C105.315 134.31 104.547 135.358 103.399 136.06C102.252 136.761 100.818 137.061 99.4072 136.893C97.9953 136.702 96.7221 136.077 95.8408 135.142C94.9596 134.207 94.5351 133.031 94.6518 131.848C94.9296 127.436 96.734 123.183 99.8489 119.6C100.204 119.12 100.714 118.732 101.32 118.48C101.927 118.228 102.607 118.121 103.283 118.173C103.959 118.224 104.604 118.432 105.145 118.772C105.686 119.112 106.102 119.57 106.345 120.096C106.999 121.44 107.495 122.834 107.827 124.258Z" fill="#67FB94" fill-opacity="0.46"/>
</g>
</svg>
