<svg width="380" height="103" viewBox="0 0 380 103" fill="none" xmlns="http://www.w3.org/2000/svg">
<path d="M301.867 -20.4038C312.04 -19.211 321.41 -14.2801 328.163 -6.56596C329.305 -5.19165 330.022 -3.51417 330.229 -1.73819C330.435 0.0377808 330.121 1.83536 329.324 3.43546C328.528 5.03556 327.283 6.36892 325.743 7.27281C324.202 8.1767 322.433 8.6121 320.65 8.52584C317.809 8.50238 315.002 7.89909 312.402 6.75286C306.4 3.46638 300.657 -0.382206 294.915 -4.14436C293.782 -4.99861 292.816 -6.05397 292.065 -7.25786C291.112 -8.31148 290.478 -9.61533 290.238 -11.0166C289.998 -12.4178 290.162 -13.8585 290.71 -15.1698C291.259 -16.4812 292.169 -17.6089 293.334 -18.421C294.499 -19.2331 295.871 -19.6959 297.29 -19.7552C298.714 -20.0146 300.096 -20.1443 301.867 -20.4038Z" fill="#F4B862" fill-opacity="0.28"/>
<path d="M99.2281 52.4615C99.3935 51.1721 99.668 49.8991 100.049 48.6561C103.714 38.8554 110.437 30.4995 119.22 24.8291C120.315 23.9205 121.537 23.1775 122.847 22.6238C124.836 21.9516 126.99 21.9516 128.979 22.6238C129.711 23.3639 130.29 24.2413 130.683 25.206C131.075 26.1707 131.274 27.2036 131.267 28.2454C131.388 30.4593 130.926 32.6661 129.929 34.6454C125.612 42.878 120.885 50.888 115.766 58.6453C115.102 59.675 114.222 60.5467 113.186 61.199C112.15 61.8513 110.984 62.2684 109.77 62.4209C108.555 62.5734 107.323 62.4577 106.158 62.0818C104.993 61.706 103.925 61.079 103.028 60.2453C101.205 58.0488 99.6809 55.6206 98.4941 53.0237L99.2281 52.4615Z" fill="#F4B862" fill-opacity="0.28"/>
<path d="M259.076 9.8233C259.076 18.2125 252.513 23.1423 246.511 20.072C243.175 18.385 240.422 15.7335 238.609 12.4612C234.641 5.23392 232.617 -2.90249 232.737 -11.1495C232.6 -12.2633 232.787 -13.3929 233.275 -14.4029C233.764 -15.413 234.532 -16.2607 235.489 -16.8447C236.445 -17.4287 237.55 -17.7243 238.67 -17.6959C239.79 -17.6675 240.878 -17.3163 241.804 -16.6846L242.841 -16.1226C252.254 -9.29016 255.794 1.0017 259.076 9.8233Z" fill="#D9CC99" fill-opacity="0.5"/>
<path d="M96.9822 7.40124C95.646 7.56552 94.2903 7.37347 93.052 6.84447C91.8138 6.31547 90.7371 5.46828 89.9308 4.38869C89.1244 3.3091 88.6172 2.03536 88.4603 0.696371C88.3034 -0.642616 88.5024 -1.99931 89.0372 -3.23652C89.8742 -5.42718 91.2039 -7.39515 92.9233 -8.9878C99.5729 -14.5662 106.266 -20.1446 113.347 -25.1608C117.665 -28.3608 121.508 -28.1014 123.667 -25.5933C126.603 -22.0906 125.005 -18.5445 123.019 -15.4743C117.537 -7.07868 110.323 0.0432186 101.861 5.4121C100.307 6.23947 98.6718 6.90594 96.9822 7.40124Z" fill="#F4B862" fill-opacity="0.28"/>
<path d="M203.073 46.1033C202.813 44.0358 202.813 41.9438 203.073 39.8763C203.634 37.8006 204.584 34.9033 206.139 34.2979C207.264 34.0263 208.435 34.0057 209.569 34.2373C210.703 34.4689 211.773 34.9472 212.702 35.6384C217.184 39.0718 220.354 43.941 221.683 49.433C222.683 53.7099 223.432 58.0415 223.928 62.4059C224.169 63.6609 224.154 64.9518 223.884 66.2007C223.614 67.4497 223.093 68.6309 222.355 69.6733C221.617 70.7157 220.676 71.5977 219.588 72.2661C218.5 72.9345 217.289 73.3756 216.027 73.5627C214.726 73.7566 213.4 73.684 212.129 73.3497C210.857 73.0154 209.667 72.4262 208.629 71.6176C207.592 70.8091 206.729 69.798 206.093 68.6457C205.457 67.4935 205.061 66.224 204.929 64.9141C203.85 58.6871 203.332 52.3303 202.555 46.0168L203.073 46.1033Z" fill="#FDE0AD" fill-opacity="0.49"/>
<path d="M179.669 18.3416C178.374 24.5254 177.467 30.4064 175.87 36.1577C175.497 38.5003 174.219 40.6022 172.313 42.0098C170.407 43.4175 168.024 44.0181 165.679 43.6821C163.333 43.2988 161.218 42.0447 159.753 40.1696C158.289 38.2944 157.584 35.9358 157.778 33.5633C158.239 24.7149 161.238 16.1871 166.413 9.00108C167.003 8.0385 167.85 7.26047 168.859 6.75473C169.867 6.24898 170.996 6.03576 172.119 6.13923C173.242 6.2427 174.314 6.65863 175.213 7.34013C176.113 8.02164 176.804 8.94151 177.208 9.99572C178.294 12.6923 179.118 15.4871 179.669 18.3416Z" fill="#F4B862" fill-opacity="0.28"/>
<path d="M288.828 71.8344C288.867 73.6126 288.374 75.3619 287.412 76.8571C286.45 78.3522 285.063 79.5246 283.43 80.2236C281.704 81.0578 279.736 81.2462 277.883 80.7545C276.03 80.2628 274.414 79.1235 273.326 77.5425C270.093 72.7093 267.318 67.5844 265.036 62.2345C263.443 58.3901 262.382 54.3453 261.884 50.2128C261.712 49.1418 261.774 48.0464 262.065 47.0014C262.355 45.9565 262.868 44.9867 263.568 44.1588C264.563 43.7457 265.648 43.6003 266.716 43.7368C267.784 43.8733 268.797 44.2872 269.656 44.9373C276.09 52.6778 282.049 60.8074 288.094 68.8939C288.524 69.8179 288.773 70.8162 288.828 71.8344Z" fill="#F4B862" fill-opacity="0.28"/>
<path d="M46.1178 41.3466C44.6997 41.4919 43.2691 41.2417 41.9842 40.6236C40.6993 40.0055 39.61 39.0437 38.8369 37.8443C38.0638 36.6449 37.6371 35.2548 37.6037 33.8276C37.5703 32.4004 37.9315 30.9918 38.6477 29.7574C41.2613 25.6954 44.8451 22.3501 49.0747 20.0246C53.3044 17.699 58.0463 16.4664 62.8713 16.4385C63.9228 16.4378 64.9549 16.722 65.8583 17.2609C66.7617 17.7998 67.5027 18.5735 68.0028 19.4999C68.5029 20.4262 68.7435 21.4708 68.6991 22.523C68.6547 23.5751 68.327 24.5956 67.7506 25.4764C63.0002 32.3919 56.3154 37.7476 48.5358 40.8709C47.7514 41.1249 46.9397 41.2845 46.1178 41.3466Z" fill="#FDE0AD" fill-opacity="0.49"/>
<path d="M164.341 79.7907C163.823 85.2394 163.564 89.5204 163.002 93.7582C162.981 94.9999 162.71 96.2246 162.206 97.3593C161.702 98.494 160.975 99.5154 160.068 100.363C159.162 101.21 158.094 101.866 156.929 102.292C155.764 102.717 154.525 102.903 153.287 102.839C152.054 102.712 150.862 102.329 149.785 101.715C148.708 101.101 147.77 100.27 147.031 99.2732C146.292 98.2769 145.768 97.1376 145.492 95.9276C145.216 94.7176 145.194 93.4634 145.428 92.2446C146.441 84.7471 149.572 77.6955 154.453 71.9205C154.939 71.2076 155.615 70.6453 156.404 70.2971C157.193 69.949 158.064 69.8288 158.917 69.9503C159.771 70.0718 160.574 70.4301 161.234 70.9846C161.895 71.5391 162.388 72.2676 162.657 73.088C163.462 75.2534 164.027 77.5013 164.341 79.7907Z" fill="#F4B862" fill-opacity="0.28"/>
</svg>
