<svg width="126" height="134" viewBox="0 0 126 134" fill="none" xmlns="http://www.w3.org/2000/svg">
<g opacity="0.38">
<path d="M115.18 34.2854C129.29 33.2288 127.004 49.9186 115.882 50.0048C104.344 50.4361 101.46 33.962 115.18 34.2854Z" fill="#8E0270" fill-opacity="0.16"/>
<path d="M116.402 16.8595C116.194 19.1883 116.09 21.5171 115.778 23.8243C115.654 24.7907 115.328 25.7318 114.817 26.606C114.451 27.4017 113.798 28.084 112.947 28.559C112.095 29.034 111.087 29.2782 110.061 29.2582C109.065 29.2976 108.082 29.0543 107.274 28.5683C106.466 28.0823 105.882 27.3826 105.618 26.5844C104.738 24.1048 104.129 21.5645 103.799 18.9942C103.578 16.7338 103.578 14.4623 103.799 12.2019C103.774 11.4995 103.921 10.8003 104.231 10.1465C104.541 9.49268 105.008 8.89789 105.603 8.39802C106.198 7.89816 106.909 7.50361 107.694 7.23827C108.478 6.97293 109.318 6.84231 110.165 6.85427C111.009 6.87647 111.84 7.03726 112.609 7.32734C113.377 7.61742 114.069 8.03103 114.644 8.54431C115.219 9.05758 115.666 9.66035 115.959 10.3177C116.252 10.9751 116.384 11.6741 116.35 12.3744C116.35 13.8622 116.35 15.3501 116.35 16.8379L116.402 16.8595Z" fill="#8E0270" fill-opacity="0.16"/>
<path d="M115.23 63.0923C115.438 60.936 115.568 58.7797 115.88 56.7313C115.946 56.0287 116.297 55.3652 116.874 54.8486C117.452 54.332 118.223 53.9925 119.063 53.8851C119.902 53.7778 120.761 53.9089 121.499 54.2572C122.237 54.6055 122.812 55.1506 123.13 55.804C126.076 61.1121 127.795 66.8319 128.197 72.6663C128.368 73.7059 128.091 74.762 127.416 75.6492C126.741 76.5364 125.712 77.198 124.507 77.5179C123.235 77.8988 121.833 77.8529 120.601 77.3898C119.368 76.9268 118.402 76.0831 117.907 75.0382C116.821 71.956 115.996 68.8146 115.438 65.6368C115.347 64.7975 115.347 63.9531 115.438 63.1139L115.23 63.0923Z" fill="#FF0ACA" fill-opacity="0.26"/>
<path d="M104.994 59.7049C104.702 64.7754 102.441 69.6316 98.5491 73.5483C97.1294 74.8039 95.2456 75.6309 93.1959 75.8986C92.2479 75.9504 91.3003 75.794 90.4484 75.4451C89.5964 75.0962 88.8703 74.5671 88.3433 73.9111C87.8163 73.2551 87.507 72.4956 87.4465 71.7088C87.386 70.922 87.5765 70.1359 87.9988 69.4297C90.4311 64.2911 94.1615 59.6443 98.9389 55.8019C99.4543 55.4524 100.061 55.2079 100.711 55.0881C101.361 54.9683 102.036 54.9765 102.681 55.1119C103.772 55.5432 104.37 56.9017 104.994 57.9367C105.128 58.5208 105.128 59.1208 104.994 59.7049Z" fill="#FF78F6" fill-opacity="0.8"/>
<path d="M73.4223 56.946C72.2176 57.0592 71.0006 56.8532 69.9457 56.3574C68.8907 55.8616 68.0519 55.1015 67.5494 54.1859C67.1208 53.3754 67.0031 52.475 67.2123 51.6071C67.4215 50.7391 67.9475 49.9456 68.7188 49.3342C68.9213 49.1345 69.1576 48.9601 69.4204 48.8167C75.7149 45.7908 82.7123 43.9092 89.9492 43.2966C93.2494 43.1457 94.6787 45.2804 93.2495 47.7817C92.9924 48.2595 92.6508 48.7029 92.236 49.0971C87.0128 53.884 79.7628 55.3934 73.4223 56.946Z" fill="#8E0270" fill-opacity="0.16"/>
<path d="M59.4144 108.073C59.5139 107.43 59.6791 106.795 59.9081 106.176C62.1138 101.289 66.1599 97.1219 71.4458 94.2944C72.1048 93.8413 72.8402 93.4709 73.6286 93.1948C74.8254 92.8596 76.1218 92.8596 77.3186 93.1948C77.7593 93.5638 78.1078 94.0013 78.3441 94.4824C78.5804 94.9634 78.7 95.4785 78.6959 95.9979C78.7685 97.1019 78.4907 98.2023 77.8903 99.1893C75.2926 103.294 72.4479 107.289 69.367 111.157C68.9677 111.67 68.4377 112.105 67.8142 112.43C67.1908 112.755 66.489 112.963 65.7583 113.039C65.0276 113.115 64.2857 113.058 63.5848 112.87C62.8839 112.683 62.2409 112.37 61.7011 111.955C60.6043 110.859 59.6869 109.648 58.9727 108.354L59.4144 108.073Z" fill="#FF0ACA" fill-opacity="0.26"/>
<path d="M24.4096 66.2622C23.471 66.2664 22.5332 66.216 21.6031 66.1114C20.5639 66.027 19.5847 65.6686 18.809 65.0887C18.0332 64.5088 17.5017 63.7379 17.2925 62.8891C17.0832 62.0402 17.2072 61.1581 17.6463 60.372C18.0854 59.586 18.8163 58.9373 19.7321 58.5211C23.6463 56.7159 28.0658 55.801 32.5431 55.8689C35.1934 55.816 37.8444 55.9459 40.4688 56.2571C41.5697 56.3418 42.6012 56.7404 43.3876 57.3852C44.1741 58.03 44.667 58.881 44.7825 59.7933C44.8727 60.714 44.5597 61.6308 43.901 62.3755C43.2423 63.1201 42.282 63.6427 41.1964 63.8472C35.6615 64.8822 30.0745 65.7232 24.5135 66.6288L24.4096 66.2622Z" fill="#FF0ACA" fill-opacity="0.26"/>
<path d="M10.0423 29.9288C7.89619 29.6941 5.76992 29.3485 3.67579 28.8938C2.56105 28.6335 1.58825 28.0627 0.920984 27.2773C0.253722 26.4919 -0.0673233 25.5399 0.011781 24.5812C0.0558732 23.6244 0.504522 22.711 1.27903 22.0013C2.05355 21.2916 3.10448 20.8308 4.24748 20.6998C9.80845 20.0745 15.4213 19.6864 21.0083 19.1904H21.2422C23.607 19.6648 26.4393 19.4923 27.4268 21.972C28.0245 23.4814 26.0756 25.9612 23.2431 27.1256C19.0964 28.745 14.6167 29.6963 10.0423 29.9288Z" fill="#FF78F6" fill-opacity="0.8"/>
<path d="M56.7659 16.4066C50.843 16.0688 45.0959 14.5923 39.9791 12.094C38.9443 11.6026 38.1445 10.8309 37.714 9.90828C37.2834 8.98567 37.2482 7.96828 37.6144 7.02671C37.9537 6.05648 38.6543 5.20022 39.6159 4.58051C40.5774 3.96079 41.7506 3.60939 42.9674 3.57662C43.4307 3.5005 43.9074 3.5005 44.3707 3.57662C49.9836 5.23697 55.9084 6.31511 60.7677 9.4633C62.5868 10.6493 63.964 12.0509 63.1065 14.0994C62.2489 16.1478 60.196 16.4282 57.9093 16.2557L56.7659 16.4066Z" fill="#FF78F6" fill-opacity="0.8"/>
<path d="M93.3266 7.24311C93.3266 11.5557 91.8454 12.6986 87.8176 12.1164C86.5146 11.9518 85.2868 11.5056 84.2575 10.8226C79.9816 7.62054 77.3647 3.16963 76.9554 -1.59769C76.9052 -2.31889 77.087 -3.03824 77.482 -3.682C77.877 -4.32576 78.4711 -4.87081 79.2035 -5.26135C79.9359 -5.65188 80.7803 -5.87385 81.6501 -5.90453C82.5199 -5.9352 83.3839 -5.77346 84.1536 -5.4359C85.4431 -4.97196 86.5892 -4.27161 87.5058 -3.38742C90.6024 -0.363496 92.6186 3.31859 93.3266 7.24311Z" fill="#FF0ACA" fill-opacity="0.26"/>
<path d="M58.0642 85.6047C57.2601 85.6867 56.4442 85.5909 55.699 85.3271C54.9538 85.0633 54.3058 84.6409 53.8206 84.1025C53.3353 83.5642 53.0301 82.9291 52.9357 82.2614C52.8412 81.5937 52.961 80.9172 53.2828 80.3003C53.7865 79.2079 54.5868 78.2266 55.6215 77.4324C59.6234 74.6508 63.6512 71.8691 67.9129 69.3678C70.5115 67.7722 72.8242 67.9015 74.1234 69.1522C75.8905 70.8988 74.929 72.667 73.7337 74.198C70.4345 78.3844 66.0927 81.9357 61.0006 84.6129C60.065 85.0254 59.0811 85.3578 58.0642 85.6047Z" fill="#FF0ACA" fill-opacity="0.26"/>
<path d="M50.034 42.9535C47.9305 42.8973 45.8316 42.7533 43.7454 42.5222C42.5758 42.3493 41.5082 41.8599 40.709 41.1305C39.9099 40.401 39.4242 39.4725 39.3279 38.49C39.2045 37.5067 39.5048 36.5189 40.1756 35.7018C40.8463 34.8848 41.844 34.2912 42.9919 34.0264C49.035 32.5283 55.5166 32.8102 61.3379 34.8243C62.1591 35.0584 62.8737 35.4964 63.385 36.0788C63.8963 36.6611 64.1795 37.3599 64.1963 38.0803C64.2204 38.8097 63.934 39.5229 63.3875 40.0947C62.8411 40.6665 62.0694 41.0602 61.2079 41.2069C57.5699 42.0263 53.8799 42.6516 50.1899 43.3632L50.034 42.9535Z" fill="#B32393" fill-opacity="0.16"/>
<path d="M89.4803 35.1257C88.5057 35.0035 87.5482 34.8012 86.6218 34.522C83.3216 33.336 80.0475 32.0854 76.8512 30.7485C75.8542 30.3241 74.9704 29.7374 74.2526 29.0234C73.4749 28.3612 72.9742 27.5091 72.8245 26.5929C72.6748 25.6766 72.8839 24.7447 73.4211 23.9345C73.8395 23.1053 74.575 22.4133 75.5142 21.9652C76.4534 21.5171 77.5441 21.3377 78.6182 21.4548C81.4242 21.689 84.1411 22.404 86.5968 23.5547C89.0525 24.7053 91.1935 26.2664 92.8844 28.1393C93.3262 28.5921 93.664 29.1097 94.0538 29.584C96.4185 32.3657 95.4311 34.371 91.4552 34.9532C90.8009 35.0385 90.1417 35.0961 89.4803 35.1257Z" fill="#FF0ACA" fill-opacity="0.26"/>
<path d="M121.911 104.901C121.755 103.87 121.755 102.827 121.911 101.796C122.249 100.761 122.821 99.316 123.756 99.0141C124.434 98.8787 125.138 98.8684 125.821 98.9839C126.503 99.0994 127.147 99.3379 127.706 99.6826C130.403 101.395 132.311 103.823 133.111 106.561C133.713 108.694 134.164 110.854 134.463 113.03C134.608 113.656 134.599 114.3 134.436 114.922C134.273 115.545 133.96 116.134 133.516 116.654C133.072 117.174 132.505 117.614 131.85 117.947C131.196 118.28 130.467 118.5 129.707 118.593C128.925 118.69 128.127 118.654 127.361 118.487C126.596 118.32 125.88 118.027 125.255 117.623C124.631 117.22 124.112 116.716 123.729 116.142C123.346 115.567 123.108 114.934 123.029 114.281C122.379 111.176 122.067 108.006 121.6 104.858L121.911 104.901Z" fill="#B32393" fill-opacity="0.16"/>
<path d="M107.827 91.0573C107.047 94.1408 106.501 97.0734 105.54 99.9413C105.315 101.109 104.547 102.157 103.399 102.859C102.252 103.561 100.818 103.861 99.4072 103.693C97.9953 103.502 96.7221 102.877 95.8408 101.942C94.9596 101.007 94.5351 99.8306 94.6518 98.6475C94.9296 94.2353 96.734 89.983 99.8489 86.3997C100.204 85.9197 100.714 85.5318 101.32 85.2796C101.927 85.0274 102.607 84.9211 103.283 84.9727C103.959 85.0242 104.604 85.2317 105.145 85.5715C105.686 85.9113 106.102 86.37 106.345 86.8957C106.999 88.2403 107.495 89.6339 107.827 91.0573Z" fill="#FF0ACA" fill-opacity="0.26"/>
<path d="M27.4533 102.533C26.5999 102.605 25.7389 102.48 24.9657 102.172C24.1924 101.864 23.5369 101.384 23.0716 100.786C22.6063 100.188 22.3495 99.495 22.3294 98.7833C22.3093 98.0716 22.5267 97.3692 22.9577 96.7537C24.5306 94.7282 26.6874 93.0601 29.2328 91.9005C31.7783 90.7409 34.632 90.1262 37.5358 90.1123C38.1686 90.112 38.7898 90.2537 39.3334 90.5224C39.8771 90.7911 40.323 91.1769 40.624 91.6388C40.925 92.1008 41.0698 92.6217 41.043 93.1463C41.0163 93.671 40.8191 94.1798 40.4722 94.619C37.6134 98.0674 33.5904 100.738 28.9085 102.295C28.4365 102.422 27.948 102.502 27.4533 102.533Z" fill="#B32393" fill-opacity="0.16"/>
<path d="M98.6036 121.699C98.2918 124.416 98.1359 126.551 97.7981 128.664C97.7851 129.283 97.622 129.894 97.3187 130.46C97.0153 131.026 96.5778 131.535 96.0322 131.958C95.4866 132.38 94.8442 132.707 94.1431 132.919C93.442 133.131 92.6965 133.224 91.9512 133.192C91.2094 133.129 90.4916 132.938 89.8434 132.632C89.1952 132.326 88.6308 131.911 88.186 131.414C87.7413 130.917 87.4259 130.349 87.2599 129.746C87.0939 129.143 87.0809 128.517 87.2218 127.909C87.8313 124.171 89.7156 120.655 92.6528 117.775C92.9456 117.419 93.3524 117.139 93.8272 116.965C94.302 116.792 94.8259 116.732 95.3396 116.792C95.8533 116.853 96.3363 117.032 96.7341 117.308C97.1318 117.585 97.4283 117.948 97.5901 118.357C98.0749 119.437 98.4149 120.558 98.6036 121.699Z" fill="#FF0ACA" fill-opacity="0.26"/>
</g>
</svg>
