<svg width="203" height="142" viewBox="0 0 203 142" fill="none" xmlns="http://www.w3.org/2000/svg">
<g opacity="0.4">
<path d="M116.136 68.4095C130.246 67.3529 127.96 84.0426 116.838 84.1289C105.3 84.5601 102.416 68.086 116.136 68.4095Z" fill="#9747FF"/>
<path d="M117.358 50.9835C117.15 53.3123 117.046 55.6411 116.734 57.9483C116.61 58.9147 116.284 59.8558 115.773 60.73C115.408 61.5257 114.754 62.208 113.903 62.683C113.051 63.158 112.043 63.4023 111.017 63.3822C110.021 63.4217 109.038 63.1784 108.23 62.6924C107.422 62.2064 106.838 61.5066 106.574 60.7084C105.694 58.2289 105.085 55.6885 104.755 53.1183C104.534 50.8579 104.534 48.5863 104.755 46.3259C104.73 45.6235 104.877 44.9243 105.187 44.2705C105.497 43.6167 105.964 43.0219 106.559 42.522C107.154 42.0222 107.866 41.6276 108.65 41.3623C109.434 41.097 110.274 40.9663 111.121 40.9783C111.965 41.0005 112.796 41.1613 113.565 41.4514C114.333 41.7414 115.025 42.1551 115.6 42.6683C116.175 43.1816 116.622 43.7844 116.915 44.4418C117.208 45.0992 117.34 45.7982 117.306 46.4984C117.306 47.9863 117.306 49.4741 117.306 50.962L117.358 50.9835Z" fill="#9747FF"/>
<path d="M116.187 97.2163C116.394 95.06 116.524 92.9038 116.836 90.8553C116.902 90.1527 117.253 89.4893 117.831 88.9726C118.408 88.456 119.179 88.1165 120.019 88.0091C120.858 87.9018 121.717 88.0329 122.455 88.3812C123.193 88.7295 123.768 89.2746 124.086 89.9281C127.032 95.2361 128.751 100.956 129.153 106.79C129.324 107.83 129.047 108.886 128.372 109.773C127.697 110.66 126.668 111.322 125.463 111.642C124.191 112.023 122.789 111.977 121.557 111.514C120.324 111.051 119.358 110.207 118.863 109.162C117.777 106.08 116.952 102.939 116.394 99.7608C116.303 98.9215 116.303 98.0772 116.394 97.2379L116.187 97.2163Z" fill="#F68E5F"/>
<path d="M105.95 93.8289C105.658 98.8995 103.397 103.756 99.5052 107.672C98.0854 108.928 96.2017 109.755 94.152 110.023C93.204 110.074 92.2563 109.918 91.4044 109.569C90.5525 109.22 89.8264 108.691 89.2994 108.035C88.7724 107.379 88.4631 106.62 88.4026 105.833C88.3421 105.046 88.5326 104.26 88.9548 103.554C91.3871 98.4151 95.1175 93.7683 99.8949 89.926C100.41 89.5764 101.017 89.332 101.667 89.2121C102.317 89.0923 102.992 89.1005 103.637 89.236C104.728 89.6672 105.326 91.0257 105.95 92.0607C106.084 92.6448 106.084 93.2448 105.95 93.8289Z" fill="black" fill-opacity="0.12"/>
<path d="M182.321 105.863C188.444 106.458 194.083 108.917 198.147 112.763C198.834 113.449 199.266 114.285 199.39 115.171C199.514 116.056 199.325 116.953 198.846 117.751C198.366 118.549 197.618 119.213 196.691 119.664C195.764 120.115 194.698 120.332 193.625 120.289C191.916 120.277 190.227 119.976 188.662 119.405C185.05 117.766 181.594 115.847 178.138 113.971C177.456 113.545 176.875 113.019 176.423 112.418C175.849 111.893 175.468 111.243 175.323 110.544C175.179 109.845 175.278 109.127 175.608 108.473C175.938 107.819 176.485 107.257 177.186 106.852C177.888 106.447 178.713 106.216 179.567 106.187C180.425 106.057 181.256 105.993 182.321 105.863Z" fill="#F68E5F"/>
<path d="M74.3783 91.07C73.1736 91.1832 71.9566 90.9772 70.9017 90.4814C69.8468 89.9856 69.008 89.2255 68.5055 88.3099C68.0768 87.4994 67.9591 86.5991 68.1683 85.7311C68.3775 84.8632 68.9035 84.0696 69.6749 83.4583C69.8773 83.2585 70.1137 83.0842 70.3765 82.9408C76.6709 79.9148 83.6684 78.0332 90.9053 77.4206C94.2055 77.2697 95.6348 79.4044 94.2055 81.9057C93.9484 82.3836 93.6068 82.8269 93.192 83.2211C87.9689 88.0081 80.7189 89.5175 74.3783 91.07Z" fill="#9747FF"/>
<path d="M60.3704 142.197C60.47 141.554 60.6351 140.919 60.8642 140.3C63.0698 135.413 67.116 131.246 72.4019 128.418C73.0608 127.965 73.7962 127.595 74.5847 127.319C75.7815 126.984 77.0779 126.984 78.2747 127.319C78.7153 127.688 79.0638 128.125 79.3002 128.606C79.5365 129.087 79.656 129.602 79.6519 130.122C79.7245 131.226 79.4468 132.326 78.8464 133.313C76.2487 137.418 73.404 141.413 70.323 145.281C69.9238 145.794 69.3937 146.229 68.7703 146.554C68.1469 146.879 67.4451 147.087 66.7144 147.163C65.9837 147.239 65.2418 147.182 64.5409 146.994C63.8399 146.807 63.1969 146.494 62.6572 146.079C61.5603 144.983 60.6429 143.772 59.9287 142.478L60.3704 142.197Z" fill="#F68E5F"/>
<path d="M25.3657 100.386C24.4271 100.39 23.4892 100.34 22.5592 100.235C21.52 100.151 20.5408 99.7926 19.765 99.2127C18.9892 98.6328 18.4577 97.8619 18.2485 97.0131C18.0393 96.1643 18.1633 95.2821 18.6024 94.4961C19.0414 93.71 19.7724 93.0613 20.6882 92.6452C24.6023 90.8399 29.0218 89.925 33.4992 89.9929C36.1495 89.9401 38.8005 90.0699 41.4249 90.3811C42.5257 90.4658 43.5572 90.8645 44.3437 91.5092C45.1302 92.154 45.6231 93.005 45.7385 93.9174C45.8287 94.8381 45.5157 95.7549 44.857 96.4995C44.1983 97.2441 43.238 97.7667 42.1525 97.9712C36.6175 99.0062 31.0305 99.8472 25.4696 100.753L25.3657 100.386Z" fill="#F68E5F"/>
<path d="M146.488 29.6374C145.792 34.6877 143.407 39.4756 139.602 43.4593C138.834 44.185 137.861 44.7407 136.769 45.0765C136.285 45.2908 135.745 45.4033 135.197 45.4042C134.648 45.405 134.108 45.2941 133.623 45.0812C133.138 44.8684 132.724 44.56 132.416 44.1833C132.108 43.8065 131.917 43.3728 131.858 42.9202C131.533 41.2636 131.533 39.5743 131.858 37.9176C132.638 34.4891 133.651 31.1037 134.742 27.7183C135.067 26.5017 135.925 25.4287 137.149 24.7075C138.374 23.9863 139.878 23.6683 141.369 23.8154C142.961 24.0533 144.381 24.7911 145.334 25.8753C146.288 26.9596 146.701 28.3069 146.488 29.6374Z" fill="#F68E5F"/>
<path d="M182.935 36.8174C180.398 41.4449 176.35 45.3916 171.251 48.211C170.251 48.7055 169.119 48.9859 167.956 49.027C167.416 49.1074 166.86 49.0767 166.338 48.9375C165.816 48.7983 165.343 48.5549 164.961 48.2286C164.578 47.9024 164.298 47.5033 164.145 47.0662C163.993 46.6292 163.971 46.1677 164.083 45.7221C164.389 44.063 165.017 42.4557 165.941 40.9624C167.956 37.8993 170.177 34.9368 172.472 31.9943C173.233 30.9196 174.447 30.1176 175.88 29.7438C177.313 29.3701 178.862 29.4513 180.226 29.9718C181.652 30.6043 182.729 31.6687 183.234 32.9435C183.738 34.2184 183.631 35.6058 182.935 36.8174Z" fill="#FF9703" fill-opacity="0.51"/>
<path d="M10.9983 64.0528C8.85225 63.8182 6.72598 63.4725 4.63185 63.0178C3.5171 62.7575 2.5443 62.1867 1.87704 61.4013C1.20978 60.6159 0.888731 59.6639 0.967836 58.7052C1.01193 57.7484 1.46058 56.8351 2.23509 56.1253C3.0096 55.4156 4.06053 54.9549 5.20354 54.8239C10.7645 54.1985 16.3774 53.8104 21.9644 53.3145H22.1983C24.563 53.7888 27.3954 53.6163 28.3829 56.0961C28.9805 57.6055 27.0316 60.0852 24.1992 61.2496C20.0524 62.869 15.5728 63.8203 10.9983 64.0528Z" fill="black" fill-opacity="0.12"/>
<path d="M57.722 50.5306C51.799 50.1928 46.052 48.7164 40.9351 46.218C39.9003 45.7266 39.1006 44.9549 38.67 44.0323C38.2395 43.1097 38.2043 42.0923 38.5704 41.1507C38.9098 40.1805 39.6104 39.3242 40.5719 38.7045C41.5335 38.0848 42.7066 37.7334 43.9235 37.7006C44.3867 37.6245 44.8635 37.6245 45.3268 37.7006C50.9397 39.361 56.8645 40.4391 61.7238 43.5873C63.5428 44.7733 64.92 46.1749 64.0625 48.2234C63.205 50.2719 61.1521 50.5522 58.8653 50.3797L57.722 50.5306Z" fill="black" fill-opacity="0.12"/>
<path d="M147.137 94.0882C146.256 94.0183 145.385 93.8738 144.539 93.6569C139.347 92.1737 134.714 89.5863 131.104 86.153C130.365 85.6399 129.857 84.9342 129.664 84.151C129.47 83.3678 129.603 82.5533 130.039 81.8404C131.182 80.1369 133.053 80.0722 135.236 80.3094C140.266 80.8829 145.133 82.1973 149.606 84.1907C150.222 84.4671 150.82 84.7694 151.399 85.0964C152.515 85.6472 153.377 86.4919 153.848 87.4961C154.319 88.5002 154.371 89.6062 153.998 90.6381C153.504 91.7789 152.554 92.7443 151.305 93.3725C150.056 94.0006 148.584 94.2533 147.137 94.0882Z" fill="#F68E5F"/>
<path d="M106.912 6.58727C106.912 6.13445 106.912 5.68162 106.912 5.2288C106.914 4.28086 107.292 3.35986 107.988 2.60828C108.685 1.85669 109.66 1.31641 110.763 1.07094C111.867 0.825469 113.037 0.888486 114.093 1.25029C115.149 1.6121 116.031 2.25253 116.605 3.0725C119.176 6.52205 120.155 10.628 119.359 14.6303C119.049 16.2952 118.624 17.9439 118.086 19.5682C117.998 20.1231 117.723 20.6462 117.294 21.0774C116.864 21.5087 116.296 21.8306 115.656 22.0062C115.015 22.1819 114.328 22.2041 113.673 22.0703C113.018 21.9366 112.422 21.6523 111.953 21.2501C110.407 20.0843 109.267 18.5947 108.653 16.9375C107.665 13.5737 107.276 10.0589 106.626 6.60883L106.912 6.58727Z" fill="black" fill-opacity="0.12"/>
<path d="M94.2826 41.3671C94.2826 45.6797 92.8014 46.8226 88.7736 46.2404C87.4707 46.0758 86.2429 45.6296 85.2136 44.9466C80.9376 41.7446 78.3208 37.2937 77.9115 32.5263C77.8613 31.8051 78.043 31.0858 78.4381 30.442C78.8331 29.7983 79.4272 29.2532 80.1596 28.8627C80.892 28.4721 81.7363 28.2502 82.6061 28.2195C83.4759 28.1888 84.3399 28.3506 85.1096 28.6881C86.3992 29.1521 87.5453 29.8524 88.4618 30.7366C91.5585 33.7605 93.5746 37.4426 94.2826 41.3671Z" fill="#F68E5F"/>
<path d="M156.57 120.935C156.57 125.118 152.62 127.577 149.008 126.046C147 125.204 145.344 123.882 144.253 122.251C141.864 118.647 140.646 114.59 140.718 110.477C140.636 109.922 140.749 109.359 141.043 108.855C141.336 108.351 141.799 107.929 142.375 107.637C142.95 107.346 143.615 107.199 144.289 107.213C144.963 107.227 145.618 107.402 146.175 107.717L146.799 107.997C152.464 111.404 154.595 116.536 156.57 120.935Z" fill="#9747FF"/>
<path d="M59.0203 119.729C58.2162 119.811 57.4003 119.715 56.6551 119.451C55.9099 119.187 55.2619 118.765 54.7766 118.227C54.2914 117.688 53.9861 117.053 53.8917 116.385C53.7973 115.718 53.917 115.041 54.2389 114.424C54.7426 113.332 55.5429 112.351 56.5776 111.556C60.5794 108.775 64.6073 105.993 68.8689 103.492C71.4675 101.896 73.7802 102.026 75.0795 103.276C76.8465 105.023 75.8851 106.791 74.6897 108.322C71.3905 112.508 67.0487 116.06 61.9567 118.737C61.021 119.149 60.0371 119.482 59.0203 119.729Z" fill="#F68E5F"/>
<path d="M50.9901 77.0775C48.8865 77.0213 46.7876 76.8774 44.7015 76.6463C43.5319 76.4733 42.4642 75.9839 41.6651 75.2545C40.8659 74.525 40.3803 73.5966 40.2839 72.614C40.1606 71.6307 40.4609 70.6429 41.1316 69.8258C41.8023 69.0088 42.8001 68.4152 43.948 68.1504C49.9911 66.6523 56.4726 66.9342 62.2939 68.9483C63.1151 69.1825 63.8298 69.6204 64.3411 70.2028C64.8523 70.7852 65.1356 71.4839 65.1524 72.2043C65.1765 72.9338 64.8901 73.647 64.3436 74.2187C63.7971 74.7905 63.0254 75.1842 62.164 75.3309C58.5259 76.1503 54.836 76.7756 51.146 77.4872L50.9901 77.0775Z" fill="#FF9703" fill-opacity="0.51"/>
<path d="M179.024 70.8866C180.427 70.8866 181.83 70.8866 183.234 70.8866C184.074 70.8836 184.906 71.0199 185.682 71.2873C186.458 71.5547 187.162 71.9479 187.753 72.444C188.343 72.94 188.808 73.5288 189.121 74.176C189.434 74.8231 189.588 75.5155 189.574 76.2127C189.529 76.895 189.318 77.5628 188.955 78.1762C188.591 78.7896 188.083 79.3359 187.46 79.7827C186.836 80.2295 186.111 80.5674 185.327 80.7765C184.543 80.9856 183.716 81.0615 182.896 80.9996C179.706 81.0217 176.518 80.8487 173.359 80.4821C171.491 80.1673 169.722 79.536 168.162 78.6277C167.532 78.3445 167.007 77.9256 166.641 77.4151C166.274 76.9046 166.081 76.3216 166.081 75.7275C166.081 75.1334 166.274 74.5503 166.641 74.0399C167.007 73.5294 167.532 73.1105 168.162 72.8273C171.362 71.0742 175.238 70.3816 179.024 70.8866Z" fill="#F68E5F"/>
<path d="M90.4363 69.2498C89.4618 69.1275 88.5043 68.9253 87.5779 68.646C84.2777 67.46 81.0035 66.2094 77.8073 64.8725C76.8102 64.4481 75.9265 63.8614 75.2087 63.1474C74.431 62.4852 73.9303 61.6332 73.7805 60.7169C73.6308 59.8006 73.84 58.8687 74.3771 58.0586C74.7955 57.2293 75.531 56.5373 76.4702 56.0892C77.4094 55.6411 78.5001 55.4618 79.5743 55.5788C82.3803 55.813 85.0971 56.528 87.5528 57.6787C90.0085 58.8293 92.1496 60.3905 93.8405 62.2633C94.2822 62.7162 94.6201 63.2337 95.0099 63.7081C97.3746 66.4897 96.3871 68.4951 92.4113 69.0773C91.7569 69.1625 91.0978 69.2201 90.4363 69.2498Z" fill="#F68E5F"/>
<path d="M122.867 139.025C122.711 137.994 122.711 136.951 122.867 135.92C123.205 134.885 123.777 133.44 124.712 133.138C125.39 133.003 126.094 132.992 126.777 133.108C127.459 133.223 128.103 133.462 128.662 133.807C131.36 135.519 133.267 137.947 134.067 140.685C134.669 142.818 135.12 144.978 135.419 147.154C135.564 147.78 135.555 148.424 135.392 149.046C135.229 149.669 134.916 150.258 134.472 150.778C134.028 151.298 133.461 151.738 132.807 152.071C132.152 152.404 131.423 152.624 130.663 152.717C129.881 152.814 129.083 152.778 128.317 152.611C127.552 152.444 126.836 152.151 126.211 151.747C125.587 151.344 125.068 150.84 124.685 150.266C124.302 149.691 124.064 149.058 123.985 148.405C123.335 145.3 123.023 142.13 122.556 138.982L122.867 139.025Z" fill="#FF9703" fill-opacity="0.51"/>
<path d="M140.123 69.3763C137.368 69.096 134.925 69.0098 132.587 68.5785C131.521 68.3844 129.988 67.6513 129.806 66.9397C129.663 66.4007 129.673 65.8416 129.836 65.3064C129.998 64.7713 130.308 64.2748 130.742 63.8562C133.078 62.2359 135.71 60.9332 138.538 59.9964C141.27 59.2583 144.136 58.9154 147.009 58.9829C148.402 58.9228 149.769 59.3142 150.821 60.0746C151.874 60.835 152.528 61.9048 152.648 63.0584C152.854 64.2325 152.508 65.4276 151.68 66.3953C150.853 67.363 149.608 68.0291 148.204 68.255C145.398 68.8372 142.591 69.0313 140.123 69.3763Z" fill="#F68E5F"/>
<path d="M108.783 125.181C108.003 128.265 107.457 131.197 106.496 134.065C106.271 135.233 105.503 136.281 104.355 136.983C103.208 137.685 101.774 137.985 100.363 137.817C98.9514 137.626 97.6781 137.001 96.7969 136.066C95.9157 135.131 95.4912 133.955 95.6078 132.772C95.8857 128.359 97.6901 124.107 100.805 120.524C101.16 120.044 101.67 119.656 102.277 119.404C102.883 119.151 103.563 119.045 104.239 119.097C104.915 119.148 105.56 119.356 106.101 119.696C106.642 120.035 107.058 120.494 107.301 121.02C107.955 122.364 108.451 123.758 108.783 125.181Z" fill="#F68E5F"/>
<path d="M174.476 151.858C174.5 152.745 174.203 153.617 173.624 154.362C173.046 155.108 172.211 155.693 171.228 156.041C170.189 156.457 169.005 156.551 167.89 156.306C166.775 156.061 165.802 155.493 165.147 154.704C163.202 152.294 161.531 149.739 160.158 147.071C159.199 145.154 158.561 143.137 158.261 141.076C158.158 140.542 158.195 139.996 158.37 139.475C158.545 138.954 158.854 138.47 159.275 138.058C159.873 137.852 160.526 137.779 161.169 137.847C161.812 137.915 162.422 138.122 162.939 138.446C166.811 142.305 170.397 146.359 174.035 150.392C174.294 150.852 174.444 151.35 174.476 151.858Z" fill="#F68E5F"/>
<path d="M203.37 59.1597C201.083 58.8578 199.238 58.4265 198.329 56.7015C197.942 55.9417 197.857 55.0995 198.086 54.2969C198.315 53.4944 198.846 52.7732 199.602 52.238C202.713 49.5592 206.694 47.6867 211.062 46.8472C212.541 46.4795 214.133 46.5966 215.511 47.1743C216.889 47.752 217.947 48.7463 218.468 49.9523C218.692 50.5611 218.768 51.2006 218.694 51.8341C218.619 52.4675 218.394 53.0825 218.031 53.6436C217.669 54.2046 217.177 54.7008 216.583 55.1034C215.989 55.5061 215.305 55.8074 214.57 55.9899C210.932 57.219 207.112 58.1246 203.37 59.1597Z" fill="#9747FF"/>
<path d="M28.4093 136.657C27.5559 136.729 26.695 136.604 25.9217 136.296C25.1484 135.988 24.4929 135.508 24.0276 134.91C23.5624 134.312 23.3055 133.619 23.2855 132.907C23.2654 132.196 23.4828 131.493 23.9138 130.878C25.4866 128.852 27.6435 127.184 30.1889 126.025C32.7343 124.865 35.5881 124.25 38.4919 124.236C39.1247 124.236 39.7458 124.378 40.2895 124.646C40.8332 124.915 41.2791 125.301 41.5801 125.763C41.881 126.225 42.0258 126.746 41.9991 127.27C41.9724 127.795 41.7751 128.304 41.4283 128.743C38.5694 132.191 34.5464 134.862 29.8645 136.419C29.3925 136.546 28.904 136.626 28.4093 136.657Z" fill="#FF9703" fill-opacity="0.51"/>
</g>
</svg>
