<svg width="229" height="152" viewBox="0 0 229 152" fill="none" xmlns="http://www.w3.org/2000/svg">
<g opacity="0.2">
<path d="M115.335 68.2093C129.446 67.1527 127.159 83.8424 116.037 83.9287C104.499 84.3599 101.615 67.8858 115.335 68.2093Z" fill="#953C04" fill-opacity="0.4"/>
<path d="M116.557 50.7833C116.349 53.1121 116.245 55.4409 115.933 57.7482C115.809 58.7145 115.484 59.6557 114.972 60.5298C114.607 61.3255 113.954 62.0078 113.102 62.4828C112.25 62.9578 111.242 63.2021 110.216 63.182C109.22 63.2215 108.237 62.9782 107.429 62.4922C106.621 62.0062 106.037 61.3064 105.773 60.5082C104.893 58.0287 104.284 55.4883 103.954 52.9181C103.733 50.6577 103.733 48.3861 103.954 46.1257C103.929 45.4234 104.076 44.7241 104.386 44.0703C104.697 43.4165 105.163 42.8217 105.759 42.3218C106.354 41.822 107.065 41.4274 107.849 41.1621C108.633 40.8968 109.474 40.7661 110.32 40.7781C111.165 40.8003 111.995 40.9611 112.764 41.2512C113.533 41.5413 114.225 41.9549 114.8 42.4681C115.375 42.9814 115.822 43.5842 116.114 44.2416C116.407 44.899 116.54 45.598 116.505 46.2982C116.505 47.7861 116.505 49.2739 116.505 50.7618L116.557 50.7833Z" fill="#953C04" fill-opacity="0.4"/>
<path d="M115.386 97.0161C115.594 94.8598 115.724 92.7036 116.035 90.6551C116.102 89.9525 116.452 89.2891 117.03 88.7724C117.607 88.2558 118.378 87.9163 119.218 87.809C120.057 87.7016 120.916 87.8327 121.654 88.181C122.392 88.5293 122.967 89.0744 123.285 89.7279C126.232 95.0359 127.95 100.756 128.353 106.59C128.523 107.63 128.246 108.686 127.571 109.573C126.897 110.46 125.867 111.122 124.663 111.442C123.39 111.823 121.988 111.777 120.756 111.314C119.523 110.851 118.557 110.007 118.062 108.962C116.976 105.88 116.151 102.738 115.594 99.5606C115.503 98.7214 115.503 97.877 115.594 97.0377L115.386 97.0161Z" fill="#FD7A3F" fill-opacity="0.56"/>
<path d="M105.149 93.6287C104.857 98.6993 102.596 103.555 98.7044 107.472C97.2847 108.728 95.4009 109.555 93.3512 109.822C92.4032 109.874 91.4556 109.718 90.6036 109.369C89.7517 109.02 89.0256 108.491 88.4986 107.835C87.9716 107.179 87.6623 106.419 87.6018 105.633C87.5413 104.846 87.7318 104.06 88.1541 103.354C90.5863 98.2149 94.3167 93.5681 99.0941 89.7258C99.6096 89.3762 100.217 89.1318 100.866 89.0119C101.516 88.8921 102.191 88.9003 102.836 89.0358C103.928 89.467 104.525 90.8255 105.149 91.8605C105.284 92.4446 105.284 93.0446 105.149 93.6287Z" fill="#965B08" fill-opacity="0.12"/>
<path d="M181.521 105.663C187.643 106.258 193.282 108.717 197.346 112.563C198.033 113.249 198.465 114.085 198.589 114.971C198.714 115.856 198.524 116.753 198.045 117.55C197.566 118.348 196.817 119.013 195.89 119.464C194.963 119.915 193.898 120.132 192.825 120.089C191.115 120.077 189.426 119.776 187.861 119.205C184.249 117.566 180.793 115.647 177.337 113.771C176.655 113.345 176.074 112.819 175.622 112.218C175.048 111.693 174.667 111.043 174.523 110.344C174.378 109.645 174.477 108.927 174.807 108.273C175.137 107.619 175.684 107.057 176.386 106.652C177.087 106.247 177.913 106.016 178.766 105.987C179.624 105.857 180.455 105.792 181.521 105.663Z" fill="#FD7A3F" fill-opacity="0.56"/>
<path d="M73.5775 90.8698C72.3729 90.983 71.1559 90.777 70.1009 90.2812C69.046 89.7854 68.2072 89.0253 67.7047 88.1097C67.2761 87.2992 67.1583 86.3989 67.3675 85.5309C67.5767 84.663 68.1027 83.8694 68.8741 83.2581C69.0766 83.0583 69.3129 82.884 69.5757 82.7406C75.8702 79.7146 82.8676 77.833 90.1045 77.2204C93.4047 77.0695 94.834 79.2042 93.4047 81.7055C93.1476 82.1834 92.806 82.6267 92.3913 83.0209C87.1681 87.8079 79.9181 89.3173 73.5775 90.8698Z" fill="#953C04" fill-opacity="0.4"/>
<path d="M59.5696 141.997C59.6692 141.354 59.8344 140.719 60.0634 140.099C62.2691 135.212 66.3152 131.046 71.6011 128.218C72.26 127.765 72.9954 127.395 73.7839 127.119C74.9807 126.783 76.2771 126.783 77.4739 127.119C77.9145 127.488 78.263 127.925 78.4994 128.406C78.7357 128.887 78.8553 129.402 78.8512 129.922C78.9238 131.026 78.646 132.126 78.0456 133.113C75.4479 137.218 72.6032 141.212 69.5223 145.081C69.123 145.594 68.593 146.029 67.9695 146.354C67.3461 146.679 66.6443 146.887 65.9136 146.963C65.1829 147.039 64.441 146.982 63.7401 146.794C63.0391 146.607 62.3961 146.294 61.8564 145.878C60.7596 144.783 59.8421 143.572 59.1279 142.277L59.5696 141.997Z" fill="#FD7A3F" fill-opacity="0.56"/>
<path d="M24.5649 100.186C23.6263 100.19 22.6885 100.14 21.7584 100.035C20.7192 99.9508 19.74 99.5924 18.9642 99.0125C18.1885 98.4326 17.657 97.6617 17.4477 96.8129C17.2385 95.9641 17.3625 95.0819 17.8016 94.2959C18.2406 93.5098 18.9716 92.8611 19.8874 92.445C23.8015 90.6397 28.221 89.7248 32.6984 89.7927C35.3487 89.7399 37.9997 89.8697 40.6241 90.1809C41.725 90.2656 42.7564 90.6643 43.5429 91.309C44.3294 91.9538 44.8223 92.8048 44.9378 93.7172C45.0279 94.6379 44.715 95.5547 44.0562 96.2993C43.3975 97.0439 42.4373 97.5665 41.3517 97.771C35.8167 98.806 30.2297 99.647 24.6688 100.553L24.5649 100.186Z" fill="#FD7A3F" fill-opacity="0.56"/>
<path d="M145.687 29.4372C144.991 34.4875 142.606 39.2754 138.801 43.2591C138.033 43.9848 137.06 44.5405 135.969 44.8763C135.485 45.0906 134.945 45.2032 134.396 45.204C133.848 45.2048 133.307 45.0939 132.822 44.881C132.338 44.6682 131.923 44.3598 131.615 43.9831C131.308 43.6063 131.116 43.1726 131.057 42.72C130.732 41.0634 130.732 39.3741 131.057 37.7174C131.837 34.2889 132.85 30.9035 133.942 27.5181C134.266 26.3016 135.124 25.2285 136.349 24.5073C137.573 23.7861 139.077 23.4681 140.568 23.6152C142.16 23.8531 143.58 24.5909 144.533 25.6751C145.487 26.7594 145.9 28.1067 145.687 29.4372Z" fill="#FD7A3F" fill-opacity="0.56"/>
<path d="M182.132 36.6172C179.595 41.2447 175.548 45.1914 170.448 48.0108C169.448 48.5053 168.316 48.7857 167.153 48.8268C166.613 48.9072 166.057 48.8765 165.535 48.7373C165.013 48.5981 164.54 48.3547 164.158 48.0284C163.776 47.7022 163.496 47.3031 163.343 46.866C163.19 46.429 163.168 45.9675 163.281 45.5219C163.587 43.8628 164.214 42.2555 165.138 40.7622C167.153 37.6991 169.374 34.7366 171.669 31.7941C172.43 30.7194 173.645 29.9174 175.077 29.5436C176.51 29.1699 178.059 29.2511 179.423 29.7716C180.849 30.4041 181.927 31.4685 182.431 32.7433C182.936 34.0182 182.829 35.4056 182.132 36.6172Z" fill="#702904" fill-opacity="0.4"/>
<path d="M10.1975 63.8526C8.05147 63.618 5.9252 63.2723 3.83107 62.8176C2.71632 62.5573 1.74352 61.9865 1.07626 61.2011C0.408995 60.4158 0.0879501 59.4637 0.167054 58.505C0.211147 57.5482 0.659796 56.6349 1.43431 55.9252C2.20882 55.2154 3.25975 54.7547 4.40276 54.6237C9.96373 53.9983 15.5766 53.6102 21.1636 53.1143H21.3975C23.7622 53.5886 26.5946 53.4161 27.5821 55.8959C28.1797 57.4053 26.2308 59.885 23.3984 61.0494C19.2517 62.6688 14.772 63.6201 10.1975 63.8526Z" fill="#965B08" fill-opacity="0.12"/>
<path d="M56.9212 50.3304C50.9982 49.9926 45.2512 48.5162 40.1344 46.0178C39.0995 45.5264 38.2998 44.7547 37.8692 43.8321C37.4387 42.9095 37.4035 41.8921 37.7696 40.9505C38.109 39.9803 38.8096 39.124 39.7712 38.5043C40.7327 37.8846 41.9059 37.5332 43.1227 37.5004C43.586 37.4243 44.0627 37.4243 44.526 37.5004C50.1389 39.1608 56.0637 40.2389 60.923 43.3871C62.742 44.5731 64.1193 45.9747 63.2617 48.0232C62.4042 50.0717 60.3513 50.352 58.0646 50.1795L56.9212 50.3304Z" fill="#965B08" fill-opacity="0.12"/>
<path d="M146.336 93.888C145.455 93.8181 144.584 93.6736 143.738 93.4567C138.546 91.9735 133.913 89.3861 130.303 85.9528C129.564 85.4397 129.057 84.734 128.863 83.9508C128.67 83.1676 128.802 82.3531 129.238 81.6402C130.381 79.9367 132.252 79.872 134.435 80.1092C139.465 80.6827 144.332 81.9971 148.805 83.9905C149.421 84.2669 150.019 84.5692 150.598 84.8962C151.714 85.447 152.576 86.2917 153.047 87.2959C153.518 88.3 153.571 89.406 153.197 90.4379C152.704 91.5787 151.753 92.5441 150.504 93.1723C149.255 93.8004 147.783 94.0531 146.336 93.888Z" fill="#FD7A3F" fill-opacity="0.56"/>
<path d="M106.111 6.38708C106.111 5.93426 106.111 5.48142 106.111 5.0286C106.113 4.08066 106.491 3.15966 107.188 2.40808C107.884 1.6565 108.859 1.11622 109.962 0.870745C111.066 0.625274 112.236 0.68829 113.292 1.0501C114.348 1.4119 115.231 2.05233 115.804 2.8723C118.376 6.32186 119.354 10.4278 118.558 14.4301C118.249 16.095 117.823 17.7437 117.285 19.368C117.197 19.9229 116.923 20.446 116.493 20.8772C116.063 21.3085 115.495 21.6304 114.855 21.806C114.214 21.9817 113.527 22.0039 112.872 21.8701C112.217 21.7364 111.621 21.4521 111.152 21.0499C109.606 19.8841 108.466 18.3945 107.852 16.7373C106.865 13.3735 106.475 9.85871 105.825 6.40863L106.111 6.38708Z" fill="#965B08" fill-opacity="0.12"/>
<path d="M93.4818 41.1669C93.4818 45.4795 92.0007 46.6224 87.9729 46.0402C86.6699 45.8756 85.4421 45.4294 84.4128 44.7464C80.1368 41.5444 77.52 37.0935 77.1107 32.3261C77.0605 31.6049 77.2423 30.8856 77.6373 30.2418C78.0323 29.5981 78.6264 29.053 79.3588 28.6625C80.0912 28.2719 80.9355 28.05 81.8053 28.0193C82.6751 27.9886 83.5391 28.1504 84.3088 28.4879C85.5984 28.9519 86.7445 29.6522 87.661 30.5364C90.7577 33.5603 92.7738 37.2424 93.4818 41.1669Z" fill="#FD7A3F" fill-opacity="0.56"/>
<path d="M155.771 120.735C155.771 124.918 151.821 127.376 148.209 125.845C146.202 125.004 144.545 123.682 143.454 122.05C141.066 118.446 139.848 114.389 139.92 110.277C139.838 109.722 139.95 109.158 140.244 108.655C140.538 108.151 141 107.728 141.576 107.437C142.152 107.146 142.816 106.998 143.49 107.013C144.164 107.027 144.819 107.202 145.377 107.517L146 107.797C151.665 111.204 153.796 116.336 155.771 120.735Z" fill="#953C04" fill-opacity="0.4"/>
<path d="M58.2195 119.529C57.4154 119.61 56.5995 119.515 55.8543 119.251C55.1091 118.987 54.4611 118.565 53.9759 118.026C53.4906 117.488 53.1854 116.853 53.0909 116.185C52.9965 115.518 53.1163 114.841 53.4381 114.224C53.9418 113.132 54.7421 112.15 55.7768 111.356C59.7786 108.575 63.8065 105.793 68.0681 103.292C70.6667 101.696 72.9794 101.825 74.2787 103.076C76.0458 104.823 75.0843 106.591 73.889 108.122C70.5897 112.308 66.248 115.86 61.1559 118.537C60.2203 118.949 59.2364 119.282 58.2195 119.529Z" fill="#FD7A3F" fill-opacity="0.56"/>
<path d="M50.1893 76.8773C48.0857 76.8211 45.9869 76.6772 43.9007 76.4461C42.7311 76.2731 41.6634 75.7837 40.8643 75.0543C40.0651 74.3249 39.5795 73.3964 39.4832 72.4138C39.3598 71.4305 39.6601 70.4427 40.3308 69.6256C41.0015 68.8086 41.9993 68.215 43.1472 67.9503C49.1903 66.4521 55.6718 66.734 61.4932 68.7481C62.3144 68.9823 63.029 69.4202 63.5403 70.0026C64.0516 70.585 64.3348 71.2837 64.3516 72.0041C64.3757 72.7336 64.0893 73.4468 63.5428 74.0185C62.9963 74.5903 62.2247 74.984 61.3632 75.1307C57.7252 75.9501 54.0352 76.5754 50.3452 77.287L50.1893 76.8773Z" fill="#702904" fill-opacity="0.4"/>
<path d="M178.223 70.6864C179.626 70.6864 181.03 70.6864 182.433 70.6864C183.273 70.6834 184.105 70.8197 184.881 71.0871C185.657 71.3545 186.361 71.7477 186.952 72.2438C187.542 72.7398 188.008 73.3286 188.32 73.9758C188.633 74.6229 188.787 75.3153 188.773 76.0125C188.728 76.6948 188.517 77.3626 188.154 77.976C187.791 78.5894 187.282 79.1357 186.659 79.5825C186.036 80.0293 185.31 80.3672 184.526 80.5763C183.742 80.7854 182.915 80.8613 182.095 80.7994C178.905 80.8215 175.717 80.6485 172.558 80.2819C170.69 79.9671 168.921 79.3358 167.361 78.4275C166.732 78.1443 166.206 77.7254 165.84 77.2149C165.474 76.7044 165.28 76.1214 165.28 75.5273C165.28 74.9332 165.474 74.3501 165.84 73.8397C166.206 73.3292 166.732 72.9103 167.361 72.6271C170.561 70.874 174.437 70.1814 178.223 70.6864Z" fill="#FD7A3F" fill-opacity="0.56"/>
<path d="M89.6356 69.0496C88.661 68.9273 87.7035 68.7251 86.7771 68.4458C83.4769 67.2598 80.2027 66.0092 77.0065 64.6723C76.0095 64.2479 75.1257 63.6612 74.4079 62.9472C73.6302 62.2851 73.1295 61.433 72.9797 60.5167C72.83 59.6004 73.0392 58.6685 73.5763 57.8584C73.9948 57.0291 74.7303 56.3371 75.6694 55.889C76.6086 55.4409 77.6994 55.2616 78.7735 55.3786C81.5795 55.6128 84.2963 56.3278 86.752 57.4785C89.2078 58.6291 91.3488 60.1903 93.0397 62.0631C93.4815 62.516 93.8193 63.0335 94.2091 63.5079C96.5738 66.2895 95.5863 68.2949 91.6105 68.8771C90.9562 68.9623 90.297 69.0199 89.6356 69.0496Z" fill="#FD7A3F" fill-opacity="0.56"/>
<path d="M122.067 138.825C121.91 137.794 121.91 136.751 122.067 135.72C122.405 134.685 122.976 133.24 123.912 132.938C124.589 132.803 125.294 132.792 125.976 132.908C126.659 133.023 127.302 133.262 127.862 133.606C130.559 135.318 132.467 137.746 133.267 140.485C133.868 142.618 134.319 144.778 134.618 146.954C134.763 147.58 134.754 148.223 134.591 148.846C134.428 149.469 134.115 150.058 133.671 150.578C133.227 151.098 132.66 151.537 132.006 151.871C131.351 152.204 130.622 152.424 129.862 152.517C129.08 152.614 128.282 152.578 127.517 152.411C126.751 152.244 126.035 151.95 125.411 151.547C124.786 151.144 124.267 150.64 123.884 150.065C123.502 149.491 123.263 148.858 123.184 148.205C122.534 145.099 122.223 141.93 121.755 138.782L122.067 138.825Z" fill="#702904" fill-opacity="0.4"/>
<path d="M139.322 69.1761C136.567 68.8958 134.125 68.8096 131.786 68.3783C130.721 68.1842 129.187 67.4511 129.005 66.7395C128.863 66.2005 128.873 65.6414 129.035 65.1062C129.197 64.5711 129.508 64.0746 129.941 63.656C132.278 62.0357 134.909 60.733 137.737 59.7962C140.47 59.0581 143.335 58.7152 146.208 58.7828C147.601 58.7226 148.968 59.114 150.021 59.8744C151.073 60.6348 151.728 61.7046 151.847 62.8582C152.054 64.0323 151.707 65.2274 150.88 66.1951C150.052 67.1628 148.807 67.8289 147.403 68.0548C144.597 68.637 141.79 68.8311 139.322 69.1761Z" fill="#FD7A3F" fill-opacity="0.56"/>
<path d="M107.982 124.981C107.202 128.065 106.657 130.997 105.695 133.865C105.471 135.033 104.702 136.081 103.555 136.783C102.407 137.485 100.973 137.785 99.5624 137.617C98.1506 137.426 96.8773 136.801 95.9961 135.866C95.1149 134.931 94.6904 133.754 94.8071 132.571C95.0849 128.159 96.8893 123.907 100.004 120.324C100.359 119.844 100.869 119.456 101.476 119.203C102.083 118.951 102.762 118.845 103.438 118.896C104.114 118.948 104.759 119.155 105.3 119.495C105.841 119.835 106.257 120.294 106.501 120.82C107.154 122.164 107.65 123.558 107.982 124.981Z" fill="#FD7A3F" fill-opacity="0.56"/>
<path d="M173.674 151.658C173.697 152.544 173.401 153.417 172.822 154.162C172.243 154.908 171.408 155.492 170.425 155.841C169.386 156.257 168.202 156.351 167.087 156.106C165.972 155.86 164.999 155.292 164.345 154.504C162.399 152.094 160.729 149.538 159.355 146.871C158.397 144.954 157.758 142.937 157.458 140.876C157.355 140.342 157.392 139.796 157.567 139.275C157.742 138.754 158.051 138.27 158.472 137.857C159.07 137.651 159.723 137.579 160.366 137.647C161.009 137.715 161.619 137.921 162.136 138.246C166.008 142.105 169.594 146.159 173.232 150.191C173.491 150.652 173.641 151.15 173.674 151.658Z" fill="#FD7A3F" fill-opacity="0.56"/>
<path d="M202.569 58.9595C200.282 58.6576 198.437 58.2263 197.528 56.5013C197.141 55.7416 197.056 54.8993 197.285 54.0967C197.514 53.2942 198.045 52.573 198.801 52.0378C201.912 49.359 205.893 47.4865 210.261 46.647C211.74 46.2793 213.332 46.3964 214.71 46.9741C216.088 47.5518 217.146 48.5461 217.667 49.7521C217.891 50.3609 217.968 51.0004 217.893 51.6339C217.818 52.2673 217.593 52.8823 217.231 53.4434C216.868 54.0044 216.376 54.5006 215.782 54.9032C215.188 55.3059 214.504 55.6072 213.769 55.7897C210.131 57.0188 206.311 57.9244 202.569 58.9595Z" fill="#953C04" fill-opacity="0.4"/>
<path d="M27.6086 136.456C26.7552 136.529 25.8942 136.404 25.1209 136.096C24.3476 135.788 23.6921 135.308 23.2269 134.71C22.7616 134.112 22.5048 133.419 22.4847 132.707C22.4646 131.995 22.682 131.293 23.113 130.678C24.6859 128.652 26.8427 126.984 29.3881 125.824C31.9336 124.665 34.7873 124.05 37.6911 124.036C38.3239 124.036 38.945 124.177 39.4887 124.446C40.0324 124.715 40.4783 125.101 40.7793 125.563C41.0802 126.025 41.225 126.545 41.1983 127.07C41.1716 127.595 40.9744 128.104 40.6275 128.543C37.7686 131.991 33.7456 134.662 29.0638 136.219C28.5917 136.346 28.1032 136.425 27.6086 136.456Z" fill="#702904" fill-opacity="0.4"/>
<path d="M214.759 86.4521C217.773 86.8187 220.891 87.0991 223.932 87.6166C224.602 87.6847 225.249 87.865 225.833 88.1468C226.417 88.4285 226.926 88.8058 227.33 89.2556C227.733 89.7055 228.021 90.2186 228.178 90.7639C228.335 91.3091 228.357 91.8751 228.243 92.4276C228.128 92.9801 227.88 93.5075 227.512 93.9779C227.145 94.4483 226.666 94.8519 226.105 95.1642C225.544 95.4765 224.912 95.691 224.248 95.7947C223.585 95.8984 222.902 95.8891 222.243 95.7674C218.593 94.898 215.002 93.8688 211.485 92.6839C210.442 92.4117 209.465 91.9882 208.6 91.4332C207.821 90.8294 206.911 89.8591 207.015 89.1475C207.158 88.7066 207.426 88.3005 207.797 87.963C208.168 87.6254 208.63 87.3662 209.146 87.2069C210.988 86.8265 212.866 86.5741 214.759 86.4521Z" fill="#965B08" fill-opacity="0.12"/>
<path d="M98.7589 155.623C98.447 158.34 98.2911 160.475 97.9533 162.588C97.9404 163.207 97.7773 163.818 97.4739 164.384C97.1706 164.949 96.7331 165.459 96.1875 165.881C95.6419 166.304 94.9995 166.631 94.2984 166.843C93.5972 167.055 92.8518 167.148 92.1065 167.116C91.3647 167.053 90.6468 166.862 89.9987 166.556C89.3505 166.249 88.7861 165.835 88.3413 165.338C87.8966 164.841 87.5812 164.273 87.4152 163.67C87.2492 163.066 87.2362 162.441 87.3771 161.833C87.9866 158.095 89.8709 154.578 92.8081 151.699C93.1009 151.343 93.5077 151.063 93.9825 150.889C94.4573 150.716 94.9812 150.656 95.4949 150.716C96.0086 150.777 96.4916 150.956 96.8893 151.232C97.287 151.509 97.5835 151.872 97.7454 152.281C98.2302 153.361 98.5701 154.482 98.7589 155.623Z" fill="#FD7A3F" fill-opacity="0.56"/>
</g>
</svg>
