<svg width="188" height="74" viewBox="0 0 188 74" fill="none" xmlns="http://www.w3.org/2000/svg">
<g opacity="0.38">
<path d="M115.335 68.2093C129.446 67.1527 127.159 83.8424 116.037 83.9287C104.499 84.3599 101.615 67.8858 115.335 68.2093Z" fill="#91F491" fill-opacity="0.67"/>
<path d="M116.557 50.7833C116.349 53.1121 116.245 55.4409 115.933 57.7482C115.809 58.7145 115.484 59.6557 114.972 60.5298C114.607 61.3255 113.954 62.0078 113.102 62.4828C112.25 62.9578 111.242 63.2021 110.216 63.182C109.22 63.2215 108.237 62.9782 107.429 62.4922C106.621 62.0062 106.037 61.3064 105.773 60.5082C104.893 58.0287 104.284 55.4883 103.954 52.9181C103.733 50.6577 103.733 48.3861 103.954 46.1257C103.929 45.4234 104.076 44.7241 104.386 44.0703C104.697 43.4165 105.163 42.8217 105.759 42.3218C106.354 41.822 107.065 41.4274 107.849 41.1621C108.633 40.8968 109.474 40.7661 110.32 40.7781C111.165 40.8003 111.995 40.9611 112.764 41.2512C113.533 41.5413 114.225 41.9549 114.8 42.4681C115.375 42.9814 115.822 43.5842 116.114 44.2416C116.407 44.899 116.54 45.598 116.505 46.2982C116.505 47.7861 116.505 49.2739 116.505 50.7618L116.557 50.7833Z" fill="#91F491" fill-opacity="0.67"/>
<path d="M145.687 29.4372C144.991 34.4875 142.606 39.2754 138.801 43.2591C138.033 43.9848 137.06 44.5405 135.969 44.8763C135.485 45.0906 134.945 45.2032 134.396 45.204C133.848 45.2048 133.307 45.0939 132.822 44.881C132.338 44.6682 131.923 44.3598 131.615 43.9831C131.308 43.6063 131.116 43.1726 131.057 42.72C130.732 41.0634 130.732 39.3741 131.057 37.7174C131.837 34.2889 132.85 30.9035 133.942 27.5181C134.266 26.3016 135.124 25.2285 136.349 24.5073C137.573 23.7861 139.077 23.4681 140.568 23.6152C142.16 23.8531 143.58 24.5909 144.533 25.6751C145.487 26.7594 145.9 28.1067 145.687 29.4372Z" fill="#F68E5F" fill-opacity="0.64"/>
<path d="M182.132 36.6172C179.595 41.2447 175.548 45.1914 170.448 48.0108C169.448 48.5053 168.316 48.7857 167.153 48.8268C166.613 48.9072 166.057 48.8765 165.535 48.7373C165.013 48.5981 164.54 48.3547 164.158 48.0284C163.776 47.7022 163.496 47.3031 163.343 46.866C163.19 46.429 163.168 45.9675 163.281 45.5219C163.587 43.8628 164.214 42.2555 165.138 40.7622C167.153 37.6991 169.374 34.7366 171.669 31.7941C172.43 30.7194 173.645 29.9174 175.077 29.5436C176.51 29.1699 178.059 29.2511 179.423 29.7716C180.849 30.4041 181.927 31.4685 182.431 32.7433C182.936 34.0182 182.829 35.4056 182.132 36.6172Z" fill="#9072FD" fill-opacity="0.51"/>
<path d="M10.1975 63.8526C8.05147 63.618 5.9252 63.2723 3.83107 62.8176C2.71632 62.5573 1.74352 61.9865 1.07626 61.2011C0.408995 60.4158 0.0879501 59.4637 0.167054 58.505C0.211147 57.5482 0.659796 56.6349 1.43431 55.9252C2.20882 55.2154 3.25975 54.7547 4.40276 54.6237C9.96373 53.9983 15.5766 53.6102 21.1636 53.1143H21.3975C23.7622 53.5886 26.5946 53.4161 27.5821 55.8959C28.1797 57.4053 26.2308 59.885 23.3984 61.0494C19.2517 62.6688 14.772 63.6201 10.1975 63.8526Z" fill="black" fill-opacity="0.12"/>
<path d="M56.9212 50.3304C50.9982 49.9926 45.2512 48.5162 40.1344 46.0178C39.0995 45.5264 38.2998 44.7547 37.8692 43.8321C37.4387 42.9095 37.4035 41.8921 37.7696 40.9505C38.109 39.9803 38.8096 39.124 39.7712 38.5043C40.7327 37.8846 41.9059 37.5332 43.1227 37.5004C43.586 37.4243 44.0627 37.4243 44.526 37.5004C50.1389 39.1608 56.0637 40.2389 60.923 43.3871C62.742 44.5731 64.1193 45.9747 63.2617 48.0232C62.4042 50.0717 60.3513 50.352 58.0646 50.1795L56.9212 50.3304Z" fill="black" fill-opacity="0.12"/>
<path d="M106.111 6.38708C106.111 5.93426 106.111 5.48142 106.111 5.0286C106.113 4.08066 106.491 3.15966 107.188 2.40808C107.884 1.6565 108.859 1.11622 109.962 0.870745C111.066 0.625274 112.236 0.68829 113.292 1.0501C114.348 1.4119 115.231 2.05233 115.804 2.8723C118.376 6.32186 119.354 10.4278 118.558 14.4301C118.249 16.095 117.823 17.7437 117.285 19.368C117.197 19.9229 116.923 20.446 116.493 20.8772C116.063 21.3085 115.495 21.6304 114.855 21.806C114.214 21.9817 113.527 22.0039 112.872 21.8701C112.217 21.7364 111.621 21.4521 111.152 21.0499C109.606 19.8841 108.466 18.3945 107.852 16.7373C106.865 13.3735 106.475 9.85871 105.825 6.40863L106.111 6.38708Z" fill="black" fill-opacity="0.12"/>
<path d="M93.4818 41.1669C93.4818 45.4795 92.0007 46.6224 87.9729 46.0402C86.6699 45.8756 85.4421 45.4294 84.4128 44.7464C80.1368 41.5444 77.52 37.0935 77.1107 32.3261C77.0605 31.6049 77.2423 30.8856 77.6373 30.2418C78.0323 29.5981 78.6264 29.053 79.3588 28.6625C80.0912 28.2719 80.9355 28.05 81.8053 28.0193C82.6751 27.9886 83.5391 28.1504 84.3088 28.4879C85.5984 28.9519 86.7445 29.6522 87.661 30.5364C90.7577 33.5603 92.7738 37.2424 93.4818 41.1669Z" fill="#F68E5F" fill-opacity="0.64"/>
<path d="M50.1893 76.8773C48.0857 76.8211 45.9869 76.6772 43.9007 76.4461C42.7311 76.2731 41.6634 75.7837 40.8643 75.0543C40.0651 74.3249 39.5795 73.3964 39.4832 72.4138C39.3598 71.4305 39.6601 70.4427 40.3308 69.6256C41.0015 68.8086 41.9993 68.215 43.1472 67.9503C49.1903 66.4521 55.6718 66.734 61.4932 68.7481C62.3144 68.9823 63.029 69.4202 63.5403 70.0026C64.0516 70.585 64.3348 71.2837 64.3516 72.0041C64.3757 72.7336 64.0893 73.4468 63.5428 74.0185C62.9963 74.5903 62.2247 74.984 61.3632 75.1307C57.7252 75.9501 54.0352 76.5754 50.3452 77.287L50.1893 76.8773Z" fill="#9072FD" fill-opacity="0.51"/>
<path d="M178.223 70.6864C179.626 70.6864 181.03 70.6864 182.433 70.6864C183.273 70.6834 184.105 70.8197 184.881 71.0871C185.657 71.3545 186.361 71.7477 186.952 72.2438C187.542 72.7398 188.008 73.3286 188.32 73.9758C188.633 74.6229 188.787 75.3153 188.773 76.0125C188.728 76.6948 188.517 77.3626 188.154 77.976C187.791 78.5894 187.282 79.1357 186.659 79.5825C186.036 80.0293 185.31 80.3672 184.526 80.5763C183.742 80.7854 182.915 80.8613 182.095 80.7994C178.905 80.8215 175.717 80.6485 172.558 80.2819C170.69 79.9671 168.921 79.3358 167.361 78.4275C166.732 78.1443 166.206 77.7254 165.84 77.2149C165.474 76.7044 165.28 76.1214 165.28 75.5273C165.28 74.9332 165.474 74.3501 165.84 73.8397C166.206 73.3292 166.732 72.9103 167.361 72.6271C170.561 70.874 174.437 70.1814 178.223 70.6864Z" fill="#F68E5F" fill-opacity="0.64"/>
<path d="M89.6356 69.0496C88.661 68.9273 87.7035 68.7251 86.7771 68.4458C83.4769 67.2598 80.2027 66.0092 77.0065 64.6723C76.0095 64.2479 75.1257 63.6612 74.4079 62.9472C73.6302 62.2851 73.1295 61.433 72.9797 60.5167C72.83 59.6004 73.0392 58.6685 73.5763 57.8584C73.9948 57.0291 74.7303 56.3371 75.6694 55.889C76.6086 55.4409 77.6994 55.2616 78.7735 55.3786C81.5795 55.6128 84.2963 56.3278 86.752 57.4785C89.2078 58.6291 91.3488 60.1903 93.0397 62.0631C93.4815 62.516 93.8193 63.0335 94.2091 63.5079C96.5738 66.2895 95.5863 68.2949 91.6105 68.8771C90.9562 68.9623 90.297 69.0199 89.6356 69.0496Z" fill="#F68E5F" fill-opacity="0.64"/>
<path d="M139.322 69.1761C136.567 68.8958 134.125 68.8096 131.786 68.3783C130.721 68.1842 129.187 67.4511 129.005 66.7395C128.863 66.2005 128.873 65.6414 129.035 65.1062C129.197 64.5711 129.508 64.0746 129.941 63.656C132.278 62.0357 134.909 60.733 137.737 59.7962C140.47 59.0581 143.335 58.7152 146.208 58.7828C147.601 58.7226 148.968 59.114 150.021 59.8744C151.073 60.6348 151.728 61.7046 151.847 62.8582C152.054 64.0323 151.707 65.2274 150.88 66.1951C150.052 67.1628 148.807 67.8289 147.403 68.0548C144.597 68.637 141.79 68.8311 139.322 69.1761Z" fill="#F68E5F" fill-opacity="0.64"/>
</g>
</svg>
