<svg width="229" height="142" viewBox="0 0 229 142" fill="none" xmlns="http://www.w3.org/2000/svg">
<g opacity="0.38">
<path d="M191.39 135.335C214.836 133.216 211.036 166.687 192.556 166.859C173.384 167.724 168.591 134.687 191.39 135.335Z" fill="#084EAA" fill-opacity="0.15"/>
<path d="M193.418 100.395C193.072 105.065 192.899 109.735 192.381 114.362C192.174 116.3 191.634 118.188 190.784 119.941C190.177 121.537 189.092 122.905 187.676 123.857C186.261 124.81 184.586 125.3 182.882 125.26C181.226 125.339 179.592 124.851 178.25 123.876C176.908 122.902 175.938 121.498 175.498 119.898C174.036 114.925 173.024 109.831 172.476 104.676C172.108 100.143 172.108 95.5875 172.476 91.0544C172.435 89.6459 172.679 88.2436 173.195 86.9325C173.71 85.6213 174.486 84.4285 175.474 83.426C176.463 82.4236 177.645 81.6323 178.948 81.1002C180.251 80.5681 181.648 80.3061 183.055 80.3301C184.457 80.3746 185.837 80.6971 187.115 81.2788C188.392 81.8606 189.542 82.69 190.497 83.7194C191.453 84.7487 192.195 85.9575 192.682 87.2759C193.168 88.5943 193.389 89.9961 193.331 91.4003C193.331 94.3841 193.331 97.3679 193.331 100.352L193.418 100.395Z" fill="#E8F1FD" fill-opacity="0.5"/>
<path d="M241.821 57.585C240.665 67.713 236.701 77.3147 230.379 85.3038C229.103 86.7591 227.486 87.8736 225.672 88.5471C224.868 88.9769 223.971 89.2025 223.06 89.2041C222.148 89.2058 221.25 88.9834 220.445 88.5565C219.639 88.1296 218.95 87.5113 218.439 86.7557C217.927 86.0001 217.609 85.1303 217.511 84.2228C216.971 80.9005 216.971 77.5127 217.511 74.1904C218.807 67.3147 220.491 60.5255 222.304 53.7364C222.844 51.2966 224.269 49.1447 226.304 47.6983C228.339 46.2519 230.837 45.6143 233.315 45.9094C235.96 46.3865 238.32 47.866 239.904 50.0403C241.488 52.2147 242.175 54.9168 241.821 57.585Z" fill="#C4F6FF" fill-opacity="0.28"/>
<path d="M16.6857 126.6C13.1197 126.13 9.58658 125.437 6.10688 124.525C4.25457 124.003 2.63812 122.858 1.52937 121.283C0.420619 119.708 -0.112844 117.799 0.0185993 115.876C0.0918648 113.957 0.83736 112.126 2.12432 110.702C3.41129 109.279 5.15756 108.355 7.05683 108.092C16.2972 106.838 25.6238 106.06 34.9073 105.065H35.2961C39.2254 106.017 43.9318 105.671 45.5726 110.644C46.5657 113.671 43.3274 118.644 38.6208 120.979C31.7304 124.226 24.2868 126.134 16.6857 126.6Z" fill="#0385FF" fill-opacity="0.12"/>
<path d="M94.3213 99.4867C84.4795 98.8093 74.93 95.8484 66.4276 90.8381C64.7081 89.8526 63.3792 88.305 62.6638 86.4548C61.9484 84.6046 61.8899 82.5642 62.4983 80.676C63.0622 78.7303 64.2263 77.0131 65.8241 75.7703C67.4218 74.5275 69.3712 73.8228 71.3932 73.7571C72.1629 73.6044 72.9551 73.6044 73.7249 73.7571C83.0516 77.0868 92.8964 79.2489 100.971 85.5624C103.993 87.9408 106.282 90.7516 104.857 94.8597C103.432 98.9678 100.021 99.53 96.2212 99.184L94.3213 99.4867Z" fill="#0385FF" fill-opacity="0.12"/>
<path d="M176.06 11.3577C176.06 10.4496 176.06 9.54143 176.06 8.63332C176.063 6.73229 176.692 4.88529 177.849 3.37805C179.006 1.8708 180.626 0.7873 182.46 0.295024C184.293 -0.197253 186.237 -0.0708771 187.992 0.654701C189.746 1.38028 191.213 2.66461 192.166 4.30901C196.439 11.2269 198.065 19.4611 196.743 27.4873C196.228 30.8262 195.522 34.1326 194.627 37.39C194.481 38.5028 194.025 39.5518 193.311 40.4167C192.596 41.2816 191.653 41.9271 190.589 42.2794C189.525 42.6316 188.383 42.6761 187.295 42.4079C186.207 42.1397 185.216 41.5695 184.437 40.7629C181.867 38.4251 179.973 35.4378 178.953 32.1143C177.312 25.3684 176.664 18.3198 175.585 11.4009L176.06 11.3577Z" fill="#0385FF" fill-opacity="0.12"/>
<path d="M155.075 81.1085C155.075 89.7571 152.614 92.049 145.921 90.8814C143.756 90.5514 141.716 89.6565 140.005 88.2868C132.9 81.8654 128.552 72.9394 127.872 63.3788C127.789 61.9325 128.091 60.4899 128.747 59.1989C129.403 57.9079 130.39 56.8148 131.607 56.0316C132.824 55.2484 134.227 54.8033 135.673 54.7417C137.118 54.6802 138.554 55.0046 139.833 55.6816C141.975 56.6119 143.88 58.0165 145.403 59.7896C150.548 65.8539 153.899 73.2381 155.075 81.1085Z" fill="#C4F6FF" fill-opacity="0.28"/>
<path d="M83.1386 152.719C79.6432 152.607 76.1556 152.318 72.6891 151.855C70.7457 151.508 68.9716 150.526 67.6437 149.063C66.3158 147.601 65.5089 145.739 65.3487 143.768C65.1438 141.796 65.6428 139.815 66.7573 138.177C67.8717 136.538 69.5297 135.348 71.437 134.817C81.4786 131.812 92.2486 132.378 101.922 136.417C103.286 136.886 104.474 137.765 105.323 138.933C106.173 140.101 106.643 141.502 106.671 142.947C106.711 144.409 106.235 145.84 105.327 146.986C104.419 148.133 103.137 148.923 101.706 149.217C95.6605 150.86 89.5291 152.114 83.3976 153.541L83.1386 152.719Z" fill="#ADEEFD" fill-opacity="0.49"/>
<path d="M148.685 137.021C147.066 136.776 145.475 136.37 143.935 135.81C138.452 133.432 133.011 130.924 127.7 128.243C126.043 127.392 124.575 126.215 123.382 124.783C122.09 123.455 121.258 121.747 121.009 119.909C120.76 118.072 121.108 116.203 122 114.578C122.696 112.915 123.918 111.527 125.478 110.629C127.039 109.73 128.851 109.37 130.636 109.605C135.299 110.075 139.813 111.509 143.894 113.816C147.974 116.124 151.532 119.255 154.341 123.01C155.076 123.919 155.637 124.956 156.285 125.908C160.214 131.486 158.573 135.508 151.967 136.675C150.879 136.846 149.784 136.962 148.685 137.021Z" fill="#C4F6FF" fill-opacity="0.28"/>
<path d="M231.243 137.282C226.666 136.72 222.607 136.547 218.721 135.682C216.951 135.293 214.403 133.822 214.101 132.395C213.864 131.314 213.88 130.193 214.15 129.12C214.42 128.047 214.935 127.051 215.656 126.212C219.538 122.962 223.91 120.35 228.609 118.471C233.15 116.991 237.912 116.303 242.686 116.439C245.001 116.318 247.272 117.103 249.021 118.628C250.769 120.153 251.857 122.298 252.056 124.612C252.399 126.966 251.823 129.363 250.448 131.304C249.073 133.244 247.005 134.58 244.672 135.033C240.009 136.201 235.345 136.59 231.243 137.282Z" fill="#C4F6FF" fill-opacity="0.28"/>
</g>
</svg>
