<svg width="368" height="311" viewBox="0 0 368 311" fill="none" xmlns="http://www.w3.org/2000/svg">
<g opacity="0.44">
<path d="M186.097 155.171C212.926 152.747 208.578 191.046 187.431 191.244C165.493 192.233 160.009 154.429 186.097 155.171Z" fill="#AA6708" fill-opacity="0.35"/>
<path d="M188.419 115.19C188.024 120.534 187.826 125.878 187.233 131.173C186.997 133.39 186.378 135.55 185.405 137.556C184.711 139.382 183.469 140.948 181.85 142.038C180.23 143.128 178.314 143.688 176.363 143.642C174.468 143.733 172.599 143.175 171.064 142.059C169.528 140.944 168.417 139.338 167.914 137.507C166.241 131.817 165.083 125.987 164.456 120.089C164.036 114.902 164.036 109.689 164.456 104.502C164.409 102.89 164.689 101.286 165.278 99.7856C165.868 98.2853 166.756 96.9203 167.887 95.7733C169.019 94.6262 170.371 93.7208 171.862 93.1119C173.352 92.503 174.951 92.2033 176.561 92.2307C178.166 92.2817 179.745 92.6506 181.207 93.3163C182.669 93.982 183.984 94.9311 185.078 96.109C186.171 97.2868 187.021 98.67 187.577 100.179C188.134 101.687 188.386 103.291 188.32 104.898C188.32 108.312 188.32 111.727 188.32 115.141L188.419 115.19Z" fill="#D9CC99" fill-opacity="0.5"/>
<path d="M186.195 221.28C186.591 216.332 186.838 211.384 187.431 206.683C187.557 205.07 188.223 203.548 189.321 202.363C190.42 201.177 191.886 200.398 193.482 200.152C195.078 199.905 196.71 200.206 198.114 201.005C199.518 201.805 200.611 203.056 201.216 204.555C206.817 216.736 210.085 229.861 210.85 243.25C211.174 245.635 210.648 248.059 209.365 250.095C208.082 252.131 206.124 253.649 203.834 254.383C201.414 255.257 198.749 255.152 196.406 254.089C194.062 253.027 192.225 251.091 191.284 248.693C189.219 241.62 187.651 234.411 186.591 227.119C186.417 225.193 186.417 223.255 186.591 221.329L186.195 221.28Z" fill="#E0A045" fill-opacity="0.28"/>
<path d="M166.728 213.511C166.173 225.146 161.875 236.29 154.475 245.278C151.775 248.159 148.194 250.057 144.296 250.671C142.494 250.79 140.692 250.431 139.072 249.631C137.452 248.83 136.072 247.616 135.07 246.111C134.068 244.605 133.48 242.862 133.365 241.057C133.25 239.251 133.612 237.447 134.415 235.827C139.039 224.035 146.132 213.372 155.216 204.554C156.196 203.752 157.35 203.191 158.585 202.916C159.821 202.641 161.104 202.66 162.331 202.971C164.406 203.961 165.542 207.078 166.728 209.453C166.984 210.793 166.984 212.17 166.728 213.511Z" fill="#FF9703" fill-opacity="0.2"/>
<path d="M311.941 241.122C323.582 242.487 334.304 248.129 342.03 256.956C343.337 258.528 344.159 260.448 344.395 262.48C344.631 264.512 344.271 266.569 343.359 268.4C342.448 270.231 341.024 271.757 339.261 272.791C337.499 273.825 335.474 274.324 333.433 274.225C330.183 274.198 326.972 273.508 323.996 272.196C317.128 268.436 310.557 264.032 303.986 259.727C302.69 258.749 301.585 257.542 300.725 256.164C299.634 254.958 298.909 253.467 298.635 251.863C298.36 250.26 298.548 248.611 299.175 247.111C299.802 245.61 300.844 244.32 302.177 243.39C303.51 242.461 305.08 241.932 306.703 241.864C308.334 241.567 309.915 241.418 311.941 241.122Z" fill="#E0A045" fill-opacity="0.28"/>
<path d="M106.695 207.177C104.404 207.437 102.09 206.964 100.084 205.826C98.0786 204.688 96.4838 202.944 95.5283 200.843C94.7133 198.983 94.4895 196.917 94.8872 194.925C95.285 192.934 96.2851 191.113 97.7518 189.71C98.1367 189.251 98.586 188.851 99.0858 188.522C111.054 181.578 124.359 177.261 138.119 175.855C144.394 175.508 147.111 180.407 144.394 186.147C143.905 187.243 143.255 188.261 142.467 189.165C132.535 200.15 118.751 203.614 106.695 207.177Z" fill="#D9CC99" fill-opacity="0.5"/>
<path d="M80.0645 324.499C80.2537 323.024 80.5678 321.567 81.0033 320.145C85.1971 308.93 92.8903 299.369 102.941 292.88C104.194 291.84 105.592 290.99 107.091 290.357C109.367 289.587 111.832 289.587 114.107 290.357C114.945 291.204 115.608 292.208 116.057 293.311C116.506 294.415 116.734 295.597 116.726 296.789C116.864 299.323 116.336 301.848 115.194 304.113C110.255 313.533 104.846 322.699 98.9881 331.575C98.2289 332.753 97.2212 333.751 96.0358 334.497C94.8504 335.244 93.5161 335.721 92.1267 335.895C90.7373 336.07 89.3268 335.938 87.994 335.507C86.6613 335.077 85.4387 334.36 84.4125 333.406C82.3269 330.892 80.5826 328.114 79.2246 325.142L80.0645 324.499Z" fill="#E0A045" fill-opacity="0.28"/>
<path d="M13.5099 228.553C11.7252 228.562 9.94207 228.447 8.17362 228.207C6.1978 228.013 4.33594 227.19 2.86092 225.86C1.38589 224.529 0.375322 222.76 -0.0225163 220.812C-0.420354 218.864 -0.184534 216.84 0.65028 215.036C1.48509 213.232 2.87494 211.744 4.61619 210.789C12.0585 206.646 20.4615 204.547 28.9747 204.703C34.0138 204.581 39.0545 204.879 44.0444 205.593C46.1376 205.788 48.0987 206.703 49.5942 208.182C51.0896 209.662 52.0268 211.615 52.2463 213.708C52.4177 215.821 51.8226 217.925 50.5702 219.634C49.3177 221.342 47.4919 222.542 45.4279 223.011C34.9038 225.386 24.2808 227.316 13.7074 229.394L13.5099 228.553Z" fill="#E0A045" fill-opacity="0.28"/>
<path d="M243.804 66.2039C242.481 77.7931 237.945 88.7801 230.711 97.9218C229.251 99.587 227.4 100.862 225.325 101.633C224.405 102.125 223.378 102.383 222.335 102.385C221.292 102.387 220.265 102.132 219.343 101.644C218.421 101.155 217.633 100.448 217.048 99.5831C216.463 98.7185 216.098 97.7233 215.987 96.6848C215.369 92.8832 215.369 89.0066 215.987 85.205C217.469 77.3374 219.396 69.5687 221.471 61.8001C222.089 59.0083 223.72 56.5459 226.048 54.8909C228.376 53.2359 231.235 52.5063 234.07 52.8439C237.097 53.3898 239.797 55.0827 241.61 57.5708C243.423 60.0589 244.209 63.1507 243.804 66.2039Z" fill="#E0A045" fill-opacity="0.28"/>
<path d="M313.105 82.676C308.28 93.295 300.585 102.352 290.889 108.822C288.988 109.956 286.835 110.6 284.624 110.694C283.597 110.879 282.541 110.808 281.548 110.489C280.555 110.169 279.655 109.611 278.929 108.862C278.202 108.113 277.67 107.197 277.379 106.195C277.088 105.192 277.048 104.133 277.261 103.11C277.842 99.3028 279.035 95.6144 280.792 92.1877C284.623 85.1586 288.847 78.3605 293.211 71.6081C294.657 69.142 296.966 67.3015 299.691 66.4438C302.415 65.5861 305.36 65.7725 307.954 66.9669C310.666 68.4185 312.714 70.8608 313.673 73.7863C314.632 76.7119 314.429 79.8956 313.105 82.676Z" fill="#ECC889"/>
<path d="M-13.8122 145.177C-17.8926 144.638 -21.9355 143.845 -25.9172 142.802C-28.0367 142.204 -29.8864 140.894 -31.1551 139.092C-32.4238 137.29 -33.0343 135.105 -32.8838 132.905C-32.8 130.71 -31.947 128.614 -30.4743 126.985C-29.0017 125.356 -27.0035 124.299 -24.8302 123.998C-14.2567 122.563 -3.58454 121.673 7.03834 120.535H7.48315C11.9794 121.623 17.3648 121.227 19.2423 126.918C20.3787 130.382 16.6731 136.072 11.2876 138.744C3.40308 142.46 -5.11443 144.643 -13.8122 145.177Z" fill="#FF9703" fill-opacity="0.2"/>
<path d="M75.0244 114.15C63.7627 113.375 52.8355 109.987 43.1064 104.254C41.1388 103.126 39.6182 101.355 38.7996 99.2383C37.981 97.1211 37.9141 94.7864 38.6102 92.6258C39.2555 90.3993 40.5876 88.4344 42.4158 87.0123C44.2441 85.5902 46.4747 84.7838 48.7884 84.7086C49.6692 84.534 50.5757 84.534 51.4565 84.7086C62.1288 88.5187 73.394 90.9928 82.6334 98.2172C86.092 100.939 88.7107 104.155 87.0802 108.856C85.4497 113.557 81.5464 114.2 77.1984 113.804L75.0244 114.15Z" fill="#FF9703" fill-opacity="0.2"/>
<path d="M245.041 214.105C243.364 213.944 241.709 213.613 240.1 213.115C230.228 209.711 221.42 203.774 214.555 195.895C213.15 194.718 212.185 193.099 211.817 191.301C211.45 189.504 211.701 187.635 212.53 185.999C214.704 182.09 218.261 181.941 222.411 182.486C231.976 183.802 241.229 186.818 249.735 191.393C250.905 192.027 252.043 192.72 253.144 193.471C255.266 194.735 256.904 196.673 257.8 198.978C258.695 201.282 258.795 203.82 258.085 206.188C257.147 208.805 255.339 211.021 252.964 212.462C250.589 213.904 247.792 214.484 245.041 214.105Z" fill="#E0A045" fill-opacity="0.28"/>
<path d="M168.555 13.3073C168.555 12.2682 168.555 11.229 168.555 10.1899C168.559 8.01461 169.278 5.90114 170.602 4.17644C171.926 2.45174 173.78 1.21192 175.878 0.648622C177.976 0.0853246 180.201 0.229932 182.209 1.06019C184.216 1.89045 185.895 3.36008 186.985 5.24172C191.875 13.1576 193.735 22.5799 192.222 31.764C191.633 35.5846 190.825 39.368 189.801 43.0953C189.634 44.3687 189.112 45.5691 188.295 46.5587C187.477 47.5484 186.398 48.2871 185.18 48.6901C183.963 49.0931 182.656 49.1441 181.411 48.8372C180.166 48.5303 179.032 47.8778 178.14 46.9549C175.2 44.2798 173.033 40.8615 171.866 37.0585C169.988 29.3393 169.247 21.2738 168.012 13.3567L168.555 13.3073Z" fill="#FF9703" fill-opacity="0.2"/>
<path d="M144.544 93.121C144.544 103.017 141.727 105.64 134.069 104.304C131.592 103.926 129.257 102.902 127.3 101.335C119.17 93.9871 114.194 83.7733 113.416 72.8335C113.32 71.1785 113.666 69.5278 114.417 68.0505C115.168 66.5732 116.298 65.3225 117.69 64.4263C119.083 63.5301 120.688 63.0207 122.342 62.9503C123.996 62.8799 125.639 63.2511 127.102 64.0257C129.554 65.0903 131.733 66.6975 133.476 68.7265C139.364 75.6657 143.197 84.1152 144.544 93.121Z" fill="#E0A045" fill-opacity="0.28"/>
<path d="M262.976 275.71C262.976 285.309 255.466 290.95 248.598 287.437C244.781 285.507 241.631 282.473 239.556 278.728C235.016 270.458 232.7 261.148 232.837 251.711C232.681 250.437 232.895 249.144 233.453 247.988C234.012 246.833 234.891 245.863 235.986 245.194C237.081 244.526 238.344 244.188 239.626 244.22C240.908 244.253 242.153 244.655 243.213 245.378L244.398 246.021C255.169 253.839 259.221 265.616 262.976 275.71Z" fill="#D9CC99" fill-opacity="0.5"/>
<path d="M77.4945 272.938C75.9656 273.126 74.4143 272.906 72.9974 272.301C71.5805 271.696 70.3484 270.726 69.4258 269.491C68.5032 268.256 67.9228 266.798 67.7432 265.266C67.5637 263.734 67.7914 262.181 68.4033 260.766C69.3611 258.259 70.8827 256.007 72.8501 254.185C80.459 247.801 88.1175 241.418 96.2205 235.678C101.161 232.017 105.559 232.314 108.029 235.183C111.389 239.191 109.561 243.249 107.288 246.762C101.015 256.369 92.7596 264.519 83.0777 270.662C81.2987 271.609 79.428 272.371 77.4945 272.938Z" fill="#E0A045" fill-opacity="0.28"/>
<path d="M62.2282 175.064C58.2285 174.935 54.2378 174.604 50.2712 174.074C48.0474 173.677 46.0174 172.554 44.4979 170.88C42.9784 169.206 42.0551 167.076 41.8718 164.821C41.6373 162.565 42.2083 160.298 43.4836 158.423C44.7588 156.548 46.656 155.186 48.8385 154.578C60.3288 151.14 72.6526 151.787 83.7211 156.409C85.2825 156.946 86.6412 157.951 87.6134 159.288C88.5855 160.624 89.1241 162.228 89.156 163.881C89.2018 165.555 88.6572 167.191 87.6182 168.503C86.5792 169.816 85.1119 170.719 83.4739 171.056C76.5567 172.936 69.5407 174.371 62.5247 176.004L62.2282 175.064Z" fill="#ECC889"/>
<path d="M305.664 160.862C308.332 160.862 311 160.862 313.668 160.862C315.266 160.855 316.848 161.168 318.324 161.782C319.799 162.395 321.138 163.298 322.26 164.436C323.383 165.574 324.268 166.925 324.862 168.41C325.457 169.895 325.75 171.484 325.724 173.084C325.637 174.65 325.237 176.183 324.546 177.59C323.855 178.998 322.888 180.251 321.703 181.277C320.518 182.302 319.139 183.077 317.648 183.557C316.157 184.037 314.585 184.211 313.026 184.069C306.96 184.12 300.9 183.723 294.893 182.882C291.341 182.159 287.977 180.71 285.011 178.626C283.814 177.976 282.815 177.015 282.119 175.844C281.422 174.672 281.055 173.334 281.055 171.971C281.055 170.608 281.422 169.27 282.119 168.098C282.815 166.927 283.814 165.965 285.011 165.316C291.095 161.293 298.465 159.703 305.664 160.862Z" fill="#E0A045" fill-opacity="0.28"/>
<path d="M137.229 157.1C135.376 156.82 133.556 156.356 131.794 155.715C125.519 152.993 119.294 150.124 113.217 147.056C111.321 146.082 109.641 144.736 108.276 143.097C106.797 141.578 105.845 139.622 105.56 137.52C105.276 135.417 105.673 133.278 106.695 131.419C107.49 129.517 108.889 127.929 110.674 126.9C112.46 125.872 114.534 125.46 116.576 125.729C121.912 126.266 127.077 127.907 131.747 130.548C136.416 133.188 140.487 136.771 143.702 141.068C144.542 142.107 145.184 143.295 145.925 144.384C150.421 150.767 148.544 155.369 140.984 156.705C139.74 156.9 138.487 157.032 137.229 157.1Z" fill="#E0A045" fill-opacity="0.28"/>
<path d="M198.894 317.224C198.596 314.858 198.596 312.464 198.894 310.099C199.536 307.723 200.623 304.408 202.402 303.715C203.689 303.405 205.029 303.381 206.327 303.646C207.625 303.911 208.849 304.458 209.912 305.249C215.04 309.178 218.668 314.75 220.189 321.034C221.333 325.928 222.191 330.885 222.758 335.879C223.034 337.315 223.017 338.792 222.707 340.221C222.398 341.65 221.803 343.002 220.958 344.195C220.113 345.387 219.036 346.397 217.792 347.161C216.547 347.926 215.161 348.431 213.716 348.645C212.228 348.867 210.711 348.784 209.256 348.401C207.801 348.019 206.439 347.345 205.252 346.419C204.065 345.494 203.077 344.337 202.35 343.019C201.622 341.7 201.169 340.248 201.018 338.749C199.783 331.623 199.19 324.349 198.301 317.125L198.894 317.224Z" fill="#ECC889"/>
<path d="M231.7 157.398C226.463 156.755 221.819 156.557 217.372 155.567C215.346 155.122 212.431 153.44 212.085 151.807C211.813 150.57 211.833 149.287 212.141 148.059C212.45 146.831 213.04 145.691 213.864 144.731C218.306 141.013 223.309 138.023 228.686 135.874C233.883 134.18 239.331 133.393 244.794 133.548C247.443 133.41 250.042 134.308 252.043 136.053C254.043 137.798 255.288 140.253 255.515 142.9C255.908 145.594 255.249 148.337 253.676 150.557C252.103 152.778 249.736 154.307 247.066 154.825C241.73 156.161 236.394 156.607 231.7 157.398Z" fill="#E0A045" fill-opacity="0.28"/>
<path d="M172.114 285.457C170.631 292.533 169.594 299.263 167.766 305.844C167.339 308.524 165.877 310.929 163.696 312.54C161.514 314.151 158.788 314.838 156.105 314.454C153.421 314.015 151 312.58 149.324 310.434C147.649 308.289 146.842 305.59 147.063 302.875C147.592 292.75 151.023 282.992 156.945 274.769C157.62 273.668 158.589 272.777 159.743 272.199C160.897 271.62 162.189 271.376 163.474 271.494C164.759 271.613 165.986 272.089 167.015 272.869C168.044 273.648 168.834 274.701 169.297 275.907C170.54 278.993 171.483 282.191 172.114 285.457Z" fill="#E0A045" fill-opacity="0.28"/>
<path d="M351.962 133.943C347.614 133.25 344.106 132.26 342.377 128.302C341.641 126.558 341.48 124.626 341.915 122.784C342.35 120.942 343.36 119.287 344.798 118.059C350.714 111.912 358.282 107.615 366.587 105.689C369.399 104.845 372.427 105.114 375.047 106.439C377.666 107.765 379.679 110.047 380.669 112.814C381.095 114.211 381.24 115.679 381.098 117.132C380.956 118.586 380.528 119.997 379.839 121.285C379.151 122.572 378.214 123.711 377.085 124.635C375.955 125.559 374.655 126.25 373.257 126.669C366.34 129.489 359.077 131.568 351.962 133.943Z" fill="#D9CC99" fill-opacity="0.5"/>
<path d="M19.2917 311.78C17.6691 311.947 16.0321 311.66 14.5618 310.953C13.0915 310.246 11.8451 309.145 10.9605 307.773C10.0759 306.4 9.5875 304.81 9.5493 303.177C9.5111 301.544 9.92447 299.932 10.744 298.519C13.7346 293.871 17.8355 290.043 22.6753 287.382C27.5151 284.721 32.9412 283.311 38.4623 283.279C39.6656 283.278 40.8466 283.603 41.8803 284.22C42.914 284.837 43.7619 285.722 44.3341 286.782C44.9064 287.842 45.1817 289.037 45.1309 290.241C45.0801 291.445 44.7051 292.613 44.0455 293.621C38.6098 301.534 30.9606 307.662 22.0586 311.236C21.1611 311.527 20.2323 311.709 19.2917 311.78Z" fill="#ECC889"/>
<path d="M375.134 197.034C380.865 197.875 386.794 198.518 392.575 199.706C393.85 199.862 395.08 200.276 396.191 200.922C397.301 201.569 398.269 202.435 399.035 203.467C399.802 204.499 400.351 205.677 400.65 206.928C400.948 208.179 400.99 209.478 400.772 210.746C400.554 212.014 400.082 213.224 399.383 214.304C398.684 215.383 397.774 216.309 396.707 217.026C395.641 217.742 394.44 218.235 393.177 218.473C391.915 218.71 390.617 218.689 389.363 218.41C382.425 216.415 375.597 214.053 368.908 211.334C366.925 210.709 365.068 209.738 363.424 208.464C361.942 207.078 360.212 204.852 360.41 203.219C360.683 202.207 361.192 201.275 361.897 200.501C362.602 199.726 363.481 199.131 364.462 198.766C367.965 197.893 371.535 197.314 375.134 197.034Z" fill="#FF9703" fill-opacity="0.2"/>
</g>
</svg>
