<svg width="180" height="141" viewBox="0 0 180 141" fill="none" xmlns="http://www.w3.org/2000/svg">
<g clip-path="url(#clip0_893_16611)">
<path d="M77.194 56.968C79.9344 54.2967 80.8913 49.8944 79.3314 47.1352C77.7715 44.3759 74.2854 44.3045 71.5451 46.9757C68.8047 49.647 64.9533 56.8707 66.5132 59.63C68.0731 62.3892 74.4536 59.6392 77.194 56.968ZM67.737 58.4163C67.1533 58.1361 66.9943 57.2554 67.382 56.4493C67.7697 55.6432 68.5572 55.2169 69.1409 55.4972C69.7246 55.7774 69.8835 56.6581 69.4958 57.4642C69.1081 58.2703 68.3207 58.6966 67.737 58.4163Z" fill="#3F3D56"/>
<path d="M73.8078 54.9354C73.5439 54.6946 73.2801 54.4537 73.0162 54.2128C72.654 53.923 72.3573 53.5598 72.1457 53.1472C71.917 52.5713 71.8594 51.9417 71.9798 51.3338C72.1237 50.4525 72.5355 49.6368 73.1593 48.9973L73.117 49.6109C73.434 49.2407 73.8069 48.9222 74.2222 48.667C74.613 48.4653 75.0429 48.4795 75.2128 48.8381C75.4074 49.2486 75.2222 49.985 75.4858 50.3144C75.9416 50.884 77.1297 49.6537 77.6308 50.1598C77.9228 50.4546 77.7846 51.1543 77.6316 51.7432C77.4738 52.4707 77.2245 53.1754 76.8895 53.8404C76.2796 54.9378 75.1656 55.6632 74.412 55.3671C74.186 55.2611 73.9813 55.1148 73.8078 54.9354Z" fill="#D9C9B1"/>
<path d="M71.4709 55.0829C71.3321 54.6127 71.6171 54.0011 71.8875 53.4861L72.0241 53.3447C72.3053 53.2033 72.6103 53.1155 72.9236 53.0858C73.0692 53.0749 73.2142 53.1138 73.3348 53.196C73.4554 53.2783 73.5445 53.399 73.5874 53.5384C73.6673 53.8144 73.6029 54.2088 73.7942 54.3701C74.1642 54.6819 74.9067 53.7159 75.2597 54.0526C75.4579 54.2415 75.3146 54.7285 75.0598 54.9678C74.8187 55.1682 74.5214 55.289 74.2087 55.3134C73.7556 55.3886 73.3025 55.4639 72.8493 55.5391C72.5843 55.6 72.3106 55.6138 72.0408 55.5798C71.9087 55.5587 71.7852 55.5009 71.6845 55.413C71.5837 55.3251 71.5097 55.2107 71.4709 55.0829Z" fill="#2F2E41"/>
<path d="M69.9759 55.4326C70.0716 54.7372 70.6038 53.6181 71.0786 52.6617L71.2637 52.3704C71.5286 52.0544 71.8338 51.7744 72.1714 51.5375C72.4297 51.3963 72.6089 51.5005 72.544 51.9624C72.4865 52.3714 72.2479 53.0379 72.3411 53.2101C72.5212 53.5432 73.618 51.6408 73.7719 52.0216C73.8582 52.2354 73.5078 53.088 73.1739 53.592C72.9338 53.9622 72.6268 54.2845 72.2686 54.5424C71.8367 54.8729 71.4049 55.2034 70.9731 55.5338C70.7615 55.7259 70.5145 55.8749 70.2458 55.9724C70.0461 56.0081 69.9179 55.8546 69.9759 55.4326Z" fill="#AA5E4B"/>
<path d="M70.1256 57.9599C70.0616 57.648 69.9298 57.3539 69.7396 57.0983C69.5495 56.8428 69.3056 56.632 69.0251 56.4808C68.7446 56.3296 68.4343 56.2417 68.1161 56.2233C67.7979 56.2049 67.4796 56.2564 67.1835 56.3742L62.116 50.519L61.0234 54.3906L66.0031 59.3572C66.2342 59.8411 66.6349 60.2235 67.1292 60.4319C67.6236 60.6403 68.1774 60.6603 68.6855 60.4881C69.1937 60.3159 69.621 59.9634 69.8864 59.4974C70.1518 59.0315 70.2369 58.4844 70.1256 57.9599Z" fill="#FCC16D"/>
<path d="M53.3036 35.6603L51.9598 37.9349C51.9598 37.9349 55.5049 39.6896 55.5738 41.0749C55.6426 42.4602 55.8964 42.1089 56.4238 42.4892C56.9512 42.8695 57.5765 43.8546 57.5964 44.9375C57.6164 46.0204 66.0011 54.4107 66.0011 54.4107L63.7175 57.5724C62.9741 56.881 62.1473 56.2849 61.2563 55.7978C59.8988 55.0862 56.1314 53.7656 55.8577 53.0341C55.584 52.3025 54.4814 51.7704 53.4266 51.0099C52.3718 50.2493 54.6324 49.6036 52.8744 48.3361C51.1163 47.0685 41.5773 37.0892 39.8682 36.124C38.1591 35.1589 38.1482 32.2126 38.1482 32.2126L39.4169 30.4561L53.3036 35.6603Z" fill="#3F3D56"/>
<path d="M129.703 95.0579V93.9469C129.733 93.6188 129.733 93.2887 129.703 92.9605V2.12541C129.703 1.56171 129.479 1.02111 129.08 0.622518C128.681 0.223926 128.14 0 127.576 0C127.012 0 126.47 0.223926 126.072 0.622518C125.673 1.02111 125.448 1.56171 125.448 2.12541V92.9605C125.419 93.2887 125.419 93.6188 125.448 93.9469V95.0579L103.914 139.081C104.422 139.589 105.025 139.991 105.688 140.266C106.352 140.54 107.063 140.682 107.781 140.682C108.5 140.682 109.211 140.54 109.875 140.266C110.538 139.991 111.141 139.589 111.649 139.081L125.448 104.1V138.556C125.448 139.12 125.673 139.661 126.072 140.059C126.47 140.458 127.012 140.682 127.576 140.682C128.14 140.682 128.681 140.458 129.08 140.059C129.479 139.661 129.703 139.12 129.703 138.556V104.1L143.502 139.081C144.01 139.589 144.613 139.991 145.277 140.266C145.94 140.54 146.652 140.682 147.37 140.682C148.088 140.682 148.8 140.54 149.463 140.266C150.127 139.991 150.73 139.589 151.238 139.081L129.703 95.0579Z" fill="#E6E6E6"/>
<path d="M23.5258 127.715C21.2091 125.428 19.2357 122.818 17.6671 119.967C16.1032 117.13 14.9481 114.087 14.236 110.927C13.5141 107.72 13.275 104.424 13.5266 101.147C14.0484 94.4729 16.5167 88.0978 20.6263 82.8104C20.8772 82.4888 21.1342 82.172 21.3972 81.8601C21.6903 81.5114 22.1885 82.0136 21.8974 82.3599C17.7037 87.3841 15.0764 93.5266 14.3405 100.027C13.8082 104.995 14.4025 110.018 16.0792 114.725C17.756 119.432 20.4721 123.701 24.026 127.215C24.3507 127.535 23.8504 128.034 23.5258 127.715Z" fill="#E6E6E6"/>
<path d="M20.3411 83.4102C20.6274 83.3031 20.9079 83.1809 21.1812 83.0439C21.195 83.0652 21.2085 83.0869 21.2223 83.1081L20.3411 83.4102Z" fill="#E6E6E6"/>
<path d="M25.8023 77.1757C25.6865 77.8233 25.4775 78.4508 25.1818 79.0386C24.3652 80.6771 23.0644 82.0254 21.4556 82.901C21.3666 82.9485 21.2745 82.9989 21.1825 83.0434C21.0726 82.8714 20.9598 82.6993 20.8529 82.5272C20.1315 81.3733 19.4901 80.16 19.1962 78.8369C18.8518 77.2914 19.0389 75.556 20.0305 74.3189C21.0192 73.0819 22.9075 72.5272 24.2762 73.3281C24.6714 73.564 25.0067 73.8878 25.256 74.2745C25.1194 74.4435 24.9829 74.6097 24.8463 74.7787C24.8343 74.7943 24.8214 74.8092 24.8077 74.8232C24.6889 74.9716 24.5672 75.1169 24.4484 75.2653C23.9526 75.8734 23.4597 76.4845 22.9639 77.0897C23.6628 77.2181 24.3739 77.2668 25.0838 77.235C25.1402 77.232 25.1996 77.2291 25.256 77.2261C25.4371 77.2142 25.6212 77.1994 25.8023 77.1757Z" fill="#E6E6E6"/>
<path d="M15.7877 89.3416L15.5977 91.8157L15.5472 92.4861C15.4938 92.4594 15.4374 92.4327 15.384 92.406C13.5372 91.4901 11.9073 90.191 10.6032 88.5954C9.29915 86.9998 8.35089 85.1445 7.82181 83.1535C7.64493 82.4629 7.52086 81.7597 7.45068 81.0503C8.41265 80.9019 9.37758 80.7507 10.3395 80.6023C9.56073 79.59 8.58517 78.7455 7.47147 78.1194C7.72543 75.6436 8.62083 73.2766 10.0694 71.252C10.3188 75.3991 14.6654 78.0363 16.2569 81.872C16.7451 83.0724 16.9564 84.3672 16.8752 85.6603C16.794 86.9534 16.4223 88.2117 15.7877 89.3416Z" fill="#E6E6E6"/>
<path d="M14.9626 111.071C14.731 111.083 14.4994 111.089 14.2708 111.086C12.2949 111.073 10.3425 110.658 8.53313 109.865C6.72376 109.071 5.09561 107.917 3.74851 106.473C2.65804 105.28 1.78125 103.908 1.15654 102.418C1.17733 102.415 1.19514 102.412 1.21592 102.409C2.17789 102.261 3.14283 102.109 4.10479 101.961C3.08312 100.631 1.72523 99.5966 0.170816 98.9648C-0.0394042 97.6243 -0.0553994 96.2606 0.123321 94.9155C2.29666 98.4546 7.37668 98.7393 10.5862 101.374C12.1169 102.648 13.1603 104.412 13.5404 106.366C13.6351 106.849 13.6858 107.34 13.6918 107.832C13.6948 107.95 13.6948 108.066 13.6918 108.182L13.7631 108.342L14.9626 111.071Z" fill="#E6E6E6"/>
<path d="M24.5108 115.168C23.8962 115.921 23.2816 116.681 22.667 117.434C23.4226 117.573 24.1924 117.619 24.9591 117.571C24.2783 120.007 22.9712 122.224 21.1677 123.999C20.9984 124.165 20.8233 124.328 20.6451 124.483C20.6095 124.515 20.5709 124.548 20.5353 124.581L20.3749 124.127L20.372 124.124L19.4635 121.611C18.3108 120.453 17.5125 118.991 17.1624 117.396V117.39C16.9495 116.456 16.9003 115.493 17.017 114.542C17.5247 110.422 21.0103 106.716 20.1434 102.655C22.0536 104.201 23.5357 106.21 24.4485 108.49C23.9526 109.098 23.4598 109.71 22.9639 110.315C23.6628 110.443 24.374 110.492 25.0838 110.46C25.3325 111.464 25.4679 112.493 25.4876 113.527C25.4906 113.676 25.4906 113.821 25.4876 113.969C25.1759 114.355 24.8612 114.738 24.5494 115.123C24.5374 115.139 24.5245 115.154 24.5108 115.168Z" fill="#E6E6E6"/>
<path d="M145.119 135.637C144.748 132.404 144.847 129.135 145.413 125.931C145.973 122.741 146.982 119.646 148.409 116.738C149.857 113.787 151.738 111.068 153.99 108.672C158.583 103.798 164.505 100.375 171.023 98.828C171.421 98.7345 171.82 98.6485 172.22 98.5701C172.667 98.482 172.741 99.1852 172.297 99.2728C165.877 100.562 159.977 103.704 155.326 108.309C151.796 111.847 149.108 116.134 147.463 120.852C145.818 125.569 145.257 130.597 145.822 135.56C145.874 136.013 145.171 136.089 145.119 135.637Z" fill="#E6E6E6"/>
<path d="M170.425 99.1172C170.715 99.2131 171.01 99.2935 171.309 99.3579C171.307 99.3831 171.304 99.4084 171.301 99.4336L170.425 99.1172Z" fill="#E6E6E6"/>
<path d="M178.591 97.678C178.095 98.1102 177.538 98.4683 176.939 98.7413C175.275 99.5068 173.416 99.7431 171.613 99.4181C171.514 99.3993 171.41 99.381 171.311 99.358C171.333 99.1552 171.353 98.9504 171.377 98.7494C171.539 97.3984 171.8 96.0514 172.401 94.8363C173.102 93.4162 174.336 92.181 175.885 91.8379C177.431 91.4929 179.251 92.243 179.815 93.7241C179.975 94.1553 180.033 94.6177 179.985 95.0751C179.772 95.1213 179.562 95.1652 179.349 95.2115C179.33 95.2161 179.311 95.2196 179.291 95.222C179.106 95.2632 178.92 95.3003 178.734 95.3415C177.966 95.505 177.199 95.6726 176.433 95.8337C176.897 96.3714 177.421 96.8547 177.994 97.2743C178.04 97.3074 178.088 97.3422 178.134 97.3752C178.282 97.4794 178.435 97.5831 178.591 97.678Z" fill="#E6E6E6"/>
<path d="M163.156 100.888L161.457 102.697L160.997 103.188C160.972 103.134 160.945 103.077 160.92 103.023C160.055 101.153 159.6 99.1202 159.584 97.0602C159.569 95.0003 159.993 92.9608 160.83 91.0779C161.125 90.4289 161.469 89.8033 161.86 89.2065C162.702 89.6932 163.549 90.1795 164.392 90.6662C164.42 89.3897 164.189 88.1208 163.714 86.9355C165.465 85.1652 167.647 83.8813 170.046 83.2104C167.639 86.5984 169.372 91.3752 168.207 95.3607C167.834 96.6018 167.187 97.7432 166.313 98.7C165.438 99.6569 164.36 100.405 163.156 100.888Z" fill="#E6E6E6"/>
<path d="M148.884 117.305C148.696 117.169 148.512 117.029 148.336 116.883C146.804 115.636 145.543 114.09 144.631 112.339C143.718 110.588 143.173 108.669 143.029 106.7C142.928 105.088 143.105 103.47 143.553 101.917C143.571 101.928 143.587 101.937 143.605 101.947C144.447 102.434 145.294 102.92 146.137 103.407C146.175 101.731 145.765 100.075 144.95 98.6091C145.627 97.4329 146.47 96.3601 147.453 95.4238C146.927 99.5425 150.707 102.945 151.556 107.008C151.949 108.959 151.657 110.987 150.727 112.748C150.498 113.184 150.23 113.598 149.926 113.985C149.854 114.079 149.781 114.169 149.706 114.258L149.661 114.427L148.884 117.305Z" fill="#E6E6E6"/>
<path d="M153.756 126.476C152.804 126.678 151.849 126.885 150.897 127.088C151.399 127.669 151.97 128.186 152.598 128.629C150.539 130.102 148.131 131.01 145.611 131.265C145.375 131.288 145.136 131.306 144.901 131.314C144.853 131.317 144.802 131.319 144.754 131.322L144.914 130.868L144.913 130.864L145.781 128.337C145.609 126.713 145.904 125.073 146.632 123.611L146.636 123.606C147.055 122.745 147.621 121.964 148.308 121.296C151.288 118.403 156.329 117.698 158.2 113.99C158.719 116.391 158.614 118.884 157.895 121.233C157.127 121.396 156.36 121.564 155.594 121.725C156.058 122.263 156.582 122.746 157.155 123.166C156.719 124.104 156.179 124.991 155.546 125.809C155.455 125.926 155.364 126.04 155.269 126.153C154.784 126.259 154.298 126.36 153.814 126.465C153.795 126.47 153.775 126.473 153.756 126.476Z" fill="#E6E6E6"/>
<path d="M166.97 80.0572H88.1818C87.2659 80.0562 86.3879 79.6922 85.7403 79.0452C85.0926 78.3981 84.7284 77.5208 84.7273 76.6058V21.5682C84.7283 20.6531 85.0926 19.7758 85.7402 19.1287C86.3878 18.4817 87.2659 18.1177 88.1818 18.1167H166.97C167.886 18.1178 168.764 18.4817 169.411 19.1288C170.059 19.7759 170.423 20.6531 170.424 21.5682V76.6058C170.423 77.5208 170.059 78.3981 169.411 79.0451C168.764 79.6921 167.886 80.0561 166.97 80.0572Z" fill="#F2F2F2"/>
<path d="M139.225 21.5579H115.927C114.45 21.5562 113.034 20.9692 111.989 19.9256C110.945 18.8821 110.357 17.4672 110.355 15.9913V15.8901H144.796V15.9913C144.795 17.4672 144.207 18.8821 143.163 19.9256C142.118 20.9692 140.702 21.5562 139.225 21.5579Z" fill="#E6E6E6"/>
<path d="M139.326 83.4983H116.028C114.551 83.4966 113.135 82.9096 112.09 81.8661C111.046 80.8225 110.458 79.4076 110.457 77.9318V77.8306H144.897V77.9318C144.896 79.4076 144.308 80.8225 143.264 81.8661C142.219 82.9096 140.803 83.4966 139.326 83.4983Z" fill="#E6E6E6"/>
<path d="M133.654 69.4299C133.654 72.7837 131.135 69.0251 127.778 69.0251C126.167 69.0251 124.621 68.3853 123.481 67.2465C122.341 66.1076 121.701 64.563 121.701 62.9525C121.701 61.3419 122.341 59.7973 123.481 58.6585C124.621 57.5197 126.167 56.8799 127.778 56.8799C131.135 56.8799 133.654 66.0761 133.654 69.4299Z" fill="#D9C9B1"/>
<path d="M110.355 39.0672C110.355 40.6778 109.715 42.2224 108.575 43.3612C107.435 44.5 105.889 45.1398 104.277 45.1398C100.921 45.1398 99.2126 51.9348 99.2126 48.581C99.2126 45.2272 100.921 32.9946 104.277 32.9946C105.889 32.9946 107.435 33.6344 108.575 34.7733C109.715 35.9121 110.355 37.4567 110.355 39.0672Z" fill="#AA5E4B"/>
<path d="M102.174 32.3721C103.052 31.8609 104.126 32.0367 104.959 32.5546C105.907 33.1437 106.431 34.1584 106.662 35.2234C106.894 36.3679 106.89 37.5476 106.651 38.6905C106.425 39.7927 105.846 40.9637 104.672 41.2801C103.889 41.4909 103.014 41.2192 102.729 40.4123C102.619 40.0883 102.595 39.7415 102.658 39.4054C102.721 39.0692 102.87 38.755 103.091 38.4931C103.749 37.7524 104.898 37.7142 105.76 38.0838C106.775 38.5185 107.393 39.4997 107.654 40.5382C107.963 41.7728 107.768 43.0534 107.442 44.2636C107.088 45.5789 106.619 46.8648 106.197 48.1595C105.374 50.6843 104.617 53.2569 104.42 55.9178C104.12 59.9825 105.459 64.6726 109.177 66.8529C111.184 68.0298 113.6 68.2175 115.847 67.7527C118.216 67.2626 120.333 66.0397 122.17 64.4966C123.125 63.6809 124.024 62.8016 124.86 61.8648C125.112 61.5614 125.449 61.3398 125.827 61.2279C126.205 61.1161 126.608 61.1192 126.985 61.2368C128.918 61.8506 128.562 64.9427 126.649 65.322C125.78 65.4944 124.838 65.0767 124.195 64.5126C123.491 63.8704 122.998 63.0302 122.782 62.1027C122.295 60.1529 122.863 58.0064 124.017 56.3955C125.321 54.5756 127.432 53.4425 129.52 52.7685C131.898 52.0012 134.389 51.775 136.861 51.5248C139.392 51.2687 141.949 50.9699 144.339 50.0502C146.261 49.3038 148.047 48.2449 149.624 46.9163C152.802 44.2606 155.054 40.6641 156.053 36.6463C156.286 35.6752 156.436 34.6863 156.504 33.69C156.531 33.2999 155.923 33.3016 155.896 33.69C155.599 38.0332 153.584 42.1646 150.538 45.2488C149.018 46.7939 147.239 48.0606 145.282 48.9914C142.924 50.1049 140.36 50.5424 137.785 50.8213C135.156 51.1062 132.493 51.2742 129.939 52.0063C127.681 52.6535 125.429 53.751 123.891 55.576C122.535 57.1851 121.791 59.3926 122.056 61.4954C122.302 63.4521 123.551 65.4665 125.602 65.8918C126.565 66.0913 127.561 65.8374 128.204 65.0645C128.56 64.6246 128.787 64.0947 128.86 63.5336C128.933 62.9726 128.849 62.4022 128.618 61.8859C128.322 61.3284 127.83 60.9007 127.236 60.686C126.642 60.4713 125.99 60.485 125.405 60.7245C124.978 60.9208 124.601 61.2117 124.303 61.5754C122.55 63.4964 120.559 65.2895 118.163 66.3663C115.929 67.3707 113.296 67.7483 110.933 66.9799C106.459 65.5253 104.745 60.414 105.014 56.1191C105.191 53.3083 106.036 50.5934 106.91 47.9337C107.356 46.5755 107.864 45.221 108.177 43.8242C108.458 42.5736 108.544 41.2486 108.135 40.0152C107.778 38.9388 107.06 37.9802 105.996 37.5291C105.029 37.1193 103.845 37.1289 102.981 37.7752C101.732 38.7095 101.617 41.0261 103.16 41.7453C104.184 42.2224 105.417 41.851 106.172 41.0586C107.019 40.1702 107.294 38.9181 107.389 37.7332C107.57 35.4942 107.075 32.7935 104.796 31.7831C103.857 31.3669 102.773 31.32 101.868 31.8477C101.801 31.8898 101.753 31.9561 101.735 32.0326C101.716 32.1092 101.728 32.19 101.767 32.258C101.807 32.326 101.872 32.3759 101.948 32.3972C102.024 32.4185 102.105 32.4095 102.174 32.3721Z" fill="#3F3D56"/>
<path d="M156.749 35.221C156.749 38.7775 162.337 47.8459 160.457 50.5685C160.224 50.9085 159.977 51.2391 159.717 51.5603C158.876 52.6109 157.912 53.5563 156.844 54.376C156.664 54.5177 156.482 54.6533 156.297 54.7849C155.642 55.249 154.955 55.6664 154.241 56.0338C154.111 56.0986 153.98 56.1633 153.848 56.2281C150.238 57.9617 146.13 58.3593 142.254 57.3503C138.378 56.3413 134.986 53.9911 132.682 50.7179C130.377 47.4447 129.31 43.4608 129.67 39.4751C130.03 35.4895 131.793 31.7606 134.646 28.952C134.796 28.8022 134.95 28.6565 135.108 28.5128C136.675 27.0777 138.501 25.9521 140.487 25.1951C140.489 25.1951 140.489 25.1931 140.491 25.1931C143.47 24.0629 146.707 23.7928 149.833 24.4138H149.837C149.905 24.428 149.974 24.4421 150.043 24.4583C157.695 26.0757 156.749 27.0938 156.749 35.221Z" fill="#D9C9B1"/>
<path d="M154.243 55.9568C154.246 55.9824 154.245 56.0082 154.241 56.0337C154.111 56.0985 153.98 56.1633 153.848 56.228C153.789 56.2097 153.737 56.1739 153.699 56.1255C153.661 56.077 153.639 56.0182 153.635 55.9568C153.61 55.6509 153.551 55.3488 153.459 55.056C152.669 52.5136 149.898 51.2141 147.479 50.7546C144.519 50.1898 141.405 50.4247 138.589 49.2041C137.434 48.7346 136.411 47.9912 135.609 47.0382C134.769 45.9884 134.347 44.6656 134.423 43.3238C134.59 40.168 136.816 37.6985 137.578 34.7209C137.892 33.4943 137.892 32.215 137.333 31.0571C136.859 30.0734 136.008 29.209 134.873 29.0876C134.827 29.0842 134.783 29.0702 134.744 29.0467C134.704 29.0231 134.671 28.9907 134.646 28.9519C134.796 28.8022 134.95 28.6564 135.108 28.5127C135.314 28.5434 135.515 28.5956 135.71 28.6686C136.82 29.0936 137.592 30.0551 138.026 31.134C138.526 32.383 138.479 33.727 138.131 35.0083C137.319 37.9961 134.932 40.5891 135.025 43.8096C135.106 46.6009 137.545 48.3417 140.005 49.0786C143.048 49.9894 146.344 49.5583 149.355 50.6129C151.723 51.4428 154.022 53.299 154.243 55.9568Z" fill="#3F3D56"/>
<path d="M156.844 54.376C156.664 54.5177 156.482 54.6534 156.297 54.7849C156.273 54.7586 156.254 54.7272 156.243 54.693C156.231 54.6588 156.227 54.6225 156.231 54.5866C156.332 51.9681 155.428 49.4099 153.704 47.4351C152.958 46.5678 152.07 45.8328 151.079 45.2611C150.041 44.668 148.903 44.3502 147.774 43.9818C146.664 43.6194 145.536 43.1802 144.687 42.3523C143.822 41.5082 143.396 40.3645 143.267 39.1824C142.961 36.3809 144.365 33.8061 144.478 31.0472C144.529 29.8164 144.257 28.6201 143.494 27.6303C142.833 26.7761 141.859 26.1931 140.755 26.3227C140.39 26.3672 140.372 25.8328 140.688 25.7296C140.709 25.7225 140.732 25.7178 140.755 25.7154C142.039 25.5656 143.204 26.27 143.968 27.2579C144.857 28.4056 145.165 29.8043 145.076 31.2354C144.902 34.0045 143.443 36.6663 143.917 39.48C143.998 40.0718 144.203 40.64 144.518 41.1477C144.834 41.6554 145.252 42.0913 145.746 42.4272C146.763 43.0972 147.965 43.3988 149.112 43.7713C150.256 44.1203 151.337 44.6491 152.314 45.338C153.271 46.0377 154.11 46.8858 154.798 47.85C156.172 49.7453 156.891 52.0363 156.844 54.376Z" fill="#3F3D56"/>
<path d="M160.457 50.5687C160.224 50.9088 159.977 51.2394 159.717 51.5605C159.988 49.9879 159.928 48.3761 159.541 46.828C159.068 44.879 158.11 43.0807 156.757 41.5995C156.079 40.8622 155.299 40.2262 154.44 39.7109C153.457 39.1239 152.383 38.628 151.688 37.6806C150.181 35.624 151.198 32.94 151.684 30.7295C151.94 29.5757 152.077 28.3471 151.605 27.2297C151.239 26.3633 150.513 25.5516 149.529 25.4525C149.142 25.414 149.14 24.8047 149.529 24.8452C149.602 24.8533 149.675 24.8634 149.748 24.8756C150.823 25.0699 151.652 25.8715 152.102 26.8593C152.685 28.1487 152.57 29.5413 152.272 30.8915C151.782 33.112 150.645 36.0532 152.677 37.8669C153.534 38.632 154.646 39.0551 155.57 39.7332C156.398 40.3377 157.139 41.0521 157.774 41.8566C159.719 44.3275 160.675 47.4327 160.457 50.5687Z" fill="#3F3D56"/>
<path d="M51.6946 134.491H55.2898L57.0005 120.636H51.6946V134.491Z" fill="#D5C4A1"/>
<path d="M49.7971 140.715H52.3753L52.8355 138.283L54.0141 140.715H60.8522C61.1799 140.715 61.4991 140.61 61.7632 140.416C62.0272 140.222 62.2222 139.949 62.3197 139.636C62.4173 139.323 62.4122 138.988 62.3054 138.678C62.1985 138.369 61.9953 138.101 61.7256 137.915L56.265 134.147V131.688L50.5213 132.031L49.7971 140.715Z" fill="#2F2E41"/>
<path d="M23.8215 127.364L26.9139 129.196L35.4587 118.151L30.8951 115.447L23.8215 127.364Z" fill="#D5C4A1"/>
<path d="M19.012 131.75L21.2295 133.064L22.867 131.207L22.6391 133.899L28.5206 137.384C28.8025 137.551 29.1305 137.624 29.4567 137.592C29.7828 137.559 30.0901 137.424 30.3336 137.204C30.5772 136.985 30.7442 136.694 30.8103 136.373C30.8764 136.052 30.8382 135.719 30.7012 135.421L27.9281 129.397L29.1833 127.283L24.0683 124.65L19.012 131.75Z" fill="#2F2E41"/>
<path d="M52.0835 45.9028L55.0463 57.0307L38.4492 57.2489L40.633 46.5573L52.0835 45.9028Z" fill="#D5C4A1"/>
<path d="M55.1103 56.8899L58.6352 68.3767L60.1961 99.0954L56.1508 128.425H51.674L49.8398 99.5735L45.3283 79.832L47.9696 100.48L34.1347 120.689H27.3364L39.8351 98.4188L32.5596 75.3001C32.5596 75.3001 33.2892 63.8672 37.9033 57.7942L39.0264 54.5522L55.1103 56.8899Z" fill="#2F2E41"/>
<path d="M55.3399 35.6541C55.3304 35.5541 55.3161 35.4494 55.297 35.3494C54.9383 32.9483 53.6421 30.7871 51.6922 29.3386C49.7424 27.8902 47.2976 27.2726 44.893 27.6209C42.6348 27.959 40.5775 29.1086 39.1072 30.8542V30.859C39.0309 30.9494 38.9594 31.0446 38.888 31.1399C38.7593 31.3018 38.6401 31.4732 38.5257 31.6446C37.4927 33.2041 36.9606 35.0415 37.0006 36.9112C37.0006 36.9112 37.868 41.5255 38.0491 42.7493C38.1731 43.5398 38.2684 44.3159 38.3399 45.0731C38.3828 45.454 38.4161 45.8302 38.4447 46.1968V46.2016C38.5877 48.0159 38.6354 49.6444 38.6783 50.9063C38.6973 51.592 39.1739 53.5396 39.2025 53.5634C39.2319 53.5857 39.2638 53.6071 39.2975 53.6277C39.5392 53.7683 39.8118 53.8472 40.0913 53.8575C40.3708 53.8678 40.6485 53.8091 40.8999 53.6867L43.0438 52.6872C44.4674 52.0255 46.0497 51.7812 47.6068 51.983C50.1549 52.313 53.8662 52.7663 54.0345 52.6292C54.2347 52.4578 55.2017 43.8112 55.4543 41.0922C55.4877 40.7017 55.5163 40.2969 55.5306 39.8636V39.8588C55.5724 38.4545 55.5087 37.049 55.3399 35.6541Z" fill="#3F3D56"/>
<path d="M67.6681 37.2085C67.5718 37.4945 67.414 37.7559 67.2057 37.9744C66.9974 38.1929 66.7437 38.363 66.4625 38.4729C66.1813 38.5828 65.8793 38.6298 65.578 38.6104C65.2766 38.5911 64.9831 38.506 64.7183 38.3611L59.2774 43.2844L58.6963 39.5176L63.9521 35.4199C64.2252 34.9914 64.6461 34.6779 65.1351 34.5388C65.6241 34.3997 66.1472 34.4446 66.6052 34.6651C67.0633 34.8856 67.4245 35.2663 67.6204 35.735C67.8162 36.2038 67.8332 36.7281 67.6681 37.2085Z" fill="#FCC16D"/>
<path d="M47.4176 27.6611C47.4176 27.6611 52.7722 28.6602 49.7248 39.0455L50.9014 44.1932L56.4223 41.0203L56.7567 39.6791L61.5904 36.289L63.8758 40.4056L61.0969 43.0587L60.2942 44.7149L58.8687 45.186L54.4526 49.4021L52.6009 50.5327C52.6009 50.5327 50.2466 51.9904 48.1522 51.2006C47.5931 50.9915 47.0703 50.6959 46.603 50.3247C45.6889 49.5964 44.8777 48.4832 44.3697 46.8003C42.4854 40.5567 41.7781 36.1907 41.7781 36.1907L47.4176 27.6611Z" fill="#3F3D56"/>
<path d="M67.3139 42.2678L64.0722 30.0835C64.0546 30.017 64.0631 29.9464 64.096 29.886C64.129 29.8257 64.1838 29.7802 64.2493 29.7591C64.3147 29.738 64.3858 29.7427 64.4479 29.7724C64.5099 29.8021 64.5582 29.8544 64.5828 29.9186L68.9459 41.3062L67.3139 42.2678Z" fill="#3F3D56"/>
<path d="M70.0127 45.0301C69.5402 44.9317 69.081 44.7778 68.6445 44.5717C68.423 44.466 68.2087 44.3467 67.9991 44.2237C67.9245 44.1821 67.8503 44.1378 67.7772 44.0949C67.6028 43.9931 67.4283 43.8913 67.2526 43.788C67.1037 43.702 66.9536 43.6145 66.8063 43.5273C66.5886 43.4004 66.3544 43.253 66.2913 43.0082C66.272 42.8923 66.2787 42.7736 66.3109 42.6607C66.3432 42.5478 66.4001 42.4434 66.4776 42.3551C66.6371 42.1689 66.8215 42.0055 67.0255 41.8696C67.483 41.5338 67.941 41.1985 68.3993 40.8637L68.522 40.5952C68.8942 40.7523 69.2362 40.9732 69.5323 41.248C69.6493 41.3668 69.7411 41.508 69.8021 41.6632C69.8631 41.8184 69.892 41.9843 69.8871 42.1509C69.8828 42.2246 69.8707 42.2976 69.851 42.3686C69.7625 42.6799 69.5307 42.9447 69.3931 43.2431C69.3652 43.3057 69.3411 43.3698 69.3209 43.4352C69.2594 43.6275 69.241 43.831 69.2672 44.0311C69.2935 44.2313 69.3635 44.4232 69.4725 44.5932C69.6084 44.7862 69.7955 44.9376 70.0127 45.0301Z" fill="#CCCCCC"/>
<path d="M70.6905 45.1428C70.4588 45.1599 70.2264 45.1213 70.0127 45.0303C70.2366 45.0791 70.4628 45.1167 70.6905 45.1428Z" fill="#E6E6E6"/>
<path d="M70.0128 45.0301C69.5403 44.9316 69.081 44.7778 68.6446 44.5717C68.423 44.466 68.2087 44.3467 67.9992 44.2237C67.9246 44.1821 67.8503 44.1377 67.7773 44.0949C67.6029 43.9931 67.4284 43.8913 67.2527 43.7879C67.3142 43.7055 67.3799 43.6264 67.4496 43.5509C68.0989 42.8449 68.9859 42.4467 69.8872 42.1509C69.8829 42.2245 69.8708 42.2975 69.8511 42.3686C69.7625 42.6798 69.5307 42.9446 69.3932 43.2431C69.3652 43.3056 69.3411 43.3698 69.321 43.4352C69.2594 43.6275 69.2411 43.8309 69.2673 44.0311C69.2935 44.2313 69.3636 44.4232 69.4726 44.5931C69.6084 44.7862 69.7955 44.9375 70.0128 45.0301Z" fill="#D9C9B1"/>
<path d="M178.011 140.759C178.011 140.791 178.005 140.822 177.993 140.851C177.981 140.881 177.963 140.907 177.94 140.929C177.918 140.952 177.891 140.97 177.862 140.982C177.833 140.994 177.801 141 177.77 141H3.0758C3.01186 141 2.95054 140.974 2.90533 140.929C2.86012 140.884 2.83472 140.823 2.83472 140.759C2.83472 140.695 2.86012 140.634 2.90533 140.589C2.95054 140.543 3.01186 140.518 3.0758 140.518H177.77C177.801 140.518 177.833 140.524 177.862 140.536C177.891 140.548 177.918 140.566 177.94 140.588C177.963 140.611 177.981 140.637 177.993 140.667C178.005 140.696 178.011 140.727 178.011 140.759Z" fill="#CCCCCC"/>
<path d="M51.165 22.4666C53.024 19.0688 51.7742 14.8085 48.3735 12.9511C44.9728 11.0937 40.7089 12.3425 38.8499 15.7403C36.9909 19.1381 38.2407 23.3983 41.6414 25.2557C45.0422 27.1131 49.306 25.8644 51.165 22.4666Z" fill="#D5C4A1"/>
<path d="M40.7275 13.3828V13.3877C40.7282 13.6927 40.6893 13.9966 40.6116 14.2916C40.5993 14.3433 40.5845 14.3975 40.5673 14.4492V14.4517C40.4019 14.9786 40.1166 15.46 39.7338 15.8583C39.3511 16.2565 38.8812 16.5608 38.361 16.7473C38.2846 16.7768 38.2057 16.8014 38.1268 16.8236C37.9606 16.8718 37.7908 16.9063 37.619 16.927C37.4646 16.9489 37.3089 16.9596 37.1531 16.9591C37.0312 16.9596 36.9095 16.9538 36.7882 16.9418C36.5045 16.9131 36.2255 16.8494 35.9575 16.7522C35.9155 16.74 35.8743 16.7252 35.8342 16.7078C35.8141 16.7007 35.7943 16.6925 35.775 16.6832C35.3278 16.4962 34.9233 16.2203 34.5861 15.8723C34.2489 15.5243 33.9859 15.1114 33.8133 14.6588C33.6406 14.2062 33.5618 13.7232 33.5816 13.2392C33.6014 12.7553 33.7195 12.2804 33.9287 11.8433L33.9311 11.8409C34.1064 11.4743 34.3441 11.1409 34.6337 10.8557C35.2796 10.2128 35.5642 8.60177 36.5453 8.60177C36.5922 8.60095 36.6391 8.60259 36.6858 8.60668C37.344 8.62886 38.5607 10.0478 39.0783 10.3828C39.4628 10.6255 39.7961 10.9409 40.0594 11.3113C40.3345 11.6924 40.5306 12.1245 40.6363 12.5823C40.6968 12.8448 40.7274 13.1133 40.7275 13.3828Z" fill="#2F2E41"/>
<path d="M36.3602 12.1393C35.8051 12.7851 34.936 13.0361 34.152 13.3721C32.7682 13.9786 31.5535 14.9132 30.613 16.0948C29.6725 17.2765 29.0347 18.6695 28.7549 20.1531C28.5381 21.3616 28.5665 22.6125 28.2241 23.7906C27.8837 24.9687 27.0409 26.1245 25.8315 26.329C25.013 26.4686 24.1925 26.1529 23.4226 25.8411C22.9992 25.6711 22.5758 25.5004 22.1524 25.329C22.594 24.2218 23.035 23.1145 23.4753 22.0073C22.7677 23.0522 21.9447 24.0144 21.0219 24.8756C19.5045 24.2643 17.9857 23.653 16.4656 23.0417C20.2054 23.0558 19.5673 19.4285 20.404 15.789C20.8639 13.7891 24.78 12.4349 25.5478 10.5321C25.9627 9.50008 26.6649 8.6084 27.5711 7.96262C28.4774 7.31684 29.5499 6.94399 30.6616 6.88819C31.7733 6.8324 32.8778 7.096 33.8443 7.64779C34.8107 8.19958 35.5988 9.01647 36.1151 10.0018C36.8829 10.3074 36.9052 11.5017 36.3602 12.1393Z" fill="#2F2E41"/>
<path d="M51.3595 12.0893C50.6748 11.1884 48.9499 11.1534 48.6038 12.2305L47.8765 11.2449C46.9327 9.18458 44.4427 9.60379 42.1914 9.87555C39.94 10.1473 37.9561 11.7325 36.9489 13.7625C35.9417 15.7926 35.8504 18.2036 36.4305 20.394C36.8207 21.8678 37.5374 23.3057 38.7264 24.2611C39.9154 25.2165 45.5048 27.476 45.9701 25.5304C45.3884 28.0687 46.5586 27.6713 48.2908 29.6169C49.188 26.9241 49.6086 21.8504 50.5058 19.1576C50.6408 18.7522 50.7759 18.3469 50.9109 17.9416C51.1956 17.0871 51.4807 16.2313 51.6864 15.3546C51.9448 14.2532 52.0442 12.9903 51.3595 12.0893Z" fill="#2F2E41"/>
<path d="M46.7467 19.8192L46.4468 17.9112C46.6506 15.5382 46.3179 11.7636 47.8766 11.2446L48.8297 12.197C48.2268 12.3979 47.08 15.9465 46.7467 19.8192Z" fill="#AA5E4B"/>
<path d="M48.9697 9.71593C48.9697 11.1692 48.4709 12.3474 47.8555 12.3474C47.2401 12.3474 46.7412 11.1692 46.7412 9.71593C46.7412 8.26262 47.8555 7.08447 47.8555 7.08447C47.8555 7.08447 48.9697 8.2626 48.9697 9.71593Z" fill="#AA5E4B"/>
<path d="M49.8886 10.3658C49.3041 11.6966 48.3735 12.5752 47.81 12.3281C47.2465 12.0811 47.2634 10.8019 47.8479 9.47111C48.4324 8.14028 49.9265 7.50879 49.9265 7.50879C49.9265 7.50879 50.4731 9.03498 49.8886 10.3658Z" fill="#AA5E4B"/>
</g>
<defs>
<clipPath id="clip0_893_16611">
<rect width="180" height="141" fill="white"/>
</clipPath>
</defs>
</svg>
